<svg xmlns="http://www.w3.org/2000/svg" id="Outline" viewBox="0 0 24 24" width="300" height="300" version="1.1" xmlns:xlink="http://www.w3.org/1999/xlink" xmlns:svgjs="http://svgjs.dev/svgjs"><g width="100%" height="100%" transform="matrix(1,0,0,1,0,0)"><path d="M10.6,12.71a1,1,0,0,1,0-1.42l4.59-4.58a1,1,0,0,0,0-1.42,1,1,0,0,0-1.41,0L9.19,9.88a3,3,0,0,0,0,4.24l4.59,4.59a1,1,0,0,0,.7.29,1,1,0,0,0,.71-.29,1,1,0,0,0,0-1.42Z" fill="#7b7b7b" fill-opacity="1" data-original-color="#000000ff" stroke="none" stroke-opacity="1"/></g></svg>