<svg version="1.1" id="svg219" xml:space="preserve" width="300" height="300" viewBox="0 0 32 32" xmlns="http://www.w3.org/2000/svg" xmlns:svg="http://www.w3.org/2000/svg" xmlns:xlink="http://www.w3.org/1999/xlink" xmlns:svgjs="http://svgjs.dev/svgjs"><g width="100%" height="100%" transform="matrix(1,0,0,1,0,0)"><defs id="defs223"><clipPath clipPathUnits="userSpaceOnUse" id="clipPath233"><path d="M 0,24 H 24 V 0 H 0 Z" id="path231" fill="#b0b0b0" fill-opacity="1" data-original-color="#000000ff" stroke="none" stroke-opacity="1"/></clipPath></defs><g id="g225" transform="matrix(1.3333333,0,0,-1.3333333,0,32)"><g id="g227"><g id="g229" clip-path="url(#clipPath233)"><g id="g235" transform="translate(23.2734,17.2563)"><path d="M 0,0 -5.946,5.947 C -6.847,6.848 -8.263,6.995 -9.239,6.293 -9.843,5.858 -10.223,5.189 -10.282,4.457 -10.34,3.725 -10.077,3.006 -9.557,2.486 l 0.592,-0.59 c 0.315,-0.315 0.315,-0.828 0,-1.142 l -2.1,-2.099 c -0.372,-0.373 -0.918,-0.523 -1.431,-0.393 l -0.82,0.209 c -0.951,0.248 -1.929,0.323 -2.903,0.22 -1.305,-0.136 -2.392,-1.001 -2.837,-2.256 -0.463,-1.306 -0.147,-2.719 0.817,-3.682 l 1.75,-1.811 -6.491,-6.491 c -0.391,-0.391 -0.391,-1.024 0,-1.414 0.195,-0.196 0.451,-0.293 0.707,-0.293 0.255,0 0.511,0.097 0.707,0.293 l 6.466,6.466 1.25,-1.294 c 0.954,-0.953 2.126,-1.468 3.252,-1.468 0.401,0 0.795,0.065 1.172,0.199 1.187,0.42 1.974,1.431 2.106,2.703 0.101,0.974 0.027,1.95 -0.214,2.874 l -0.212,1.024 c -0.122,0.505 0.029,1.047 0.397,1.415 l 2.091,2.091 c 0.156,0.157 0.396,0.235 0.594,0.245 0.201,-0.002 0.385,-0.079 0.519,-0.217 l 0.506,-0.507 c 0.902,-0.926 2.33,-1.088 3.321,-0.374 0.603,0.435 0.983,1.104 1.043,1.837 C 0.783,-1.237 0.52,-0.519 0,0" style="fill-rule: nonzero;" id="path237" fill="#b0b0b0" fill-opacity="1" data-original-color="#000000ff" stroke="none" stroke-opacity="1"/></g></g></g></g></g></svg>