<svg width="195" height="81" viewBox="0 0 195 81" fill="none" xmlns="http://www.w3.org/2000/svg">
<g filter="url(#filter0_dd_126_62)">
<mask id="path-1-outside-1_126_62" maskUnits="userSpaceOnUse" x="6" y="6" width="183" height="69" fill="black">
<rect fill="white" x="6" y="6" width="183" height="69"/>
<path d="M29.184 73C21.856 73 16.432 71.256 12.912 67.768C9.424 64.248 7.68 58.824 7.68 51.496V29.416C7.68 22.024 9.424 16.584 12.912 13.096C16.4 9.576 21.792 7.848 29.088 7.912H40.704C46.72 7.912 51.312 9.16 54.48 11.656C57.648 14.12 59.488 18.024 60 23.368C60.192 24.712 59.936 25.736 59.232 26.44C58.528 27.144 57.504 27.496 56.16 27.496C53.728 27.496 52.32 26.152 51.936 23.464C51.616 20.52 50.592 18.536 48.864 17.512C47.168 16.488 44.448 15.976 40.704 15.976H29.088C25.696 15.944 23.024 16.328 21.072 17.128C19.152 17.928 17.776 19.32 16.944 21.304C16.144 23.256 15.744 25.96 15.744 29.416V51.496C15.744 54.92 16.144 57.608 16.944 59.56C17.776 61.512 19.168 62.904 21.12 63.736C23.072 64.536 25.76 64.936 29.184 64.936H40.704C44.448 64.936 47.168 64.424 48.864 63.4C50.592 62.344 51.616 60.36 51.936 57.448C52.32 54.76 53.728 53.416 56.16 53.416C57.504 53.416 58.528 53.768 59.232 54.472C59.936 55.176 60.192 56.2 60 57.544C59.488 62.92 57.648 66.84 54.48 69.304C51.312 71.768 46.72 73 40.704 73H29.184ZM118.684 73.192C117.628 73.864 116.62 74.072 115.66 73.816C114.7 73.56 113.884 72.904 113.212 71.848L98.3318 47.08H84.8918V68.968C84.8918 71.656 83.5478 73 80.8598 73C78.1718 73 76.8278 71.656 76.8278 68.968V11.944C76.8278 9.256 78.1718 7.912 80.8598 7.912H103.324C109.18 7.912 113.66 9.48 116.764 12.616C119.9 15.72 121.468 20.2 121.468 26.056V28.936C121.468 34.024 120.284 38.088 117.916 41.128C115.548 44.136 112.124 46.008 107.644 46.744L120.22 67.72C121.436 69.96 120.924 71.784 118.684 73.192ZM84.8918 39.016H103.324C106.972 39.016 109.564 38.248 111.1 36.712C112.636 35.176 113.404 32.584 113.404 28.936V26.056C113.404 22.44 112.636 19.864 111.1 18.328C109.564 16.76 106.972 15.976 103.324 15.976H84.8918V39.016ZM156.028 73C148.7 73 143.276 71.256 139.756 67.768C136.268 64.248 134.524 58.824 134.524 51.496V29.416C134.524 22.024 136.268 16.584 139.756 13.096C143.244 9.576 148.636 7.848 155.932 7.912H167.548C173.564 7.912 178.156 9.16 181.324 11.656C184.492 14.12 186.332 18.024 186.844 23.368C187.036 24.712 186.78 25.736 186.076 26.44C185.372 27.144 184.348 27.496 183.004 27.496C180.572 27.496 179.164 26.152 178.78 23.464C178.46 20.52 177.436 18.536 175.708 17.512C174.012 16.488 171.292 15.976 167.548 15.976H155.932C152.54 15.944 149.868 16.328 147.916 17.128C145.996 17.928 144.62 19.32 143.788 21.304C142.988 23.256 142.588 25.96 142.588 29.416V51.496C142.588 54.92 142.988 57.608 143.788 59.56C144.62 61.512 146.012 62.904 147.964 63.736C149.916 64.536 152.604 64.936 156.028 64.936H167.548C170.524 64.936 172.844 64.616 174.508 63.976C176.204 63.304 177.388 62.136 178.06 60.472C178.732 58.808 179.068 56.456 179.068 53.416V48.904L171.58 48.808C168.892 48.808 167.548 47.464 167.548 44.776C167.548 42.088 168.892 40.744 171.58 40.744L183.1 40.84C185.788 40.84 187.132 42.184 187.132 44.872V53.416C187.132 60.232 185.548 65.208 182.38 68.344C179.212 71.448 174.268 73 167.548 73H156.028Z"/>
</mask>
<path d="M29.184 73C21.856 73 16.432 71.256 12.912 67.768C9.424 64.248 7.68 58.824 7.68 51.496V29.416C7.68 22.024 9.424 16.584 12.912 13.096C16.4 9.576 21.792 7.848 29.088 7.912H40.704C46.72 7.912 51.312 9.16 54.48 11.656C57.648 14.12 59.488 18.024 60 23.368C60.192 24.712 59.936 25.736 59.232 26.44C58.528 27.144 57.504 27.496 56.16 27.496C53.728 27.496 52.32 26.152 51.936 23.464C51.616 20.52 50.592 18.536 48.864 17.512C47.168 16.488 44.448 15.976 40.704 15.976H29.088C25.696 15.944 23.024 16.328 21.072 17.128C19.152 17.928 17.776 19.32 16.944 21.304C16.144 23.256 15.744 25.96 15.744 29.416V51.496C15.744 54.92 16.144 57.608 16.944 59.56C17.776 61.512 19.168 62.904 21.12 63.736C23.072 64.536 25.76 64.936 29.184 64.936H40.704C44.448 64.936 47.168 64.424 48.864 63.4C50.592 62.344 51.616 60.36 51.936 57.448C52.32 54.76 53.728 53.416 56.16 53.416C57.504 53.416 58.528 53.768 59.232 54.472C59.936 55.176 60.192 56.2 60 57.544C59.488 62.92 57.648 66.84 54.48 69.304C51.312 71.768 46.72 73 40.704 73H29.184ZM118.684 73.192C117.628 73.864 116.62 74.072 115.66 73.816C114.7 73.56 113.884 72.904 113.212 71.848L98.3318 47.08H84.8918V68.968C84.8918 71.656 83.5478 73 80.8598 73C78.1718 73 76.8278 71.656 76.8278 68.968V11.944C76.8278 9.256 78.1718 7.912 80.8598 7.912H103.324C109.18 7.912 113.66 9.48 116.764 12.616C119.9 15.72 121.468 20.2 121.468 26.056V28.936C121.468 34.024 120.284 38.088 117.916 41.128C115.548 44.136 112.124 46.008 107.644 46.744L120.22 67.72C121.436 69.96 120.924 71.784 118.684 73.192ZM84.8918 39.016H103.324C106.972 39.016 109.564 38.248 111.1 36.712C112.636 35.176 113.404 32.584 113.404 28.936V26.056C113.404 22.44 112.636 19.864 111.1 18.328C109.564 16.76 106.972 15.976 103.324 15.976H84.8918V39.016ZM156.028 73C148.7 73 143.276 71.256 139.756 67.768C136.268 64.248 134.524 58.824 134.524 51.496V29.416C134.524 22.024 136.268 16.584 139.756 13.096C143.244 9.576 148.636 7.848 155.932 7.912H167.548C173.564 7.912 178.156 9.16 181.324 11.656C184.492 14.12 186.332 18.024 186.844 23.368C187.036 24.712 186.78 25.736 186.076 26.44C185.372 27.144 184.348 27.496 183.004 27.496C180.572 27.496 179.164 26.152 178.78 23.464C178.46 20.52 177.436 18.536 175.708 17.512C174.012 16.488 171.292 15.976 167.548 15.976H155.932C152.54 15.944 149.868 16.328 147.916 17.128C145.996 17.928 144.62 19.32 143.788 21.304C142.988 23.256 142.588 25.96 142.588 29.416V51.496C142.588 54.92 142.988 57.608 143.788 59.56C144.62 61.512 146.012 62.904 147.964 63.736C149.916 64.536 152.604 64.936 156.028 64.936H167.548C170.524 64.936 172.844 64.616 174.508 63.976C176.204 63.304 177.388 62.136 178.06 60.472C178.732 58.808 179.068 56.456 179.068 53.416V48.904L171.58 48.808C168.892 48.808 167.548 47.464 167.548 44.776C167.548 42.088 168.892 40.744 171.58 40.744L183.1 40.84C185.788 40.84 187.132 42.184 187.132 44.872V53.416C187.132 60.232 185.548 65.208 182.38 68.344C179.212 71.448 174.268 73 167.548 73H156.028Z" fill="black"/>
<path d="M12.912 67.768L12.2016 68.4719L12.2081 68.4783L12.912 67.768ZM12.912 13.096L13.6191 13.8031L13.6223 13.7999L12.912 13.096ZM29.088 7.912L29.0792 8.912H29.088V7.912ZM54.48 11.656L53.8611 12.4415L53.8661 12.4453L54.48 11.656ZM60 23.368L59.0046 23.4634L59.0068 23.4865L59.0101 23.5094L60 23.368ZM59.232 26.44L59.9391 27.1471L59.9391 27.1471L59.232 26.44ZM51.936 23.464L50.9419 23.5721L50.9437 23.5888L50.9461 23.6054L51.936 23.464ZM48.864 17.512L48.3471 18.3681L48.3542 18.3723L48.864 17.512ZM29.088 15.976L29.0786 16.976H29.088V15.976ZM21.072 17.128L20.6928 16.2027L20.6874 16.2049L21.072 17.128ZM16.944 21.304L16.0218 20.9173L16.0187 20.9248L16.944 21.304ZM16.944 59.56L16.0186 59.9393L16.0241 59.9521L16.944 59.56ZM21.12 63.736L20.7279 64.656L20.7408 64.6613L21.12 63.736ZM48.864 63.4L49.3809 64.2561L49.3855 64.2533L48.864 63.4ZM51.936 57.448L50.9461 57.3066L50.9438 57.3226L50.942 57.3388L51.936 57.448ZM59.232 54.472L59.9391 53.7649L59.9391 53.7649L59.232 54.472ZM60 57.544L59.0101 57.4026L59.0067 57.4258L59.0045 57.4492L60 57.544ZM54.48 69.304L55.0939 70.0934L55.0939 70.0934L54.48 69.304ZM29.184 72C21.9944 72 16.8753 70.2874 13.6159 67.0577L12.2081 68.4783C15.9887 72.2246 21.7176 74 29.184 74V72ZM13.6223 67.0641C10.3926 63.8047 8.68 58.6856 8.68 51.496H6.68C6.68 58.9624 8.45545 64.6913 12.2017 68.4719L13.6223 67.0641ZM8.68 51.496V29.416H6.68V51.496H8.68ZM8.68 29.416C8.68 22.1585 10.3943 17.0279 13.6191 13.8031L12.2049 12.3889C8.45367 16.1401 6.68 21.8895 6.68 29.416H8.68ZM13.6223 13.7999C16.8463 10.5463 21.9256 8.84921 29.0792 8.91196L29.0968 6.91204C21.6584 6.84679 15.9537 8.60571 12.2017 12.3921L13.6223 13.7999ZM29.088 8.912H40.704V6.912H29.088V8.912ZM40.704 8.912C46.6013 8.912 50.9377 10.1382 53.8611 12.4415L55.0989 10.8705C51.6863 8.18184 46.8387 6.912 40.704 6.912V8.912ZM53.8661 12.4453C56.7507 14.689 58.5096 18.297 59.0046 23.4634L60.9954 23.2726C60.4664 17.751 58.5453 13.551 55.0939 10.8666L53.8661 12.4453ZM59.0101 23.5094C59.1749 24.6637 58.9317 25.3261 58.5249 25.7329L59.9391 27.1471C60.9403 26.1459 61.2091 24.7603 60.9899 23.2266L59.0101 23.5094ZM58.5249 25.7329C58.0666 26.1912 57.3342 26.496 56.16 26.496V28.496C57.6738 28.496 58.9894 28.0968 59.9391 27.1471L58.5249 25.7329ZM56.16 26.496C55.1339 26.496 54.4449 26.2175 53.9705 25.7646C53.4822 25.2985 53.0985 24.5307 52.926 23.3226L50.9461 23.6054C51.1575 25.0853 51.6699 26.3335 52.5895 27.2114C53.5231 28.1025 54.7541 28.496 56.16 28.496V26.496ZM52.9301 23.3559C52.593 20.2539 51.4834 17.9018 49.3738 16.6517L48.3542 18.3723C49.7006 19.1702 50.639 20.7861 50.9419 23.5721L52.9301 23.3559ZM49.3809 16.6559C47.4432 15.486 44.4938 14.976 40.704 14.976V16.976C44.4022 16.976 46.8928 17.49 48.3471 18.3681L49.3809 16.6559ZM40.704 14.976H29.088V16.976H40.704V14.976ZM29.0974 14.976C25.6436 14.9435 22.8203 15.3307 20.6928 16.2027L21.4512 18.0533C23.2277 17.3253 25.7484 16.9445 29.0786 16.976L29.0974 14.976ZM20.6874 16.2049C18.5155 17.1099 16.9516 18.7 16.0218 20.9173L17.8662 21.6907C18.6004 19.94 19.7885 18.7461 21.4566 18.0511L20.6874 16.2049ZM16.0187 20.9248C15.1478 23.0497 14.744 25.9024 14.744 29.416H16.744C16.744 26.0176 17.1402 23.4623 17.8693 21.6832L16.0187 20.9248ZM14.744 29.416V51.496H16.744V29.416H14.744ZM14.744 51.496C14.744 54.979 15.1481 57.8151 16.0187 59.9392L17.8693 59.1808C17.1399 57.4009 16.744 54.861 16.744 51.496H14.744ZM16.0241 59.9521C16.9573 62.1416 18.5384 63.7227 20.7279 64.6559L21.5121 62.8161C19.7976 62.0853 18.5947 60.8824 17.8639 59.1679L16.0241 59.9521ZM20.7408 64.6613C22.8649 65.5319 25.701 65.936 29.184 65.936V63.936C25.819 63.936 23.2791 63.5401 21.4992 62.8107L20.7408 64.6613ZM29.184 65.936H40.704V63.936H29.184V65.936ZM40.704 65.936C44.4938 65.936 47.4432 65.426 49.3809 64.2561L48.3471 62.5439C46.8928 63.422 44.4022 63.936 40.704 63.936V65.936ZM49.3855 64.2533C51.4805 62.973 52.592 60.6332 52.93 57.5572L50.942 57.3388C50.64 60.0868 49.7035 61.715 48.3426 62.5467L49.3855 64.2533ZM52.926 57.5894C53.0985 56.3813 53.4822 55.6135 53.9705 55.1474C54.4449 54.6945 55.1339 54.416 56.16 54.416V52.416C54.7541 52.416 53.5231 52.8095 52.5895 53.7006C51.6699 54.5785 51.1575 55.8267 50.9461 57.3066L52.926 57.5894ZM56.16 54.416C57.3342 54.416 58.0666 54.7208 58.5249 55.1791L59.9391 53.7649C58.9894 52.8152 57.6738 52.416 56.16 52.416V54.416ZM58.5249 55.1791C58.9317 55.5859 59.1749 56.2483 59.0101 57.4026L60.9899 57.6854C61.2091 56.1517 60.9403 54.7661 59.9391 53.7649L58.5249 55.1791ZM59.0045 57.4492C58.5092 62.6495 56.7493 66.2721 53.8661 68.5146L55.0939 70.0934C58.5467 67.4079 60.4668 63.1905 60.9955 57.6388L59.0045 57.4492ZM53.8661 68.5146C50.9421 70.7889 46.6036 72 40.704 72V74C46.8364 74 51.6819 72.7471 55.0939 70.0934L53.8661 68.5146ZM40.704 72H29.184V74H40.704V72ZM118.684 73.192L118.152 72.3454L118.147 72.3483L118.684 73.192ZM115.66 73.816L115.917 72.8498L115.917 72.8498L115.66 73.816ZM113.212 71.848L112.355 72.363L112.361 72.374L112.368 72.3849L113.212 71.848ZM98.3318 47.08L99.189 46.565L98.8976 46.08H98.3318V47.08ZM84.8918 47.08V46.08H83.8918V47.08H84.8918ZM116.764 12.616L116.053 13.3195L116.06 13.3267L116.764 12.616ZM117.916 41.128L118.701 41.7466L118.705 41.7425L117.916 41.128ZM107.644 46.744L107.482 45.7572L106.029 45.9958L106.786 47.2582L107.644 46.744ZM120.22 67.72L121.099 67.2429L121.088 67.2241L121.077 67.2058L120.22 67.72ZM84.8918 39.016H83.8918V40.016H84.8918V39.016ZM111.1 18.328L110.385 19.0278L110.393 19.0351L111.1 18.328ZM84.8918 15.976V14.976H83.8918V15.976H84.8918ZM118.147 72.3483C117.261 72.9118 116.54 73.0159 115.917 72.8498L115.402 74.7822C116.699 75.1281 117.994 74.8162 119.221 74.0357L118.147 72.3483ZM115.917 72.8498C115.258 72.6739 114.629 72.2128 114.055 71.3111L112.368 72.3849C113.138 73.5952 114.141 74.4461 115.402 74.7822L115.917 72.8498ZM114.069 71.333L99.189 46.565L97.4746 47.595L112.355 72.363L114.069 71.333ZM98.3318 46.08H84.8918V48.08H98.3318V46.08ZM83.8918 47.08V68.968H85.8918V47.08H83.8918ZM83.8918 68.968C83.8918 70.1579 83.595 70.8666 83.1766 71.2849C82.7583 71.7032 82.0496 72 80.8598 72V74C82.3579 74 83.6652 73.6248 84.5909 72.6991C85.5165 71.7734 85.8918 70.4661 85.8918 68.968H83.8918ZM80.8598 72C79.6699 72 78.9612 71.7032 78.5429 71.2849C78.1245 70.8666 77.8278 70.1579 77.8278 68.968H75.8278C75.8278 70.4661 76.203 71.7734 77.1286 72.6991C78.0543 73.6248 79.3616 74 80.8598 74V72ZM77.8278 68.968V11.944H75.8278V68.968H77.8278ZM77.8278 11.944C77.8278 10.7541 78.1245 10.0454 78.5429 9.6271C78.9612 9.20878 79.6699 8.912 80.8598 8.912V6.912C79.3616 6.912 78.0543 7.28721 77.1286 8.21289C76.203 9.13857 75.8278 10.4459 75.8278 11.944H77.8278ZM80.8598 8.912H103.324V6.912H80.8598V8.912ZM103.324 8.912C109.003 8.912 113.192 10.4291 116.053 13.3195L117.474 11.9125C114.127 8.53087 109.356 6.912 103.324 6.912V8.912ZM116.06 13.3267C118.951 16.1876 120.468 20.3765 120.468 26.056H122.468C122.468 20.0235 120.849 15.2524 117.467 11.9053L116.06 13.3267ZM120.468 26.056V28.936H122.468V26.056H120.468ZM120.468 28.936C120.468 33.8728 119.32 37.6982 117.127 40.5135L118.705 41.7425C121.248 38.4778 122.468 34.1752 122.468 28.936H120.468ZM117.13 40.5094C114.945 43.2856 111.764 45.0538 107.482 45.7572L107.806 47.7308C112.484 46.9622 116.151 44.9864 118.701 41.7466L117.13 40.5094ZM106.786 47.2582L119.362 68.2342L121.077 67.2058L108.501 46.2298L106.786 47.2582ZM119.341 68.1971C119.869 69.1694 119.949 69.9128 119.785 70.4977C119.619 71.0905 119.145 71.721 118.152 72.3454L119.216 74.0386C120.463 73.255 121.365 72.2695 121.711 71.0383C122.058 69.7992 121.787 68.5106 121.099 67.2429L119.341 68.1971ZM84.8918 40.016H103.324V38.016H84.8918V40.016ZM103.324 40.016C107.067 40.016 109.99 39.2358 111.807 37.4191L110.393 36.0049C109.137 37.2602 106.876 38.016 103.324 38.016V40.016ZM111.807 37.4191C113.624 35.6025 114.404 32.6794 114.404 28.936H112.404C112.404 32.4886 111.648 34.7495 110.393 36.0049L111.807 37.4191ZM114.404 28.936V26.056H112.404V28.936H114.404ZM114.404 26.056C114.404 22.3415 113.622 19.4363 111.807 17.6209L110.393 19.0351C111.649 20.2917 112.404 22.5384 112.404 26.056H114.404ZM111.814 17.6282C109.998 15.7741 107.072 14.976 103.324 14.976V16.976C106.872 16.976 109.13 17.7459 110.385 19.0278L111.814 17.6282ZM103.324 14.976H84.8918V16.976H103.324V14.976ZM83.8918 15.976V39.016H85.8918V15.976H83.8918ZM139.756 67.768L139.045 68.4719L139.052 68.4783L139.756 67.768ZM139.756 13.096L140.463 13.8031L140.466 13.7999L139.756 13.096ZM155.932 7.912L155.923 8.912H155.932V7.912ZM181.324 11.656L180.705 12.4415L180.71 12.4453L181.324 11.656ZM186.844 23.368L185.848 23.4634L185.851 23.4865L185.854 23.5094L186.844 23.368ZM186.076 26.44L186.783 27.1471L186.783 27.1471L186.076 26.44ZM178.78 23.464L177.786 23.5721L177.787 23.5888L177.79 23.6054L178.78 23.464ZM175.708 17.512L175.191 18.3681L175.198 18.3723L175.708 17.512ZM155.932 15.976L155.922 16.976H155.932V15.976ZM147.916 17.128L147.537 16.2027L147.531 16.2049L147.916 17.128ZM143.788 21.304L142.866 20.9173L142.862 20.9248L143.788 21.304ZM143.788 59.56L142.862 59.9393L142.868 59.9521L143.788 59.56ZM147.964 63.736L147.572 64.656L147.585 64.6613L147.964 63.736ZM174.508 63.976L174.867 64.9094L174.876 64.9057L174.508 63.976ZM178.06 60.472L178.987 60.8465L178.987 60.8465L178.06 60.472ZM179.068 48.904H180.068V47.9167L179.081 47.9041L179.068 48.904ZM171.58 48.808L171.593 47.808H171.58V48.808ZM171.58 40.744L171.588 39.744H171.58V40.744ZM183.1 40.84L183.091 41.84H183.1V40.84ZM182.38 68.344L183.08 69.0583L183.083 69.0547L182.38 68.344ZM156.028 72C148.838 72 143.719 70.2874 140.46 67.0577L139.052 68.4783C142.832 72.2246 148.561 74 156.028 74V72ZM140.466 67.0641C137.236 63.8047 135.524 58.6856 135.524 51.496H133.524C133.524 58.9624 135.299 64.6913 139.045 68.4719L140.466 67.0641ZM135.524 51.496V29.416H133.524V51.496H135.524ZM135.524 29.416C135.524 22.1585 137.238 17.0279 140.463 13.8031L139.049 12.3889C135.297 16.1401 133.524 21.8895 133.524 29.416H135.524ZM140.466 13.7999C143.69 10.5463 148.769 8.84921 155.923 8.91196L155.941 6.91204C148.502 6.84679 142.797 8.60571 139.045 12.3921L140.466 13.7999ZM155.932 8.912H167.548V6.912H155.932V8.912ZM167.548 8.912C173.445 8.912 177.781 10.1382 180.705 12.4415L181.943 10.8705C178.53 8.18184 173.682 6.912 167.548 6.912V8.912ZM180.71 12.4453C183.594 14.689 185.353 18.297 185.848 23.4634L187.839 23.2726C187.31 17.751 185.389 13.551 181.938 10.8666L180.71 12.4453ZM185.854 23.5094C186.019 24.6637 185.775 25.3261 185.369 25.7329L186.783 27.1471C187.784 26.1459 188.053 24.7603 187.834 23.2266L185.854 23.5094ZM185.369 25.7329C184.91 26.1912 184.178 26.496 183.004 26.496V28.496C184.518 28.496 185.833 28.0968 186.783 27.1471L185.369 25.7329ZM183.004 26.496C181.978 26.496 181.289 26.2175 180.814 25.7646C180.326 25.2985 179.942 24.5307 179.77 23.3226L177.79 23.6054C178.001 25.0853 178.514 26.3335 179.433 27.2114C180.367 28.1025 181.598 28.496 183.004 28.496V26.496ZM179.774 23.3559C179.437 20.2539 178.327 17.9018 176.218 16.6517L175.198 18.3723C176.544 19.1702 177.483 20.7861 177.786 23.5721L179.774 23.3559ZM176.225 16.6559C174.287 15.486 171.338 14.976 167.548 14.976V16.976C171.246 16.976 173.737 17.49 175.191 18.3681L176.225 16.6559ZM167.548 14.976H155.932V16.976H167.548V14.976ZM155.941 14.976C152.487 14.9435 149.664 15.3307 147.537 16.2027L148.295 18.0533C150.071 17.3253 152.592 16.9445 155.922 16.976L155.941 14.976ZM147.531 16.2049C145.359 17.1099 143.795 18.7 142.866 20.9173L144.71 21.6907C145.444 19.94 146.632 18.7461 148.3 18.0511L147.531 16.2049ZM142.862 20.9248C141.992 23.0497 141.588 25.9024 141.588 29.416H143.588C143.588 26.0176 143.984 23.4623 144.713 21.6832L142.862 20.9248ZM141.588 29.416V51.496H143.588V29.416H141.588ZM141.588 51.496C141.588 54.979 141.992 57.8151 142.862 59.9392L144.713 59.1808C143.984 57.4009 143.588 54.861 143.588 51.496H141.588ZM142.868 59.9521C143.801 62.1416 145.382 63.7227 147.572 64.6559L148.356 62.8161C146.641 62.0853 145.438 60.8824 144.708 59.1679L142.868 59.9521ZM147.585 64.6613C149.709 65.5319 152.545 65.936 156.028 65.936V63.936C152.663 63.936 150.123 63.5401 148.343 62.8107L147.585 64.6613ZM156.028 65.936H167.548V63.936H156.028V65.936ZM167.548 65.936C170.576 65.936 173.037 65.6132 174.867 64.9093L174.149 63.0427C172.651 63.6188 170.472 63.936 167.548 63.936V65.936ZM174.876 64.9057C176.822 64.1348 178.211 62.7689 178.987 60.8465L177.133 60.0975C176.565 61.5031 175.586 62.4732 174.139 63.0463L174.876 64.9057ZM178.987 60.8465C179.729 59.0086 180.068 56.5077 180.068 53.416H178.068C178.068 56.4043 177.734 58.6074 177.133 60.0975L178.987 60.8465ZM180.068 53.416V48.904H178.068V53.416H180.068ZM179.081 47.9041L171.593 47.8081L171.567 49.8079L179.055 49.9039L179.081 47.9041ZM171.58 47.808C170.39 47.808 169.681 47.5112 169.263 47.0929C168.845 46.6746 168.548 45.9659 168.548 44.776H166.548C166.548 46.2741 166.923 47.5814 167.849 48.5071C168.774 49.4328 170.082 49.808 171.58 49.808V47.808ZM168.548 44.776C168.548 43.5861 168.845 42.8774 169.263 42.4591C169.681 42.0408 170.39 41.744 171.58 41.744V39.744C170.082 39.744 168.774 40.1192 167.849 41.0449C166.923 41.9706 166.548 43.2779 166.548 44.776H168.548ZM171.571 41.744L183.091 41.84L183.108 39.84L171.588 39.744L171.571 41.744ZM183.1 41.84C184.29 41.84 184.998 42.1368 185.417 42.5551C185.835 42.9734 186.132 43.6821 186.132 44.872H188.132C188.132 43.3739 187.757 42.0666 186.831 41.1409C185.905 40.2152 184.598 39.84 183.1 39.84V41.84ZM186.132 44.872V53.416H188.132V44.872H186.132ZM186.132 53.416C186.132 60.1037 184.575 64.7643 181.676 67.6333L183.083 69.0547C186.521 65.6517 188.132 60.3603 188.132 53.416H186.132ZM181.68 67.6297C178.776 70.4752 174.138 72 167.548 72V74C174.397 74 179.648 72.4208 183.08 69.0583L181.68 67.6297ZM167.548 72H156.028V74H167.548V72Z" fill="#E1D2F3" mask="url(#path-1-outside-1_126_62)"/>
</g>
<defs>
<filter id="filter0_dd_126_62" x="0.679993" y="0.910278" width="193.452" height="80.012" filterUnits="userSpaceOnUse" color-interpolation-filters="sRGB">
<feFlood flood-opacity="0" result="BackgroundImageFix"/>
<feColorMatrix in="SourceAlpha" type="matrix" values="0 0 0 0 0 0 0 0 0 0 0 0 0 0 0 0 0 0 127 0" result="hardAlpha"/>
<feOffset dx="-2" dy="-2"/>
<feGaussianBlur stdDeviation="2"/>
<feComposite in2="hardAlpha" operator="out"/>
<feColorMatrix type="matrix" values="0 0 0 0 0.780392 0 0 0 0 0.694118 0 0 0 0 0.886275 0 0 0 1 0"/>
<feBlend mode="normal" in2="BackgroundImageFix" result="effect1_dropShadow_126_62"/>
<feColorMatrix in="SourceAlpha" type="matrix" values="0 0 0 0 0 0 0 0 0 0 0 0 0 0 0 0 0 0 127 0" result="hardAlpha"/>
<feOffset dx="2" dy="2"/>
<feGaussianBlur stdDeviation="2"/>
<feComposite in2="hardAlpha" operator="out"/>
<feColorMatrix type="matrix" values="0 0 0 0 0.77993 0 0 0 0 0.695462 0 0 0 0 0.885 0 0 0 1 0"/>
<feBlend mode="normal" in2="effect1_dropShadow_126_62" result="effect2_dropShadow_126_62"/>
<feBlend mode="normal" in="SourceGraphic" in2="effect2_dropShadow_126_62" result="shape"/>
</filter>
</defs>
</svg>
