<svg width="407" height="86" viewBox="0 0 407 86" fill="none" xmlns="http://www.w3.org/2000/svg">
<g filter="url(#filter0_dd_55_65)">
<mask id="path-1-outside-1_55_65" maskUnits="userSpaceOnUse" x="14" y="12" width="379" height="58" fill="black">
<rect fill="white" x="14" y="12" width="379" height="58"/>
<path d="M29.112 55C24.568 55 21.2613 53.976 19.192 51.928C17.144 49.8587 16.12 46.552 16.12 42.008V27.48C16.12 22.8933 17.144 19.5867 19.192 17.56C21.2613 15.512 24.5467 14.488 29.048 14.488H36.792C40.696 14.488 43.576 15.2987 45.432 16.92C47.288 18.5413 48.2907 21.1653 48.44 24.792C48.4827 25.24 48.3867 25.592 48.152 25.848C47.9387 26.0827 47.608 26.2 47.16 26.2C46.2853 26.2 45.816 25.752 45.752 24.856C45.624 21.976 44.8773 19.9813 43.512 18.872C42.168 17.7413 39.928 17.176 36.792 17.176H29.048C26.5307 17.176 24.5253 17.5067 23.032 18.168C21.5387 18.8293 20.4613 19.9173 19.8 21.432C19.1387 22.9253 18.808 24.9413 18.808 27.48V42.008C18.808 44.5253 19.1387 46.5413 19.8 48.056C20.4827 49.5493 21.5707 50.6373 23.064 51.32C24.5787 51.9813 26.5947 52.312 29.112 52.312H36.792C39.928 52.312 42.168 51.7573 43.512 50.648C44.8773 49.5173 45.624 47.512 45.752 44.632C45.816 43.736 46.2853 43.288 47.16 43.288C47.608 43.288 47.9387 43.416 48.152 43.672C48.3867 43.9067 48.4827 44.248 48.44 44.696C48.2907 48.3013 47.288 50.9253 45.432 52.568C43.576 54.1893 40.696 55 36.792 55H29.112ZM64.3295 55C63.4335 55 62.9855 54.552 62.9855 53.656V26.84C62.9855 25.944 63.4335 25.496 64.3295 25.496C65.2255 25.496 65.6735 25.944 65.6735 26.84V32.568C66.7402 30.2853 68.3402 28.536 70.4735 27.32C72.6282 26.104 75.2095 25.496 78.2175 25.496C79.1135 25.496 79.5615 25.944 79.5615 26.84C79.5615 27.736 79.1135 28.184 78.2175 28.184C74.3775 28.184 71.3908 29.1013 69.2575 30.936C67.1242 32.7707 65.9295 35.4373 65.6735 38.936V53.656C65.6735 54.552 65.2255 55 64.3295 55ZM97.632 67.8C94.9227 67.8 92.928 67.16 91.648 65.88C90.3893 64.6213 89.76 62.616 89.76 59.864C89.76 58.968 90.208 58.52 91.104 58.52C92 58.52 92.448 58.968 92.448 59.864C92.448 61.8693 92.8213 63.2453 93.568 63.992C94.336 64.7387 95.6907 65.112 97.632 65.112H108.256C110.219 65.112 111.573 64.7387 112.32 63.992C113.067 63.2453 113.44 61.8693 113.44 59.864V50.84C112.267 52.3333 110.731 53.4107 108.832 54.072C106.955 54.7333 104.715 55.064 102.112 55.064H100.768C96.928 55.064 94.1333 54.1893 92.384 52.44C90.6347 50.6907 89.76 47.9173 89.76 44.12V26.776C89.76 25.88 90.208 25.432 91.104 25.432C92 25.432 92.448 25.88 92.448 26.776V44.12C92.448 47.192 93.056 49.336 94.272 50.552C95.5093 51.768 97.6747 52.376 100.768 52.376H102.112C105.931 52.376 108.768 51.6933 110.624 50.328C112.501 48.9413 113.44 46.872 113.44 44.12V26.776C113.44 25.88 113.888 25.432 114.784 25.432C115.68 25.432 116.128 25.88 116.128 26.776V59.864C116.128 62.616 115.499 64.6213 114.24 65.88C112.981 67.16 110.987 67.8 108.256 67.8H97.632ZM133.28 67.8C132.384 67.8 131.936 67.352 131.936 66.456V26.84C131.936 25.944 132.384 25.496 133.28 25.496C134.176 25.496 134.624 25.944 134.624 26.84V30.36C135.52 28.76 136.875 27.5547 138.688 26.744C140.523 25.912 142.944 25.496 145.952 25.496H148.384C152.288 25.496 155.126 26.392 156.896 28.184C158.688 29.9547 159.584 32.792 159.584 36.696V43.8C159.584 47.704 158.688 50.552 156.896 52.344C155.126 54.1147 152.288 55 148.384 55H134.624V66.456C134.624 67.352 134.176 67.8 133.28 67.8ZM134.624 52.312H148.384C151.52 52.312 153.718 51.6827 154.976 50.424C156.256 49.144 156.896 46.936 156.896 43.8V36.696C156.896 33.56 156.256 31.3627 154.976 30.104C153.718 28.824 151.52 28.184 148.384 28.184H145.952C142.304 28.184 139.584 28.792 137.792 30.008C136 31.2027 134.944 33.048 134.624 35.544V52.312ZM185.379 55C181.539 55 178.744 54.1253 176.995 52.376C175.245 50.6267 174.371 47.8533 174.371 44.056V28.184H170.339C169.443 28.184 168.995 27.736 168.995 26.84C168.995 25.944 169.443 25.496 170.339 25.496H174.371V17.88C174.371 16.984 174.819 16.536 175.715 16.536C176.611 16.536 177.059 16.984 177.059 17.88V25.496H185.315C186.211 25.496 186.659 25.944 186.659 26.84C186.659 27.736 186.211 28.184 185.315 28.184H177.059V44.056C177.059 47.128 177.667 49.272 178.883 50.488C180.12 51.704 182.285 52.312 185.379 52.312C185.933 52.312 186.307 52.4293 186.499 52.664C186.691 52.8987 186.787 53.2293 186.787 53.656C186.787 54.552 186.317 55 185.379 55ZM207.385 55C203.481 55 200.633 54.1147 198.841 52.344C197.07 50.552 196.185 47.7253 196.185 43.864V36.696C196.185 32.7493 197.07 29.8907 198.841 28.12C200.633 26.328 203.481 25.4533 207.385 25.496H212.633C216.537 25.496 219.374 26.392 221.145 28.184C222.937 29.9547 223.833 32.792 223.833 36.696V43.8C223.833 47.704 222.937 50.552 221.145 52.344C219.374 54.1147 216.537 55 212.633 55H207.385ZM198.873 43.864C198.873 46.9573 199.502 49.144 200.761 50.424C202.041 51.6827 204.249 52.312 207.385 52.312H212.633C215.769 52.312 217.966 51.6827 219.225 50.424C220.505 49.144 221.145 46.936 221.145 43.8V36.696C221.145 33.56 220.505 31.3627 219.225 30.104C217.966 28.824 215.769 28.184 212.633 28.184H207.385C205.294 28.1627 203.62 28.4293 202.361 28.984C201.124 29.5173 200.228 30.4133 199.673 31.672C199.14 32.9093 198.873 34.584 198.873 36.696V43.864ZM246.22 67.8C243.724 67.8 241.847 67.2773 240.588 66.232C239.329 65.208 238.604 63.576 238.412 61.336C238.391 60.888 238.497 60.536 238.732 60.28C238.967 60.0453 239.287 59.928 239.692 59.928C240.14 59.928 240.481 60.0347 240.716 60.248C240.951 60.4827 241.079 60.824 241.1 61.272C241.228 62.744 241.676 63.7467 242.444 64.28C243.233 64.8347 244.492 65.112 246.22 65.112H258.124C260.108 65.112 261.463 64.7387 262.188 63.992C262.935 63.2667 263.308 61.912 263.308 59.928V50.2C262.391 51.7787 261.015 52.9733 259.18 53.784C257.367 54.5947 254.967 55 251.98 55H249.548C245.644 55 242.796 54.1147 241.004 52.344C239.233 50.552 238.348 47.7253 238.348 43.864V36.696C238.348 32.7493 239.233 29.9013 241.004 28.152C242.796 26.3813 245.644 25.496 249.548 25.496H254.796C257.079 25.496 258.892 25.7947 260.236 26.392C261.58 26.9893 262.604 27.9173 263.308 29.176V26.84C263.308 25.944 263.756 25.496 264.652 25.496C265.548 25.496 265.996 25.944 265.996 26.84V59.928C265.996 62.6373 265.367 64.6213 264.108 65.88C262.849 67.16 260.855 67.8 258.124 67.8H246.22ZM249.548 52.312H251.98C255.479 52.312 258.241 51.736 260.268 50.584C262.295 49.4107 263.308 47.6613 263.308 45.336V35.352C263.308 32.728 262.615 30.8827 261.228 29.816C259.863 28.728 257.719 28.184 254.796 28.184H249.548C246.412 28.184 244.204 28.8133 242.924 30.072C241.665 31.3093 241.036 33.5173 241.036 36.696V43.864C241.036 46.9573 241.665 49.144 242.924 50.424C244.204 51.6827 246.412 52.312 249.548 52.312ZM282.557 55C281.661 55 281.213 54.552 281.213 53.656V26.84C281.213 25.944 281.661 25.496 282.557 25.496C283.453 25.496 283.901 25.944 283.901 26.84V32.568C284.968 30.2853 286.568 28.536 288.701 27.32C290.856 26.104 293.437 25.496 296.445 25.496C297.341 25.496 297.789 25.944 297.789 26.84C297.789 27.736 297.341 28.184 296.445 28.184C292.605 28.184 289.619 29.1013 287.485 30.936C285.352 32.7707 284.157 35.4373 283.901 38.936V53.656C283.901 54.552 283.453 55 282.557 55ZM315.267 55C312.045 55 309.688 54.264 308.195 52.792C306.723 51.2987 305.987 48.9413 305.987 45.72C305.987 42.4773 306.733 40.1093 308.227 38.616C309.72 37.1227 312.067 36.376 315.267 36.376H330.179C330.157 33.368 329.507 31.256 328.227 30.04C326.947 28.8027 324.76 28.184 321.667 28.184H317.955C315.053 28.184 312.941 28.5253 311.619 29.208C310.296 29.8693 309.507 31 309.251 32.6C309.187 33.0053 309.048 33.3253 308.835 33.56C308.643 33.7733 308.333 33.88 307.907 33.88C307.459 33.88 307.117 33.7627 306.883 33.528C306.648 33.272 306.541 32.92 306.563 32.472C306.733 30.04 307.757 28.2693 309.635 27.16C311.533 26.0507 314.307 25.496 317.955 25.496H321.667C325.571 25.496 328.408 26.392 330.179 28.184C331.971 29.9547 332.867 32.792 332.867 36.696V53.656C332.867 54.552 332.419 55 331.523 55C330.627 55 330.179 54.552 330.179 53.656V49.88C328.216 53.2933 324.44 55 318.851 55H315.267ZM315.267 52.312H318.851C321.091 52.312 323.021 52.056 324.643 51.544C326.285 51.032 327.576 50.2213 328.515 49.112C329.475 48.0027 330.029 46.552 330.179 44.76V39.064H315.267C312.813 39.064 311.096 39.5547 310.115 40.536C309.155 41.496 308.675 43.224 308.675 45.72C308.675 48.1733 309.155 49.8907 310.115 50.872C311.096 51.832 312.813 52.312 315.267 52.312ZM381.446 25.432C384.689 25.432 387.003 26.2853 388.39 27.992C389.777 29.6773 390.47 32.472 390.47 36.376V53.72C390.47 54.616 390.022 55.064 389.126 55.064C388.23 55.064 387.782 54.616 387.782 53.72V36.376C387.782 33.432 387.291 31.32 386.31 30.04C385.35 28.76 383.729 28.12 381.446 28.12H378.758C375.857 28.12 373.777 28.76 372.518 30.04C371.259 31.32 370.63 33.432 370.63 36.376V53.72C370.63 54.616 370.182 55.064 369.286 55.064C368.39 55.064 367.942 54.616 367.942 53.72V36.376C367.942 33.432 367.451 31.32 366.47 30.04C365.51 28.76 363.889 28.12 361.606 28.12H358.918C356.017 28.12 353.937 28.76 352.678 30.04C351.419 31.32 350.79 33.432 350.79 36.376V53.72C350.79 54.616 350.342 55.064 349.446 55.064C348.55 55.064 348.102 54.616 348.102 53.72V26.84C348.102 25.944 348.55 25.496 349.446 25.496C350.342 25.496 350.79 25.944 350.79 26.84V29.656C351.665 28.1413 352.731 27.064 353.99 26.424C355.27 25.7627 356.913 25.432 358.918 25.432H361.606C363.697 25.432 365.393 25.8267 366.694 26.616C368.017 27.4053 369.073 28.7067 369.862 30.52C370.715 28.7067 371.846 27.4053 373.254 26.616C374.662 25.8267 376.497 25.432 378.758 25.432H381.446Z"/>
</mask>
<path d="M29.112 55C24.568 55 21.2613 53.976 19.192 51.928C17.144 49.8587 16.12 46.552 16.12 42.008V27.48C16.12 22.8933 17.144 19.5867 19.192 17.56C21.2613 15.512 24.5467 14.488 29.048 14.488H36.792C40.696 14.488 43.576 15.2987 45.432 16.92C47.288 18.5413 48.2907 21.1653 48.44 24.792C48.4827 25.24 48.3867 25.592 48.152 25.848C47.9387 26.0827 47.608 26.2 47.16 26.2C46.2853 26.2 45.816 25.752 45.752 24.856C45.624 21.976 44.8773 19.9813 43.512 18.872C42.168 17.7413 39.928 17.176 36.792 17.176H29.048C26.5307 17.176 24.5253 17.5067 23.032 18.168C21.5387 18.8293 20.4613 19.9173 19.8 21.432C19.1387 22.9253 18.808 24.9413 18.808 27.48V42.008C18.808 44.5253 19.1387 46.5413 19.8 48.056C20.4827 49.5493 21.5707 50.6373 23.064 51.32C24.5787 51.9813 26.5947 52.312 29.112 52.312H36.792C39.928 52.312 42.168 51.7573 43.512 50.648C44.8773 49.5173 45.624 47.512 45.752 44.632C45.816 43.736 46.2853 43.288 47.16 43.288C47.608 43.288 47.9387 43.416 48.152 43.672C48.3867 43.9067 48.4827 44.248 48.44 44.696C48.2907 48.3013 47.288 50.9253 45.432 52.568C43.576 54.1893 40.696 55 36.792 55H29.112ZM64.3295 55C63.4335 55 62.9855 54.552 62.9855 53.656V26.84C62.9855 25.944 63.4335 25.496 64.3295 25.496C65.2255 25.496 65.6735 25.944 65.6735 26.84V32.568C66.7402 30.2853 68.3402 28.536 70.4735 27.32C72.6282 26.104 75.2095 25.496 78.2175 25.496C79.1135 25.496 79.5615 25.944 79.5615 26.84C79.5615 27.736 79.1135 28.184 78.2175 28.184C74.3775 28.184 71.3908 29.1013 69.2575 30.936C67.1242 32.7707 65.9295 35.4373 65.6735 38.936V53.656C65.6735 54.552 65.2255 55 64.3295 55ZM97.632 67.8C94.9227 67.8 92.928 67.16 91.648 65.88C90.3893 64.6213 89.76 62.616 89.76 59.864C89.76 58.968 90.208 58.52 91.104 58.52C92 58.52 92.448 58.968 92.448 59.864C92.448 61.8693 92.8213 63.2453 93.568 63.992C94.336 64.7387 95.6907 65.112 97.632 65.112H108.256C110.219 65.112 111.573 64.7387 112.32 63.992C113.067 63.2453 113.44 61.8693 113.44 59.864V50.84C112.267 52.3333 110.731 53.4107 108.832 54.072C106.955 54.7333 104.715 55.064 102.112 55.064H100.768C96.928 55.064 94.1333 54.1893 92.384 52.44C90.6347 50.6907 89.76 47.9173 89.76 44.12V26.776C89.76 25.88 90.208 25.432 91.104 25.432C92 25.432 92.448 25.88 92.448 26.776V44.12C92.448 47.192 93.056 49.336 94.272 50.552C95.5093 51.768 97.6747 52.376 100.768 52.376H102.112C105.931 52.376 108.768 51.6933 110.624 50.328C112.501 48.9413 113.44 46.872 113.44 44.12V26.776C113.44 25.88 113.888 25.432 114.784 25.432C115.68 25.432 116.128 25.88 116.128 26.776V59.864C116.128 62.616 115.499 64.6213 114.24 65.88C112.981 67.16 110.987 67.8 108.256 67.8H97.632ZM133.28 67.8C132.384 67.8 131.936 67.352 131.936 66.456V26.84C131.936 25.944 132.384 25.496 133.28 25.496C134.176 25.496 134.624 25.944 134.624 26.84V30.36C135.52 28.76 136.875 27.5547 138.688 26.744C140.523 25.912 142.944 25.496 145.952 25.496H148.384C152.288 25.496 155.126 26.392 156.896 28.184C158.688 29.9547 159.584 32.792 159.584 36.696V43.8C159.584 47.704 158.688 50.552 156.896 52.344C155.126 54.1147 152.288 55 148.384 55H134.624V66.456C134.624 67.352 134.176 67.8 133.28 67.8ZM134.624 52.312H148.384C151.52 52.312 153.718 51.6827 154.976 50.424C156.256 49.144 156.896 46.936 156.896 43.8V36.696C156.896 33.56 156.256 31.3627 154.976 30.104C153.718 28.824 151.52 28.184 148.384 28.184H145.952C142.304 28.184 139.584 28.792 137.792 30.008C136 31.2027 134.944 33.048 134.624 35.544V52.312ZM185.379 55C181.539 55 178.744 54.1253 176.995 52.376C175.245 50.6267 174.371 47.8533 174.371 44.056V28.184H170.339C169.443 28.184 168.995 27.736 168.995 26.84C168.995 25.944 169.443 25.496 170.339 25.496H174.371V17.88C174.371 16.984 174.819 16.536 175.715 16.536C176.611 16.536 177.059 16.984 177.059 17.88V25.496H185.315C186.211 25.496 186.659 25.944 186.659 26.84C186.659 27.736 186.211 28.184 185.315 28.184H177.059V44.056C177.059 47.128 177.667 49.272 178.883 50.488C180.12 51.704 182.285 52.312 185.379 52.312C185.933 52.312 186.307 52.4293 186.499 52.664C186.691 52.8987 186.787 53.2293 186.787 53.656C186.787 54.552 186.317 55 185.379 55ZM207.385 55C203.481 55 200.633 54.1147 198.841 52.344C197.07 50.552 196.185 47.7253 196.185 43.864V36.696C196.185 32.7493 197.07 29.8907 198.841 28.12C200.633 26.328 203.481 25.4533 207.385 25.496H212.633C216.537 25.496 219.374 26.392 221.145 28.184C222.937 29.9547 223.833 32.792 223.833 36.696V43.8C223.833 47.704 222.937 50.552 221.145 52.344C219.374 54.1147 216.537 55 212.633 55H207.385ZM198.873 43.864C198.873 46.9573 199.502 49.144 200.761 50.424C202.041 51.6827 204.249 52.312 207.385 52.312H212.633C215.769 52.312 217.966 51.6827 219.225 50.424C220.505 49.144 221.145 46.936 221.145 43.8V36.696C221.145 33.56 220.505 31.3627 219.225 30.104C217.966 28.824 215.769 28.184 212.633 28.184H207.385C205.294 28.1627 203.62 28.4293 202.361 28.984C201.124 29.5173 200.228 30.4133 199.673 31.672C199.14 32.9093 198.873 34.584 198.873 36.696V43.864ZM246.22 67.8C243.724 67.8 241.847 67.2773 240.588 66.232C239.329 65.208 238.604 63.576 238.412 61.336C238.391 60.888 238.497 60.536 238.732 60.28C238.967 60.0453 239.287 59.928 239.692 59.928C240.14 59.928 240.481 60.0347 240.716 60.248C240.951 60.4827 241.079 60.824 241.1 61.272C241.228 62.744 241.676 63.7467 242.444 64.28C243.233 64.8347 244.492 65.112 246.22 65.112H258.124C260.108 65.112 261.463 64.7387 262.188 63.992C262.935 63.2667 263.308 61.912 263.308 59.928V50.2C262.391 51.7787 261.015 52.9733 259.18 53.784C257.367 54.5947 254.967 55 251.98 55H249.548C245.644 55 242.796 54.1147 241.004 52.344C239.233 50.552 238.348 47.7253 238.348 43.864V36.696C238.348 32.7493 239.233 29.9013 241.004 28.152C242.796 26.3813 245.644 25.496 249.548 25.496H254.796C257.079 25.496 258.892 25.7947 260.236 26.392C261.58 26.9893 262.604 27.9173 263.308 29.176V26.84C263.308 25.944 263.756 25.496 264.652 25.496C265.548 25.496 265.996 25.944 265.996 26.84V59.928C265.996 62.6373 265.367 64.6213 264.108 65.88C262.849 67.16 260.855 67.8 258.124 67.8H246.22ZM249.548 52.312H251.98C255.479 52.312 258.241 51.736 260.268 50.584C262.295 49.4107 263.308 47.6613 263.308 45.336V35.352C263.308 32.728 262.615 30.8827 261.228 29.816C259.863 28.728 257.719 28.184 254.796 28.184H249.548C246.412 28.184 244.204 28.8133 242.924 30.072C241.665 31.3093 241.036 33.5173 241.036 36.696V43.864C241.036 46.9573 241.665 49.144 242.924 50.424C244.204 51.6827 246.412 52.312 249.548 52.312ZM282.557 55C281.661 55 281.213 54.552 281.213 53.656V26.84C281.213 25.944 281.661 25.496 282.557 25.496C283.453 25.496 283.901 25.944 283.901 26.84V32.568C284.968 30.2853 286.568 28.536 288.701 27.32C290.856 26.104 293.437 25.496 296.445 25.496C297.341 25.496 297.789 25.944 297.789 26.84C297.789 27.736 297.341 28.184 296.445 28.184C292.605 28.184 289.619 29.1013 287.485 30.936C285.352 32.7707 284.157 35.4373 283.901 38.936V53.656C283.901 54.552 283.453 55 282.557 55ZM315.267 55C312.045 55 309.688 54.264 308.195 52.792C306.723 51.2987 305.987 48.9413 305.987 45.72C305.987 42.4773 306.733 40.1093 308.227 38.616C309.72 37.1227 312.067 36.376 315.267 36.376H330.179C330.157 33.368 329.507 31.256 328.227 30.04C326.947 28.8027 324.76 28.184 321.667 28.184H317.955C315.053 28.184 312.941 28.5253 311.619 29.208C310.296 29.8693 309.507 31 309.251 32.6C309.187 33.0053 309.048 33.3253 308.835 33.56C308.643 33.7733 308.333 33.88 307.907 33.88C307.459 33.88 307.117 33.7627 306.883 33.528C306.648 33.272 306.541 32.92 306.563 32.472C306.733 30.04 307.757 28.2693 309.635 27.16C311.533 26.0507 314.307 25.496 317.955 25.496H321.667C325.571 25.496 328.408 26.392 330.179 28.184C331.971 29.9547 332.867 32.792 332.867 36.696V53.656C332.867 54.552 332.419 55 331.523 55C330.627 55 330.179 54.552 330.179 53.656V49.88C328.216 53.2933 324.44 55 318.851 55H315.267ZM315.267 52.312H318.851C321.091 52.312 323.021 52.056 324.643 51.544C326.285 51.032 327.576 50.2213 328.515 49.112C329.475 48.0027 330.029 46.552 330.179 44.76V39.064H315.267C312.813 39.064 311.096 39.5547 310.115 40.536C309.155 41.496 308.675 43.224 308.675 45.72C308.675 48.1733 309.155 49.8907 310.115 50.872C311.096 51.832 312.813 52.312 315.267 52.312ZM381.446 25.432C384.689 25.432 387.003 26.2853 388.39 27.992C389.777 29.6773 390.47 32.472 390.47 36.376V53.72C390.47 54.616 390.022 55.064 389.126 55.064C388.23 55.064 387.782 54.616 387.782 53.72V36.376C387.782 33.432 387.291 31.32 386.31 30.04C385.35 28.76 383.729 28.12 381.446 28.12H378.758C375.857 28.12 373.777 28.76 372.518 30.04C371.259 31.32 370.63 33.432 370.63 36.376V53.72C370.63 54.616 370.182 55.064 369.286 55.064C368.39 55.064 367.942 54.616 367.942 53.72V36.376C367.942 33.432 367.451 31.32 366.47 30.04C365.51 28.76 363.889 28.12 361.606 28.12H358.918C356.017 28.12 353.937 28.76 352.678 30.04C351.419 31.32 350.79 33.432 350.79 36.376V53.72C350.79 54.616 350.342 55.064 349.446 55.064C348.55 55.064 348.102 54.616 348.102 53.72V26.84C348.102 25.944 348.55 25.496 349.446 25.496C350.342 25.496 350.79 25.944 350.79 26.84V29.656C351.665 28.1413 352.731 27.064 353.99 26.424C355.27 25.7627 356.913 25.432 358.918 25.432H361.606C363.697 25.432 365.393 25.8267 366.694 26.616C368.017 27.4053 369.073 28.7067 369.862 30.52C370.715 28.7067 371.846 27.4053 373.254 26.616C374.662 25.8267 376.497 25.432 378.758 25.432H381.446Z" fill="#E1D2F3"/>
<path d="M19.192 51.928L17.7705 53.3349L17.7778 53.3422L17.7851 53.3495L19.192 51.928ZM19.192 17.56L20.5988 18.9816L20.5989 18.9815L19.192 17.56ZM45.432 16.92L46.7478 15.4138L46.7478 15.4138L45.432 16.92ZM48.44 24.792L46.4417 24.8743L46.4439 24.928L46.449 24.9816L48.44 24.792ZM48.152 25.848L46.6777 24.4965L46.6721 24.5027L48.152 25.848ZM45.752 24.856L43.754 24.9448L43.7552 24.9717L43.7571 24.9985L45.752 24.856ZM43.512 18.872L42.2245 20.4024L42.2376 20.4135L42.2508 20.4242L43.512 18.872ZM19.8 21.432L21.6287 22.2419L21.6329 22.2323L19.8 21.432ZM19.8 48.056L17.9671 48.8563L17.9739 48.872L17.9811 48.8875L19.8 48.056ZM23.064 51.32L22.2325 53.1389L22.248 53.1461L22.2637 53.1529L23.064 51.32ZM43.512 50.648L44.7851 52.1904L44.7876 52.1884L43.512 50.648ZM45.752 44.632L43.7571 44.4895L43.7552 44.5163L43.754 44.5432L45.752 44.632ZM48.152 43.672L46.6156 44.9524L46.6736 45.0221L46.7378 45.0862L48.152 43.672ZM48.44 44.696L46.449 44.5064L46.4439 44.5597L46.4417 44.6132L48.44 44.696ZM45.432 52.568L46.7478 54.0743L46.7575 54.0657L45.432 52.568ZM29.112 53C24.808 53 22.13 52.0219 20.5989 50.5065L17.7851 53.3495C20.3926 55.9301 24.328 57 29.112 57V53ZM20.6135 50.5211C19.0981 48.99 18.12 46.312 18.12 42.008H14.12C14.12 46.792 15.1899 50.7274 17.7705 53.3349L20.6135 50.5211ZM18.12 42.008V27.48H14.12V42.008H18.12ZM18.12 27.48C18.12 23.1221 19.103 20.4618 20.5988 18.9816L17.7852 16.1384C15.185 18.7116 14.12 22.6646 14.12 27.48H18.12ZM20.5989 18.9815C22.133 17.4632 24.7931 16.488 29.048 16.488V12.488C24.3002 12.488 20.3897 13.5608 17.7851 16.1385L20.5989 18.9815ZM29.048 16.488H36.792V12.488H29.048V16.488ZM36.792 16.488C40.48 16.488 42.7855 17.2638 44.1162 18.4262L46.7478 15.4138C44.3665 13.3336 40.912 12.488 36.792 12.488V16.488ZM44.1162 18.4262C45.3971 19.5452 46.3042 21.5357 46.4417 24.8743L50.4383 24.7097C50.2771 20.795 49.1789 17.5375 46.7478 15.4138L44.1162 18.4262ZM46.449 24.9816C46.4526 25.0194 46.442 24.97 46.4705 24.8658C46.5019 24.7504 46.5688 24.6154 46.6777 24.4965L49.6263 27.1995C50.3492 26.4109 50.5105 25.4371 50.431 24.6024L46.449 24.9816ZM46.6721 24.5027C46.8101 24.3509 46.9635 24.2668 47.0752 24.2271C47.1747 24.1918 47.2162 24.2 47.16 24.2V28.2C47.9327 28.2 48.9042 27.9938 49.6319 27.1933L46.6721 24.5027ZM47.16 24.2C47.0541 24.2 47.2815 24.1773 47.533 24.4173C47.7762 24.6494 47.7572 24.8571 47.7469 24.7135L43.7571 24.9985C43.8108 25.7509 44.0585 26.6306 44.771 27.3107C45.4918 27.9987 46.3913 28.2 47.16 28.2V24.2ZM47.75 24.7672C47.6124 21.6702 46.7974 18.9644 44.7732 17.3198L42.2508 20.4242C42.9573 20.9982 43.6356 22.2818 43.754 24.9448L47.75 24.7672ZM44.7995 17.3415C42.9041 15.747 40.0679 15.176 36.792 15.176V19.176C39.7881 19.176 41.4319 19.7357 42.2245 20.4024L44.7995 17.3415ZM36.792 15.176H29.048V19.176H36.792V15.176ZM29.048 15.176C26.3875 15.176 24.0708 15.5206 22.2221 16.3393L23.8419 19.9967C24.9799 19.4927 26.6739 19.176 29.048 19.176V15.176ZM22.2221 16.3393C20.2651 17.206 18.8261 18.6644 17.9671 20.6317L21.6329 22.2323C22.0966 21.1703 22.8123 20.4527 23.8419 19.9967L22.2221 16.3393ZM17.9713 20.6221C17.1519 22.4724 16.808 24.8009 16.808 27.48H20.808C20.808 25.0817 21.1254 23.3782 21.6287 22.2419L17.9713 20.6221ZM16.808 27.48V42.008H20.808V27.48H16.808ZM16.808 42.008C16.808 44.6707 17.1533 46.9924 17.9671 48.8563L21.6329 47.2557C21.124 46.0902 20.808 44.3799 20.808 42.008H16.808ZM17.9811 48.8875C18.8635 50.8179 20.3021 52.2565 22.2325 53.1389L23.8955 49.5011C22.8393 49.0182 22.1018 48.2807 21.6189 47.2245L17.9811 48.8875ZM22.2637 53.1529C24.1276 53.9667 26.4493 54.312 29.112 54.312V50.312C26.7401 50.312 25.0298 49.996 23.8643 49.4871L22.2637 53.1529ZM29.112 54.312H36.792V50.312H29.112V54.312ZM36.792 54.312C40.0621 54.312 42.8914 53.7535 44.7851 52.1904L42.2389 49.1056C41.4446 49.7612 39.7939 50.312 36.792 50.312V54.312ZM44.7876 52.1884C46.796 50.5252 47.6122 47.8221 47.75 44.7208L43.754 44.5432C43.6358 47.2019 42.9586 48.5095 42.2364 49.1076L44.7876 52.1884ZM47.7469 44.7745C47.7572 44.6309 47.7762 44.8386 47.533 45.0707C47.2815 45.3107 47.0541 45.288 47.16 45.288V41.288C46.3913 41.288 45.4918 41.4893 44.771 42.1773C44.0585 42.8574 43.8108 43.7371 43.7571 44.4895L47.7469 44.7745ZM47.16 45.288C47.1995 45.288 47.1387 45.2943 47.022 45.2491C46.8916 45.1986 46.7403 45.102 46.6156 44.9524L49.6884 42.3916C48.9752 41.5358 47.9846 41.288 47.16 41.288V45.288ZM46.7378 45.0862C46.5962 44.9447 46.5129 44.7814 46.4747 44.6455C46.4406 44.5242 46.453 44.4647 46.449 44.5064L50.431 44.8856C50.5089 44.0678 50.3595 43.0511 49.5662 42.2578L46.7378 45.0862ZM46.4417 44.6132C46.3046 47.9243 45.4 49.9255 44.1065 51.0703L46.7575 54.0657C49.176 51.9252 50.2768 48.6784 50.4383 44.7788L46.4417 44.6132ZM44.1162 51.0618C42.7855 52.2242 40.48 53 36.792 53V57C40.912 57 44.3665 56.1544 46.7478 54.0742L44.1162 51.0618ZM36.792 53H29.112V57H36.792V53ZM65.6735 32.568H63.6735V41.5722L67.4854 33.4147L65.6735 32.568ZM70.4735 27.32L69.4905 25.5782L69.4831 25.5824L70.4735 27.32ZM65.6735 38.936L63.6788 38.79L63.6735 38.8629V38.936H65.6735ZM64.3295 53C64.1898 53 64.4524 52.9664 64.7357 53.2498C65.0191 53.5331 64.9855 53.7957 64.9855 53.656H60.9855C60.9855 54.4123 61.1759 55.3469 61.9073 56.0782C62.6386 56.8096 63.5732 57 64.3295 57V53ZM64.9855 53.656V26.84H60.9855V53.656H64.9855ZM64.9855 26.84C64.9855 26.7003 65.0191 26.9629 64.7357 27.2462C64.4524 27.5296 64.1898 27.496 64.3295 27.496V23.496C63.5732 23.496 62.6386 23.6864 61.9073 24.4178C61.1759 25.1491 60.9855 26.0837 60.9855 26.84H64.9855ZM64.3295 27.496C64.4692 27.496 64.2066 27.5296 63.9233 27.2462C63.6399 26.9629 63.6735 26.7003 63.6735 26.84H67.6735C67.6735 26.0837 67.4831 25.1491 66.7517 24.4178C66.0204 23.6864 65.0858 23.496 64.3295 23.496V27.496ZM63.6735 26.84V32.568H67.6735V26.84H63.6735ZM67.4854 33.4147C68.3819 31.4964 69.6998 30.0631 71.4639 29.0576L69.4831 25.5824C66.9805 27.0089 65.0985 29.0743 63.8616 31.7213L67.4854 33.4147ZM71.4565 29.0618C73.2528 28.048 75.48 27.496 78.2175 27.496V23.496C74.939 23.496 72.0036 24.16 69.4905 25.5782L71.4565 29.0618ZM78.2175 27.496C78.3572 27.496 78.0946 27.5296 77.8113 27.2462C77.5279 26.9629 77.5615 26.7003 77.5615 26.84H81.5615C81.5615 26.0837 81.3711 25.1491 80.6397 24.4178C79.9084 23.6864 78.9738 23.496 78.2175 23.496V27.496ZM77.5615 26.84C77.5615 26.9797 77.5279 26.7171 77.8113 26.4338C78.0946 26.1504 78.3572 26.184 78.2175 26.184V30.184C78.9738 30.184 79.9084 29.9936 80.6397 29.2622C81.3711 28.5309 81.5615 27.5963 81.5615 26.84H77.5615ZM78.2175 26.184C74.0739 26.184 70.5632 27.1752 67.9534 29.4196L70.5616 32.4524C72.2184 31.0275 74.6811 30.184 78.2175 30.184V26.184ZM67.9534 29.4196C65.3225 31.6822 63.9635 34.8994 63.6788 38.79L67.6682 39.082C67.8955 35.9753 68.9258 33.8591 70.5616 32.4524L67.9534 29.4196ZM63.6735 38.936V53.656H67.6735V38.936H63.6735ZM63.6735 53.656C63.6735 53.7957 63.6399 53.5331 63.9233 53.2498C64.2066 52.9664 64.4692 53 64.3295 53V57C65.0858 57 66.0204 56.8096 66.7517 56.0782C67.4831 55.3469 67.6735 54.4123 67.6735 53.656H63.6735ZM91.648 65.88L93.0622 64.4658L93.0622 64.4658L91.648 65.88ZM93.568 63.992L92.1538 65.4062L92.1637 65.4162L92.1738 65.426L93.568 63.992ZM112.32 63.992L113.734 65.4062L113.734 65.4062L112.32 63.992ZM113.44 50.84H115.44V45.0574L111.867 49.6044L113.44 50.84ZM108.832 54.072L108.174 52.1833L108.167 52.1856L108.832 54.072ZM92.384 52.44L93.7982 51.0258L93.7982 51.0258L92.384 52.44ZM94.272 50.552L92.8578 51.9662L92.8639 51.9724L92.8701 51.9785L94.272 50.552ZM110.624 50.328L111.809 51.939L111.812 51.9367L110.624 50.328ZM114.24 65.88L112.826 64.4658L112.82 64.4717L112.814 64.4777L114.24 65.88ZM97.632 65.8C95.1925 65.8 93.8162 65.2197 93.0622 64.4658L90.2338 67.2942C92.0398 69.1003 94.6528 69.8 97.632 69.8V65.8ZM93.0622 64.4658C92.3399 63.7435 91.76 62.3683 91.76 59.864H87.76C87.76 62.8637 88.4388 65.4992 90.2338 67.2942L93.0622 64.4658ZM91.76 59.864C91.76 59.7243 91.7936 59.9869 91.5102 60.2702C91.2269 60.5536 90.9643 60.52 91.104 60.52V56.52C90.3477 56.52 89.4132 56.7104 88.6818 57.4418C87.9504 58.1731 87.76 59.1077 87.76 59.864H91.76ZM91.104 60.52C91.2437 60.52 90.9812 60.5536 90.6978 60.2702C90.4144 59.9869 90.448 59.7243 90.448 59.864H94.448C94.448 59.1077 94.2576 58.1731 93.5262 57.4418C92.7949 56.7104 91.8603 56.52 91.104 56.52V60.52ZM90.448 59.864C90.448 61.9752 90.8122 64.0646 92.1538 65.4062L94.9822 62.5778C94.8305 62.4261 94.448 61.7635 94.448 59.864H90.448ZM92.1738 65.426C93.5209 66.7357 95.5535 67.112 97.632 67.112V63.112C95.8279 63.112 95.1511 62.7417 94.9622 62.558L92.1738 65.426ZM97.632 67.112H108.256V63.112H97.632V67.112ZM108.256 67.112C110.339 67.112 112.398 66.7422 113.734 65.4062L110.906 62.5778C110.748 62.7351 110.098 63.112 108.256 63.112V67.112ZM113.734 65.4062C115.076 64.0646 115.44 61.9752 115.44 59.864H111.44C111.44 61.7635 111.057 62.4261 110.906 62.5778L113.734 65.4062ZM115.44 59.864V50.84H111.44V59.864H115.44ZM111.867 49.6044C110.944 50.7791 109.734 51.64 108.174 52.1833L109.49 55.9607C111.727 55.1813 113.589 53.8876 115.013 52.0756L111.867 49.6044ZM108.167 52.1856C106.558 52.7526 104.554 53.064 102.112 53.064V57.064C104.875 57.064 107.351 56.714 109.497 55.9584L108.167 52.1856ZM102.112 53.064H100.768V57.064H102.112V53.064ZM100.768 53.064C97.173 53.064 95.01 52.2375 93.7982 51.0258L90.9698 53.8542C93.2567 56.1411 96.683 57.064 100.768 57.064V53.064ZM93.7982 51.0258C92.583 49.8105 91.76 47.6647 91.76 44.12H87.76C87.76 48.17 88.6864 51.5708 90.9698 53.8542L93.7982 51.0258ZM91.76 44.12V26.776H87.76V44.12H91.76ZM91.76 26.776C91.76 26.6363 91.7936 26.8989 91.5102 27.1822C91.2269 27.4656 90.9643 27.432 91.104 27.432V23.432C90.3477 23.432 89.4132 23.6224 88.6818 24.3538C87.9504 25.0851 87.76 26.0197 87.76 26.776H91.76ZM91.104 27.432C91.2437 27.432 90.9812 27.4656 90.6978 27.1822C90.4144 26.8989 90.448 26.6363 90.448 26.776H94.448C94.448 26.0197 94.2576 25.0851 93.5262 24.3538C92.7949 23.6224 91.8603 23.432 91.104 23.432V27.432ZM90.448 26.776V44.12H94.448V26.776H90.448ZM90.448 44.12C90.448 47.3402 91.0631 50.1715 92.8578 51.9662L95.6862 49.1378C95.0489 48.5005 94.448 47.0438 94.448 44.12H90.448ZM92.8701 51.9785C94.6836 53.7606 97.526 54.376 100.768 54.376V50.376C97.8234 50.376 96.3351 49.7754 95.6739 49.1255L92.8701 51.9785ZM100.768 54.376H102.112V50.376H100.768V54.376ZM102.112 54.376C106.102 54.376 109.449 53.675 111.809 51.939L109.439 48.717C108.087 49.7117 105.759 50.376 102.112 50.376V54.376ZM111.812 51.9367C114.296 50.1025 115.44 47.3778 115.44 44.12H111.44C111.44 46.3662 110.707 47.7802 109.436 48.7193L111.812 51.9367ZM115.44 44.12V26.776H111.44V44.12H115.44ZM115.44 26.776C115.44 26.6363 115.474 26.8989 115.19 27.1822C114.907 27.4656 114.644 27.432 114.784 27.432V23.432C114.028 23.432 113.093 23.6224 112.362 24.3538C111.63 25.0851 111.44 26.0197 111.44 26.776H115.44ZM114.784 27.432C114.924 27.432 114.661 27.4656 114.378 27.1822C114.094 26.8989 114.128 26.6363 114.128 26.776H118.128C118.128 26.0197 117.938 25.0851 117.206 24.3538C116.475 23.6224 115.54 23.432 114.784 23.432V27.432ZM114.128 26.776V59.864H118.128V26.776H114.128ZM114.128 59.864C114.128 62.3683 113.548 63.7435 112.826 64.4658L115.654 67.2942C117.449 65.4992 118.128 62.8637 118.128 59.864H114.128ZM112.814 64.4777C112.088 65.2158 110.726 65.8 108.256 65.8V69.8C111.248 69.8 113.874 69.1042 115.666 67.2823L112.814 64.4777ZM108.256 65.8H97.632V69.8H108.256V65.8ZM134.624 30.36H132.624V38.0247L136.37 31.3372L134.624 30.36ZM138.688 26.744L139.505 28.5699L139.515 28.5655L138.688 26.744ZM156.896 28.184L155.474 29.5897L155.482 29.5982L155.491 29.6067L156.896 28.184ZM156.896 52.344L158.311 53.7582L158.311 53.7582L156.896 52.344ZM134.624 55V53H132.624V55H134.624ZM134.624 52.312H132.624V54.312H134.624V52.312ZM154.976 50.424L156.391 51.8382L156.391 51.8382L154.976 50.424ZM154.976 30.104L153.55 31.5063L153.562 31.5183L153.574 31.53L154.976 30.104ZM137.792 30.008L138.902 31.6721L138.909 31.6676L138.916 31.663L137.792 30.008ZM134.624 35.544L132.641 35.2897L132.624 35.4163V35.544H134.624ZM133.28 65.8C133.141 65.8 133.403 65.7664 133.687 66.0498C133.97 66.3331 133.936 66.5957 133.936 66.456H129.936C129.936 67.2123 130.127 68.1469 130.858 68.8782C131.59 69.6096 132.524 69.8 133.28 69.8V65.8ZM133.936 66.456V26.84H129.936V66.456H133.936ZM133.936 26.84C133.936 26.7003 133.97 26.9629 133.687 27.2462C133.403 27.5296 133.141 27.496 133.28 27.496V23.496C132.524 23.496 131.59 23.6864 130.858 24.4178C130.127 25.1491 129.936 26.0837 129.936 26.84H133.936ZM133.28 27.496C133.42 27.496 133.158 27.5296 132.874 27.2462C132.591 26.9629 132.624 26.7003 132.624 26.84H136.624C136.624 26.0837 136.434 25.1491 135.703 24.4178C134.971 23.6864 134.037 23.496 133.28 23.496V27.496ZM132.624 26.84V30.36H136.624V26.84H132.624ZM136.37 31.3372C137.037 30.1444 138.05 29.2204 139.505 28.5698L137.872 24.9182C135.701 25.889 134.004 27.3756 132.879 29.3828L136.37 31.3372ZM139.515 28.5655C140.994 27.8945 143.101 27.496 145.952 27.496V23.496C142.788 23.496 140.052 23.9295 137.862 24.9225L139.515 28.5655ZM145.952 27.496H148.384V23.496H145.952V27.496ZM148.384 27.496C152.041 27.496 154.242 28.3425 155.474 29.5897L158.319 26.7783C156.01 24.4415 152.536 23.496 148.384 23.496V27.496ZM155.491 29.6067C156.738 30.839 157.584 33.0395 157.584 36.696H161.584C161.584 32.5445 160.639 29.0703 158.302 26.7613L155.491 29.6067ZM157.584 36.696V43.8H161.584V36.696H157.584ZM157.584 43.8C157.584 47.4538 156.739 49.673 155.482 50.9298L158.311 53.7582C160.638 51.431 161.584 47.9542 161.584 43.8H157.584ZM155.482 50.9298C154.251 52.1615 152.047 53 148.384 53V57C152.53 57 156.001 56.0678 158.311 53.7582L155.482 50.9298ZM148.384 53H134.624V57H148.384V53ZM132.624 55V66.456H136.624V55H132.624ZM132.624 66.456C132.624 66.5957 132.591 66.3331 132.874 66.0498C133.158 65.7664 133.42 65.8 133.28 65.8V69.8C134.037 69.8 134.971 69.6096 135.703 68.8782C136.434 68.1469 136.624 67.2123 136.624 66.456H132.624ZM134.624 54.312H148.384V50.312H134.624V54.312ZM148.384 54.312C151.678 54.312 154.557 53.6718 156.391 51.8382L153.562 49.0098C152.879 49.6936 151.363 50.312 148.384 50.312V54.312ZM156.391 51.8382C158.241 49.988 158.896 47.1054 158.896 43.8H154.896C154.896 46.7666 154.272 48.3 153.562 49.0098L156.391 51.8382ZM158.896 43.8V36.696H154.896V43.8H158.896ZM158.896 36.696C158.896 33.3955 158.243 30.5111 156.379 28.678L153.574 31.53C154.27 32.2143 154.896 33.7245 154.896 36.696H158.896ZM156.403 28.7017C154.569 26.8375 151.685 26.184 148.384 26.184V30.184C151.356 30.184 152.866 30.8105 153.55 31.5063L156.403 28.7017ZM148.384 26.184H145.952V30.184H148.384V26.184ZM145.952 26.184C142.15 26.184 138.95 26.8054 136.669 28.353L138.916 31.663C140.219 30.7786 142.459 30.184 145.952 30.184V26.184ZM136.683 28.3439C134.326 29.915 133.021 32.3262 132.641 35.2897L136.608 35.7983C136.868 33.7698 137.675 32.4903 138.902 31.6721L136.683 28.3439ZM132.624 35.544V52.312H136.624V35.544H132.624ZM176.995 52.376L178.409 50.9618L178.409 50.9618L176.995 52.376ZM174.371 28.184H176.371V26.184H174.371V28.184ZM174.371 25.496V27.496H176.371V25.496H174.371ZM177.059 25.496H175.059V27.496H177.059V25.496ZM177.059 28.184V26.184H175.059V28.184H177.059ZM178.883 50.488L177.468 51.9022L177.474 51.9084L177.481 51.9145L178.883 50.488ZM186.499 52.664L188.046 51.3975L188.046 51.3975L186.499 52.664ZM185.379 53C181.783 53 179.62 52.1735 178.409 50.9618L175.58 53.7902C177.867 56.0771 181.294 57 185.379 57V53ZM178.409 50.9618C177.193 49.7465 176.371 47.6007 176.371 44.056H172.371C172.371 48.106 173.297 51.5068 175.58 53.7902L178.409 50.9618ZM176.371 44.056V28.184H172.371V44.056H176.371ZM174.371 26.184H170.339V30.184H174.371V26.184ZM170.339 26.184C170.199 26.184 170.461 26.1504 170.745 26.4338C171.028 26.7171 170.995 26.9797 170.995 26.84H166.995C166.995 27.5963 167.185 28.5309 167.916 29.2622C168.648 29.9936 169.582 30.184 170.339 30.184V26.184ZM170.995 26.84C170.995 26.7003 171.028 26.9629 170.745 27.2462C170.461 27.5296 170.199 27.496 170.339 27.496V23.496C169.582 23.496 168.648 23.6864 167.916 24.4178C167.185 25.1491 166.995 26.0837 166.995 26.84H170.995ZM170.339 27.496H174.371V23.496H170.339V27.496ZM176.371 25.496V17.88H172.371V25.496H176.371ZM176.371 17.88C176.371 17.7403 176.404 18.0029 176.121 18.2862C175.837 18.5696 175.575 18.536 175.715 18.536V14.536C174.958 14.536 174.024 14.7264 173.292 15.4578C172.561 16.1891 172.371 17.1237 172.371 17.88H176.371ZM175.715 18.536C175.854 18.536 175.592 18.5696 175.308 18.2862C175.025 18.0029 175.059 17.7403 175.059 17.88H179.059C179.059 17.1237 178.868 16.1891 178.137 15.4578C177.405 14.7264 176.471 14.536 175.715 14.536V18.536ZM175.059 17.88V25.496H179.059V17.88H175.059ZM177.059 27.496H185.315V23.496H177.059V27.496ZM185.315 27.496C185.454 27.496 185.192 27.5296 184.908 27.2462C184.625 26.9629 184.659 26.7003 184.659 26.84H188.659C188.659 26.0837 188.468 25.1491 187.737 24.4178C187.005 23.6864 186.071 23.496 185.315 23.496V27.496ZM184.659 26.84C184.659 26.9797 184.625 26.7171 184.908 26.4338C185.192 26.1504 185.454 26.184 185.315 26.184V30.184C186.071 30.184 187.005 29.9936 187.737 29.2622C188.468 28.5309 188.659 27.5963 188.659 26.84H184.659ZM185.315 26.184H177.059V30.184H185.315V26.184ZM175.059 28.184V44.056H179.059V28.184H175.059ZM175.059 44.056C175.059 47.2762 175.674 50.1075 177.468 51.9022L180.297 49.0738C179.659 48.4365 179.059 46.9798 179.059 44.056H175.059ZM177.481 51.9145C179.294 53.6966 182.136 54.312 185.379 54.312V50.312C182.434 50.312 180.946 49.7114 180.284 49.0615L177.481 51.9145ZM185.379 54.312C185.53 54.312 185.545 54.3299 185.475 54.308C185.397 54.2834 185.164 54.1912 184.951 53.9305L188.046 51.3975C187.255 50.4302 186.068 50.312 185.379 50.312V54.312ZM184.951 53.9305C184.751 53.6869 184.787 53.5059 184.787 53.656H188.787C188.787 52.9527 188.63 52.1104 188.046 51.3975L184.951 53.9305ZM184.787 53.656C184.787 53.7714 184.761 53.4965 185.054 53.2173C185.329 52.9546 185.562 53 185.379 53V57C186.133 57 187.071 56.8214 187.815 56.1107C188.577 55.3835 188.787 54.4366 188.787 53.656H184.787ZM198.841 52.344L197.418 53.7497L197.427 53.7582L197.435 53.7667L198.841 52.344ZM198.841 28.12L197.427 26.7058L197.427 26.7058L198.841 28.12ZM207.385 25.496L207.363 27.4959L207.374 27.496H207.385V25.496ZM221.145 28.184L219.722 29.5897L219.731 29.5982L219.739 29.6067L221.145 28.184ZM221.145 52.344L222.559 53.7582L222.559 53.7582L221.145 52.344ZM200.761 50.424L199.335 51.8263L199.347 51.8383L199.359 51.85L200.761 50.424ZM219.225 50.424L220.639 51.8382L220.639 51.8382L219.225 50.424ZM219.225 30.104L217.799 31.5063L217.811 31.5183L217.823 31.53L219.225 30.104ZM207.385 28.184L207.365 30.1839L207.375 30.184H207.385V28.184ZM202.361 28.984L203.153 30.8206L203.16 30.8174L203.168 30.8142L202.361 28.984ZM199.673 31.672L197.843 30.8655L197.84 30.8729L197.836 30.8803L199.673 31.672ZM207.385 53C203.726 53 201.503 52.1626 200.247 50.9213L197.435 53.7667C199.763 56.0667 203.236 57 207.385 57V53ZM200.264 50.9383C199.019 49.6786 198.185 47.4732 198.185 43.864H194.185C194.185 47.9774 195.122 51.4254 197.418 53.7497L200.264 50.9383ZM198.185 43.864V36.696H194.185V43.864H198.185ZM198.185 36.696C198.185 32.9838 199.027 30.7626 200.255 29.5342L197.427 26.7058C195.114 29.0188 194.185 32.5148 194.185 36.696H198.185ZM200.255 29.5342C201.504 28.2856 203.712 27.456 207.363 27.4959L207.407 23.4961C203.25 23.4507 199.762 24.3704 197.427 26.7058L200.255 29.5342ZM207.385 27.496H212.633V23.496H207.385V27.496ZM212.633 27.496C216.29 27.496 218.49 28.3425 219.722 29.5897L222.568 26.7783C220.259 24.4415 216.784 23.496 212.633 23.496V27.496ZM219.739 29.6067C220.986 30.839 221.833 33.0395 221.833 36.696H225.833C225.833 32.5445 224.888 29.0703 222.551 26.7613L219.739 29.6067ZM221.833 36.696V43.8H225.833V36.696H221.833ZM221.833 43.8C221.833 47.4538 220.988 49.673 219.731 50.9298L222.559 53.7582C224.886 51.431 225.833 47.9542 225.833 43.8H221.833ZM219.731 50.9298C218.499 52.1615 216.295 53 212.633 53V57C216.779 57 220.25 56.0678 222.559 53.7582L219.731 50.9298ZM212.633 53H207.385V57H212.633V53ZM196.873 43.864C196.873 47.1294 197.519 49.9796 199.335 51.8263L202.187 49.0217C201.486 48.3084 200.873 46.7853 200.873 43.864H196.873ZM199.359 51.85C201.209 53.6697 204.086 54.312 207.385 54.312V50.312C204.412 50.312 202.873 49.6956 202.163 48.998L199.359 51.85ZM207.385 54.312H212.633V50.312H207.385V54.312ZM212.633 54.312C215.927 54.312 218.806 53.6718 220.639 51.8382L217.811 49.0098C217.127 49.6936 215.611 50.312 212.633 50.312V54.312ZM220.639 51.8382C222.489 49.988 223.145 47.1054 223.145 43.8H219.145C219.145 46.7666 218.521 48.3 217.811 49.0098L220.639 51.8382ZM223.145 43.8V36.696H219.145V43.8H223.145ZM223.145 36.696C223.145 33.3955 222.491 30.5111 220.627 28.678L217.823 31.53C218.519 32.2143 219.145 33.7245 219.145 36.696H223.145ZM220.651 28.7017C218.818 26.8375 215.933 26.184 212.633 26.184V30.184C215.605 30.184 217.115 30.8105 217.799 31.5063L220.651 28.7017ZM212.633 26.184H207.385V30.184H212.633V26.184ZM207.405 26.1841C205.164 26.1612 203.173 26.4405 201.554 27.1538L203.168 30.8142C204.066 30.4182 205.425 30.1641 207.365 30.1839L207.405 26.1841ZM201.569 27.1474C199.858 27.8852 198.596 29.1553 197.843 30.8655L201.503 32.4785C201.859 31.6714 202.39 31.1495 203.153 30.8206L201.569 27.1474ZM197.836 30.8803C197.152 32.469 196.873 34.4495 196.873 36.696H200.873C200.873 34.7185 201.128 33.3496 201.51 32.4637L197.836 30.8803ZM196.873 36.696V43.864H200.873V36.696H196.873ZM240.588 66.232L241.866 64.6934L241.858 64.687L241.85 64.6806L240.588 66.232ZM238.412 61.336L236.414 61.4311L236.416 61.469L236.419 61.5068L238.412 61.336ZM238.732 60.28L237.318 58.8658L237.287 58.8965L237.258 58.9286L238.732 60.28ZM240.716 60.248L242.13 58.8338L242.097 58.8001L242.061 58.7681L240.716 60.248ZM241.1 61.272L239.102 61.3671L239.104 61.4062L239.108 61.4453L241.1 61.272ZM242.444 64.28L243.594 62.6436L243.585 62.6373L242.444 64.28ZM262.188 63.992L260.794 62.5574L260.774 62.5776L260.753 62.5984L262.188 63.992ZM263.308 50.2H265.308V42.7774L261.579 49.1952L263.308 50.2ZM259.18 53.784L258.372 51.9546L258.364 51.9582L259.18 53.784ZM241.004 52.344L239.581 53.7497L239.59 53.7582L239.598 53.7667L241.004 52.344ZM241.004 28.152L242.41 29.5748L242.41 29.5747L241.004 28.152ZM263.308 29.176L261.562 30.1523L265.308 36.8488V29.176H263.308ZM264.108 65.88L262.694 64.4658L262.688 64.4717L262.682 64.4777L264.108 65.88ZM260.268 50.584L261.256 52.3227L261.263 52.3188L261.27 52.3149L260.268 50.584ZM261.228 29.816L259.982 31.3801L259.995 31.3908L260.009 31.4012L261.228 29.816ZM242.924 30.072L244.326 31.4982L244.326 31.498L242.924 30.072ZM242.924 50.424L241.498 51.8263L241.51 51.8383L241.522 51.85L242.924 50.424ZM246.22 65.8C243.956 65.8 242.619 65.3189 241.866 64.6934L239.31 67.7706C241.074 69.2357 243.492 69.8 246.22 69.8V65.8ZM241.85 64.6806C241.153 64.1137 240.569 63.0783 240.405 61.1652L236.419 61.5068C236.639 64.0737 237.505 66.3023 239.326 67.7834L241.85 64.6806ZM240.41 61.2409C240.408 61.1967 240.416 61.2314 240.39 61.316C240.362 61.4095 240.303 61.5255 240.206 61.6314L237.258 58.9286C236.566 59.6832 236.375 60.6129 236.414 61.4311L240.41 61.2409ZM240.146 61.6942C240.053 61.7879 239.942 61.8552 239.837 61.8938C239.739 61.9296 239.681 61.928 239.692 61.928V57.928C238.881 57.928 238.008 58.1761 237.318 58.8658L240.146 61.6942ZM239.692 61.928C239.762 61.928 239.751 61.937 239.687 61.917C239.616 61.8946 239.495 61.8406 239.371 61.7279L242.061 58.7681C241.331 58.1041 240.433 57.928 239.692 57.928V61.928ZM239.302 61.6622C239.198 61.5585 239.142 61.4523 239.115 61.3822C239.092 61.3194 239.099 61.3048 239.102 61.3671L243.098 61.1769C243.061 60.4089 242.825 59.5282 242.13 58.8338L239.302 61.6622ZM239.108 61.4453C239.257 63.167 239.822 64.894 241.303 65.9227L243.585 62.6373C243.53 62.5993 243.199 62.321 243.092 61.0987L239.108 61.4453ZM241.294 65.9164C242.596 66.8309 244.365 67.112 246.22 67.112V63.112C244.619 63.112 243.871 62.8384 243.594 62.6436L241.294 65.9164ZM246.22 67.112H258.124V63.112H246.22V67.112ZM258.124 67.112C260.212 67.112 262.298 66.7491 263.623 65.3856L260.753 62.5984C260.627 62.7282 260.004 63.112 258.124 63.112V67.112ZM263.582 65.4266C264.945 64.102 265.308 62.0155 265.308 59.928H261.308C261.308 61.8085 260.924 62.4314 260.794 62.5574L263.582 65.4266ZM265.308 59.928V50.2H261.308V59.928H265.308ZM261.579 49.1952C260.895 50.3725 259.86 51.297 258.372 51.9546L259.988 55.6134C262.169 54.6497 263.887 53.1848 265.037 51.2048L261.579 49.1952ZM258.364 51.9582C256.903 52.6111 254.814 53 251.98 53V57C255.119 57 257.83 56.5782 259.996 55.6098L258.364 51.9582ZM251.98 53H249.548V57H251.98V53ZM249.548 53C245.889 53 243.666 52.1626 242.41 50.9213L239.598 53.7667C241.926 56.0667 245.399 57 249.548 57V53ZM242.427 50.9383C241.182 49.6786 240.348 47.4732 240.348 43.864H236.348C236.348 47.9774 237.285 51.4254 239.581 53.7497L242.427 50.9383ZM240.348 43.864V36.696H236.348V43.864H240.348ZM240.348 36.696C240.348 32.981 241.191 30.7786 242.41 29.5748L239.598 26.7292C237.276 29.024 236.348 32.5177 236.348 36.696H240.348ZM242.41 29.5747C243.666 28.3334 245.889 27.496 249.548 27.496V23.496C245.399 23.496 241.926 24.4293 239.598 26.7293L242.41 29.5747ZM249.548 27.496H254.796V23.496H249.548V27.496ZM254.796 27.496C256.937 27.496 258.437 27.7812 259.424 28.2196L261.048 24.5644C259.347 23.8081 257.22 23.496 254.796 23.496V27.496ZM259.424 28.2196C260.381 28.6452 261.074 29.2788 261.562 30.1523L265.054 28.1997C264.134 26.5559 262.779 25.3335 261.048 24.5644L259.424 28.2196ZM265.308 29.176V26.84H261.308V29.176H265.308ZM265.308 26.84C265.308 26.7003 265.342 26.9629 265.058 27.2462C264.775 27.5296 264.512 27.496 264.652 27.496V23.496C263.896 23.496 262.961 23.6864 262.23 24.4178C261.498 25.1491 261.308 26.0837 261.308 26.84H265.308ZM264.652 27.496C264.792 27.496 264.529 27.5296 264.246 27.2462C263.962 26.9629 263.996 26.7003 263.996 26.84H267.996C267.996 26.0837 267.806 25.1491 267.074 24.4178C266.343 23.6864 265.408 23.496 264.652 23.496V27.496ZM263.996 26.84V59.928H267.996V26.84H263.996ZM263.996 59.928C263.996 62.379 263.421 63.7385 262.694 64.4658L265.522 67.2942C267.312 65.5041 267.996 62.8957 267.996 59.928H263.996ZM262.682 64.4777C261.956 65.2158 260.594 65.8 258.124 65.8V69.8C261.116 69.8 263.742 69.1042 265.534 67.2823L262.682 64.4777ZM258.124 65.8H246.22V69.8H258.124V65.8ZM249.548 54.312H251.98V50.312H249.548V54.312ZM251.98 54.312C255.665 54.312 258.814 53.7108 261.256 52.3227L259.28 48.8453C257.668 49.7612 255.293 50.312 251.98 50.312V54.312ZM261.27 52.3149C263.909 50.7871 265.308 48.3813 265.308 45.336H261.308C261.308 46.9414 260.68 48.0342 259.266 48.8531L261.27 52.3149ZM265.308 45.336V35.352H261.308V45.336H265.308ZM265.308 35.352C265.308 32.4274 264.534 29.8359 262.447 28.2308L260.009 31.4012C260.695 31.9294 261.308 33.0286 261.308 35.352H265.308ZM262.474 28.2519C260.585 26.7465 257.892 26.184 254.796 26.184V30.184C257.545 30.184 259.14 30.7095 259.982 31.3801L262.474 28.2519ZM254.796 26.184H249.548V30.184H254.796V26.184ZM249.548 26.184C246.249 26.184 243.372 26.8263 241.522 28.646L244.326 31.498C245.036 30.8004 246.575 30.184 249.548 30.184V26.184ZM241.522 28.6458C239.67 30.466 239.036 33.3742 239.036 36.696H243.036C243.036 33.6605 243.66 32.1527 244.326 31.4982L241.522 28.6458ZM239.036 36.696V43.864H243.036V36.696H239.036ZM239.036 43.864C239.036 47.1294 239.682 49.9796 241.498 51.8263L244.35 49.0217C243.649 48.3084 243.036 46.7853 243.036 43.864H239.036ZM241.522 51.85C243.372 53.6697 246.249 54.312 249.548 54.312V50.312C246.575 50.312 245.036 49.6956 244.326 48.998L241.522 51.85ZM283.901 32.568H281.901V41.5722L285.713 33.4147L283.901 32.568ZM288.701 27.32L287.719 25.5782L287.711 25.5824L288.701 27.32ZM283.901 38.936L281.907 38.79L281.901 38.8629V38.936H283.901ZM282.557 53C282.418 53 282.68 52.9664 282.964 53.2498C283.247 53.5331 283.213 53.7957 283.213 53.656H279.213C279.213 54.4123 279.404 55.3469 280.135 56.0782C280.867 56.8096 281.801 57 282.557 57V53ZM283.213 53.656V26.84H279.213V53.656H283.213ZM283.213 26.84C283.213 26.7003 283.247 26.9629 282.964 27.2462C282.68 27.5296 282.418 27.496 282.557 27.496V23.496C281.801 23.496 280.867 23.6864 280.135 24.4178C279.404 25.1491 279.213 26.0837 279.213 26.84H283.213ZM282.557 27.496C282.697 27.496 282.435 27.5296 282.151 27.2462C281.868 26.9629 281.901 26.7003 281.901 26.84H285.901C285.901 26.0837 285.711 25.1491 284.98 24.4178C284.248 23.6864 283.314 23.496 282.557 23.496V27.496ZM281.901 26.84V32.568H285.901V26.84H281.901ZM285.713 33.4147C286.61 31.4964 287.928 30.0631 289.692 29.0576L287.711 25.5824C285.208 27.0089 283.326 29.0743 282.09 31.7213L285.713 33.4147ZM289.684 29.0618C291.481 28.048 293.708 27.496 296.445 27.496V23.496C293.167 23.496 290.232 24.16 287.719 25.5782L289.684 29.0618ZM296.445 27.496C296.585 27.496 296.323 27.5296 296.039 27.2462C295.756 26.9629 295.789 26.7003 295.789 26.84H299.789C299.789 26.0837 299.599 25.1491 298.868 24.4178C298.136 23.6864 297.202 23.496 296.445 23.496V27.496ZM295.789 26.84C295.789 26.9797 295.756 26.7171 296.039 26.4338C296.323 26.1504 296.585 26.184 296.445 26.184V30.184C297.202 30.184 298.136 29.9936 298.868 29.2622C299.599 28.5309 299.789 27.5963 299.789 26.84H295.789ZM296.445 26.184C292.302 26.184 288.791 27.1752 286.181 29.4196L288.79 32.4524C290.446 31.0275 292.909 30.184 296.445 30.184V26.184ZM286.181 29.4196C283.551 31.6822 282.192 34.8994 281.907 38.79L285.896 39.082C286.123 35.9753 287.154 33.8591 288.79 32.4524L286.181 29.4196ZM281.901 38.936V53.656H285.901V38.936H281.901ZM281.901 53.656C281.901 53.7957 281.868 53.5331 282.151 53.2498C282.435 52.9664 282.697 53 282.557 53V57C283.314 57 284.248 56.8096 284.98 56.0782C285.711 55.3469 285.901 54.4123 285.901 53.656H281.901ZM308.195 52.792L306.77 54.196L306.78 54.2062L306.791 54.2164L308.195 52.792ZM308.227 38.616L306.812 37.2018L306.812 37.2018L308.227 38.616ZM330.179 36.376V38.376H332.193L332.178 36.3618L330.179 36.376ZM328.227 30.04L326.836 31.478L326.843 31.484L326.849 31.49L328.227 30.04ZM311.619 29.208L312.513 30.9969L312.524 30.9911L312.536 30.9852L311.619 29.208ZM309.251 32.6L307.276 32.284L307.275 32.2881L309.251 32.6ZM308.835 33.56L307.355 32.2146L307.348 32.2221L308.835 33.56ZM306.883 33.528L305.408 34.8794L305.438 34.9115L305.468 34.9422L306.883 33.528ZM306.563 32.472L304.567 32.332L304.566 32.3544L304.565 32.3769L306.563 32.472ZM309.635 27.16L308.626 25.4331L308.617 25.4381L309.635 27.16ZM330.179 28.184L328.756 29.5897L328.764 29.5982L328.773 29.6067L330.179 28.184ZM330.179 49.88H332.179V42.3895L328.445 48.8831L330.179 49.88ZM324.643 51.544L324.047 49.6346L324.04 49.6368L324.643 51.544ZM328.515 49.112L327.002 47.8032L326.995 47.8116L326.988 47.8201L328.515 49.112ZM330.179 44.76L332.172 44.9261L332.179 44.8432V44.76H330.179ZM330.179 39.064H332.179V37.064H330.179V39.064ZM310.115 40.536L308.7 39.1218L308.7 39.1218L310.115 40.536ZM310.115 50.872L308.685 52.2706L308.7 52.2863L308.716 52.3017L310.115 50.872ZM315.267 53C312.295 53 310.559 52.3145 309.599 51.3676L306.791 54.2164C308.817 56.2135 311.795 57 315.267 57V53ZM309.619 51.388C308.672 50.4274 307.987 48.6911 307.987 45.72H303.987C303.987 49.1916 304.773 52.1699 306.77 54.196L309.619 51.388ZM307.987 45.72C307.987 42.7297 308.682 40.9894 309.641 40.0302L306.812 37.2018C304.785 39.2293 303.987 42.2249 303.987 45.72H307.987ZM309.641 40.0302C310.604 39.0669 312.328 38.376 315.267 38.376V34.376C311.805 34.376 308.836 35.1785 306.812 37.2018L309.641 40.0302ZM315.267 38.376H330.179V34.376H315.267V38.376ZM332.178 36.3618C332.156 33.1706 331.479 30.3712 329.604 28.59L326.849 31.49C327.534 32.1408 328.159 33.5654 328.179 36.3902L332.178 36.3618ZM329.617 28.602C327.77 26.8168 324.925 26.184 321.667 26.184V30.184C324.594 30.184 326.123 30.7886 326.836 31.478L329.617 28.602ZM321.667 26.184H317.955V30.184H321.667V26.184ZM317.955 26.184C314.982 26.184 312.467 26.5194 310.701 27.4308L312.536 30.9852C313.415 30.5313 315.124 30.184 317.955 30.184V26.184ZM310.724 27.4191C308.764 28.3994 307.622 30.1186 307.276 32.284L311.225 32.916C311.391 31.8814 311.828 31.3393 312.513 30.9969L310.724 27.4191ZM307.275 32.2881C307.265 32.3528 307.255 32.3677 307.263 32.3488C307.273 32.3271 307.299 32.2753 307.355 32.2147L310.314 34.9053C310.857 34.3081 311.119 33.5907 311.226 32.9119L307.275 32.2881ZM307.348 32.2221C307.509 32.0432 307.686 31.9508 307.807 31.9093C307.914 31.8721 307.962 31.88 307.907 31.88V35.88C308.622 35.88 309.597 35.7027 310.321 34.8979L307.348 32.2221ZM307.907 31.88C307.853 31.88 307.883 31.8724 307.965 31.9006C308.056 31.932 308.181 31.9977 308.297 32.1138L305.468 34.9422C306.194 35.6683 307.119 35.88 307.907 35.88V31.88ZM308.357 32.1766C308.454 32.2825 308.512 32.3985 308.541 32.492C308.566 32.5766 308.558 32.6113 308.56 32.5671L304.565 32.3769C304.526 33.1951 304.716 34.1248 305.408 34.8794L308.357 32.1766ZM308.558 32.612C308.689 30.7456 309.414 29.6131 310.652 28.8819L308.617 25.4381C306.1 26.9256 304.778 29.3344 304.567 32.332L308.558 32.612ZM310.643 28.8869C312.096 28.0381 314.453 27.496 317.955 27.496V23.496C314.16 23.496 310.97 24.0632 308.626 25.4331L310.643 28.8869ZM317.955 27.496H321.667V23.496H317.955V27.496ZM321.667 27.496C325.323 27.496 327.524 28.3425 328.756 29.5897L331.601 26.7783C329.292 24.4415 325.818 23.496 321.667 23.496V27.496ZM328.773 29.6067C330.02 30.839 330.867 33.0395 330.867 36.696H334.867C334.867 32.5445 333.921 29.0703 331.584 26.7613L328.773 29.6067ZM330.867 36.696V53.656H334.867V36.696H330.867ZM330.867 53.656C330.867 53.7957 330.833 53.5331 331.116 53.2498C331.4 52.9664 331.662 53 331.523 53V57C332.279 57 333.213 56.8096 333.945 56.0782C334.676 55.3469 334.867 54.4123 334.867 53.656H330.867ZM331.523 53C331.383 53 331.645 52.9664 331.929 53.2498C332.212 53.5331 332.179 53.7957 332.179 53.656H328.179C328.179 54.4123 328.369 55.3469 329.1 56.0782C329.832 56.8096 330.766 57 331.523 57V53ZM332.179 53.656V49.88H328.179V53.656H332.179ZM328.445 48.8831C326.979 51.4323 324.058 53 318.851 53V57C324.822 57 329.453 55.1543 331.912 50.8769L328.445 48.8831ZM318.851 53H315.267V57H318.851V53ZM315.267 54.312H318.851V50.312H315.267V54.312ZM318.851 54.312C321.234 54.312 323.378 54.0407 325.245 53.4512L324.04 49.6368C322.664 50.0713 320.947 50.312 318.851 50.312V54.312ZM325.238 53.4534C327.176 52.8494 328.815 51.8532 330.041 50.4039L326.988 47.8201C326.337 48.5895 325.395 49.2146 324.047 49.6346L325.238 53.4534ZM330.027 50.4208C331.322 48.9245 331.995 47.0432 332.172 44.9261L328.185 44.5939C328.063 46.0608 327.627 47.0808 327.002 47.8032L330.027 50.4208ZM332.179 44.76V39.064H328.179V44.76H332.179ZM330.179 37.064H315.267V41.064H330.179V37.064ZM315.267 37.064C312.658 37.064 310.257 37.5646 308.7 39.1218L311.529 41.9502C311.934 41.5447 312.969 41.064 315.267 41.064V37.064ZM308.7 39.1218C307.154 40.6683 306.675 43.0957 306.675 45.72H310.675C310.675 43.3523 311.155 42.3237 311.529 41.9502L308.7 39.1218ZM306.675 45.72C306.675 48.3203 307.161 50.7132 308.685 52.2706L311.544 49.4734C311.148 49.0682 310.675 48.0264 310.675 45.72H306.675ZM308.716 52.3017C310.273 53.8252 312.666 54.312 315.267 54.312V50.312C312.96 50.312 311.918 49.8388 311.513 49.4423L308.716 52.3017ZM388.39 27.992L386.838 29.2532L386.846 29.2627L388.39 27.992ZM386.31 30.04L384.71 31.24L384.716 31.2485L384.723 31.2569L386.31 30.04ZM372.518 30.04L371.092 28.6377L371.092 28.6377L372.518 30.04ZM366.47 30.04L364.87 31.24L364.876 31.2485L364.883 31.2569L366.47 30.04ZM350.79 29.656H348.79V37.1188L352.522 30.6561L350.79 29.656ZM353.99 26.424L354.897 28.2068L354.908 28.2009L353.99 26.424ZM366.694 26.616L365.657 28.326L365.663 28.3297L365.669 28.3334L366.694 26.616ZM369.862 30.52L368.028 31.3182L369.791 35.3679L371.672 31.3716L369.862 30.52ZM373.254 26.616L372.276 24.8714L372.276 24.8714L373.254 26.616ZM381.446 27.432C384.381 27.432 385.984 28.2024 386.838 29.2532L389.942 26.7308C388.023 24.3683 384.997 23.432 381.446 23.432V27.432ZM386.846 29.2627C387.782 30.4005 388.47 32.6095 388.47 36.376H392.47C392.47 32.3345 391.772 28.9541 389.934 26.7213L386.846 29.2627ZM388.47 36.376V53.72H392.47V36.376H388.47ZM388.47 53.72C388.47 53.8597 388.436 53.5971 388.72 53.3138C389.003 53.0304 389.266 53.064 389.126 53.064V57.064C389.882 57.064 390.817 56.8736 391.548 56.1422C392.28 55.4109 392.47 54.4763 392.47 53.72H388.47ZM389.126 53.064C388.986 53.064 389.249 53.0304 389.532 53.3138C389.816 53.5971 389.782 53.8597 389.782 53.72H385.782C385.782 54.4763 385.972 55.4109 386.704 56.1422C387.435 56.8736 388.37 57.064 389.126 57.064V53.064ZM389.782 53.72V36.376H385.782V53.72H389.782ZM389.782 36.376C389.782 33.3101 389.291 30.6406 387.897 28.8231L384.723 31.2569C385.292 31.9994 385.782 33.5539 385.782 36.376H389.782ZM387.91 28.84C386.429 26.8658 384.074 26.12 381.446 26.12V30.12C383.383 30.12 384.271 30.6542 384.71 31.24L387.91 28.84ZM381.446 26.12H378.758V30.12H381.446V26.12ZM378.758 26.12C375.638 26.12 372.902 26.7966 371.092 28.6377L373.944 31.4423C374.651 30.7234 376.076 30.12 378.758 30.12V26.12ZM371.092 28.6377C369.29 30.4701 368.63 33.2263 368.63 36.376H372.63C372.63 33.6377 373.229 32.1699 373.944 31.4423L371.092 28.6377ZM368.63 36.376V53.72H372.63V36.376H368.63ZM368.63 53.72C368.63 53.8597 368.596 53.5971 368.88 53.3138C369.163 53.0304 369.426 53.064 369.286 53.064V57.064C370.042 57.064 370.977 56.8736 371.708 56.1422C372.44 55.4109 372.63 54.4763 372.63 53.72H368.63ZM369.286 53.064C369.146 53.064 369.409 53.0304 369.692 53.3138C369.976 53.5971 369.942 53.8597 369.942 53.72H365.942C365.942 54.4763 366.132 55.4109 366.864 56.1422C367.595 56.8736 368.53 57.064 369.286 57.064V53.064ZM369.942 53.72V36.376H365.942V53.72H369.942ZM369.942 36.376C369.942 33.3101 369.451 30.6406 368.057 28.8231L364.883 31.2569C365.452 31.9994 365.942 33.5539 365.942 36.376H369.942ZM368.07 28.84C366.589 26.8658 364.234 26.12 361.606 26.12V30.12C363.543 30.12 364.431 30.6542 364.87 31.24L368.07 28.84ZM361.606 26.12H358.918V30.12H361.606V26.12ZM358.918 26.12C355.798 26.12 353.062 26.7966 351.252 28.6377L354.104 31.4423C354.811 30.7234 356.236 30.12 358.918 30.12V26.12ZM351.252 28.6377C349.45 30.4701 348.79 33.2263 348.79 36.376H352.79C352.79 33.6377 353.389 32.1699 354.104 31.4423L351.252 28.6377ZM348.79 36.376V53.72H352.79V36.376H348.79ZM348.79 53.72C348.79 53.8597 348.756 53.5971 349.04 53.3138C349.323 53.0304 349.586 53.064 349.446 53.064V57.064C350.202 57.064 351.137 56.8736 351.868 56.1422C352.6 55.4109 352.79 54.4763 352.79 53.72H348.79ZM349.446 53.064C349.306 53.064 349.569 53.0304 349.852 53.3138C350.136 53.5971 350.102 53.8597 350.102 53.72H346.102C346.102 54.4763 346.292 55.4109 347.024 56.1422C347.755 56.8736 348.69 57.064 349.446 57.064V53.064ZM350.102 53.72V26.84H346.102V53.72H350.102ZM350.102 26.84C350.102 26.7003 350.136 26.9629 349.852 27.2462C349.569 27.5296 349.306 27.496 349.446 27.496V23.496C348.69 23.496 347.755 23.6864 347.024 24.4178C346.292 25.1491 346.102 26.0837 346.102 26.84H350.102ZM349.446 27.496C349.586 27.496 349.323 27.5296 349.04 27.2462C348.756 26.9629 348.79 26.7003 348.79 26.84H352.79C352.79 26.0837 352.6 25.1491 351.868 24.4178C351.137 23.6864 350.202 23.496 349.446 23.496V27.496ZM348.79 26.84V29.656H352.79V26.84H348.79ZM352.522 30.6561C353.249 29.3966 354.057 28.6336 354.897 28.2068L353.084 24.6412C351.406 25.4944 350.08 26.8861 349.058 28.6558L352.522 30.6561ZM354.908 28.2009C355.815 27.7322 357.114 27.432 358.918 27.432V23.432C356.711 23.432 354.725 23.7932 353.072 24.6471L354.908 28.2009ZM358.918 27.432H361.606V23.432H358.918V27.432ZM361.606 27.432C363.462 27.432 364.764 27.7845 365.657 28.326L367.731 24.906C366.021 23.8688 363.931 23.432 361.606 23.432V27.432ZM365.669 28.3334C366.543 28.8547 367.358 29.7794 368.028 31.3182L371.696 29.7218C370.787 27.634 369.491 25.956 367.719 24.8986L365.669 28.3334ZM371.672 31.3716C372.391 29.8432 373.267 28.9014 374.232 28.3606L372.276 24.8714C370.425 25.9092 369.04 27.5702 368.052 29.6684L371.672 31.3716ZM374.232 28.3606C375.245 27.7925 376.709 27.432 378.758 27.432V23.432C376.284 23.432 374.079 23.8608 372.276 24.8714L374.232 28.3606ZM378.758 27.432H381.446V23.432H378.758V27.432Z" fill="#BB86FC" mask="url(#path-1-outside-1_55_65)"/>
</g>
<defs>
<filter id="filter0_dd_55_65" x="0.119995" y="0.488007" width="406.35" height="85.312" filterUnits="userSpaceOnUse" color-interpolation-filters="sRGB">
<feFlood flood-opacity="0" result="BackgroundImageFix"/>
<feColorMatrix in="SourceAlpha" type="matrix" values="0 0 0 0 0 0 0 0 0 0 0 0 0 0 0 0 0 0 127 0" result="hardAlpha"/>
<feOffset dy="1"/>
<feGaussianBlur stdDeviation="1.5"/>
<feColorMatrix type="matrix" values="0 0 0 0 0 0 0 0 0 0 0 0 0 0 0 0 0 0 0.15 0"/>
<feBlend mode="normal" in2="BackgroundImageFix" result="effect1_dropShadow_55_65"/>
<feColorMatrix in="SourceAlpha" type="matrix" values="0 0 0 0 0 0 0 0 0 0 0 0 0 0 0 0 0 0 127 0" result="hardAlpha"/>
<feMorphology radius="1" operator="dilate" in="SourceAlpha" result="effect2_dropShadow_55_65"/>
<feOffset dy="2"/>
<feGaussianBlur stdDeviation="7.5"/>
<feColorMatrix type="matrix" values="0 0 0 0 0.75625 0 0 0 0 0.5575 0 0 0 0 1 0 0 0 0.61 0"/>
<feBlend mode="normal" in2="effect1_dropShadow_55_65" result="effect2_dropShadow_55_65"/>
<feBlend mode="normal" in="SourceGraphic" in2="effect2_dropShadow_55_65" result="shape"/>
</filter>
</defs>
</svg>
