<svg width="314" height="73" viewBox="0 0 314 73" fill="none" xmlns="http://www.w3.org/2000/svg">
<g filter="url(#filter0_dd_55_65)">
<mask id="path-1-outside-1_55_65" maskUnits="userSpaceOnUse" x="15" y="13" width="284" height="43" fill="black">
<rect fill="white" x="15" y="13" width="284" height="43"/>
<path d="M26.584 45C23.176 45 20.696 44.232 19.144 42.696C17.608 41.144 16.84 38.664 16.84 35.256V24.36C16.84 20.92 17.608 18.44 19.144 16.92C20.696 15.384 23.16 14.616 26.536 14.616H32.344C35.272 14.616 37.432 15.224 38.824 16.44C40.216 17.656 40.968 19.624 41.08 22.344C41.112 22.68 41.04 22.944 40.864 23.136C40.704 23.312 40.456 23.4 40.12 23.4C39.464 23.4 39.112 23.064 39.064 22.392C38.968 20.232 38.408 18.736 37.384 17.904C36.376 17.056 34.696 16.632 32.344 16.632H26.536C24.648 16.632 23.144 16.88 22.024 17.376C20.904 17.872 20.096 18.688 19.6 19.824C19.104 20.944 18.856 22.456 18.856 24.36V35.256C18.856 37.144 19.104 38.656 19.6 39.792C20.112 40.912 20.928 41.728 22.048 42.24C23.184 42.736 24.696 42.984 26.584 42.984H32.344C34.696 42.984 36.376 42.568 37.384 41.736C38.408 40.888 38.968 39.384 39.064 37.224C39.112 36.552 39.464 36.216 40.12 36.216C40.456 36.216 40.704 36.312 40.864 36.504C41.04 36.68 41.112 36.936 41.08 37.272C40.968 39.976 40.216 41.944 38.824 43.176C37.432 44.392 35.272 45 32.344 45H26.584ZM52.9971 45C52.3251 45 51.9891 44.664 51.9891 43.992V23.88C51.9891 23.208 52.3251 22.872 52.9971 22.872C53.6691 22.872 54.0051 23.208 54.0051 23.88V28.176C54.8051 26.464 56.0051 25.152 57.6051 24.24C59.2211 23.328 61.1571 22.872 63.4131 22.872C64.0851 22.872 64.4211 23.208 64.4211 23.88C64.4211 24.552 64.0851 24.888 63.4131 24.888C60.5331 24.888 58.2931 25.576 56.6931 26.952C55.0931 28.328 54.1971 30.328 54.0051 32.952V43.992C54.0051 44.664 53.6691 45 52.9971 45ZM77.974 54.6C75.942 54.6 74.446 54.12 73.486 53.16C72.542 52.216 72.07 50.712 72.07 48.648C72.07 47.976 72.406 47.64 73.078 47.64C73.75 47.64 74.086 47.976 74.086 48.648C74.086 50.152 74.366 51.184 74.926 51.744C75.502 52.304 76.518 52.584 77.974 52.584H85.942C87.414 52.584 88.43 52.304 88.99 51.744C89.55 51.184 89.83 50.152 89.83 48.648V41.88C88.95 43 87.798 43.808 86.374 44.304C84.966 44.8 83.286 45.048 81.334 45.048H80.326C77.446 45.048 75.35 44.392 74.038 43.08C72.726 41.768 72.07 39.688 72.07 36.84V23.832C72.07 23.16 72.406 22.824 73.078 22.824C73.75 22.824 74.086 23.16 74.086 23.832V36.84C74.086 39.144 74.542 40.752 75.454 41.664C76.382 42.576 78.006 43.032 80.326 43.032H81.334C84.198 43.032 86.326 42.52 87.718 41.496C89.126 40.456 89.83 38.904 89.83 36.84V23.832C89.83 23.16 90.166 22.824 90.838 22.824C91.51 22.824 91.846 23.16 91.846 23.832V48.648C91.846 50.712 91.374 52.216 90.43 53.16C89.486 54.12 87.99 54.6 85.942 54.6H77.974ZM104.71 54.6C104.038 54.6 103.702 54.264 103.702 53.592V23.88C103.702 23.208 104.038 22.872 104.71 22.872C105.382 22.872 105.718 23.208 105.718 23.88V26.52C106.39 25.32 107.406 24.416 108.766 23.808C110.142 23.184 111.958 22.872 114.214 22.872H116.038C118.966 22.872 121.094 23.544 122.422 24.888C123.766 26.216 124.438 28.344 124.438 31.272V36.6C124.438 39.528 123.766 41.664 122.422 43.008C121.094 44.336 118.966 45 116.038 45H105.718V53.592C105.718 54.264 105.382 54.6 104.71 54.6ZM105.718 42.984H116.038C118.39 42.984 120.038 42.512 120.982 41.568C121.942 40.608 122.422 38.952 122.422 36.6V31.272C122.422 28.92 121.942 27.272 120.982 26.328C120.038 25.368 118.39 24.888 116.038 24.888H114.214C111.478 24.888 109.438 25.344 108.094 26.256C106.75 27.152 105.958 28.536 105.718 30.408V42.984ZM143.784 45C140.904 45 138.808 44.344 137.496 43.032C136.184 41.72 135.528 39.64 135.528 36.792V24.888H132.504C131.832 24.888 131.496 24.552 131.496 23.88C131.496 23.208 131.832 22.872 132.504 22.872H135.528V17.16C135.528 16.488 135.864 16.152 136.536 16.152C137.208 16.152 137.544 16.488 137.544 17.16V22.872H143.736C144.408 22.872 144.744 23.208 144.744 23.88C144.744 24.552 144.408 24.888 143.736 24.888H137.544V36.792C137.544 39.096 138 40.704 138.912 41.616C139.84 42.528 141.464 42.984 143.784 42.984C144.2 42.984 144.48 43.072 144.624 43.248C144.768 43.424 144.84 43.672 144.84 43.992C144.84 44.664 144.488 45 143.784 45ZM160.289 45C157.361 45 155.225 44.336 153.881 43.008C152.553 41.664 151.889 39.544 151.889 36.648V31.272C151.889 28.312 152.553 26.168 153.881 24.84C155.225 23.496 157.361 22.84 160.289 22.872H164.225C167.153 22.872 169.281 23.544 170.609 24.888C171.953 26.216 172.625 28.344 172.625 31.272V36.6C172.625 39.528 171.953 41.664 170.609 43.008C169.281 44.336 167.153 45 164.225 45H160.289ZM153.905 36.648C153.905 38.968 154.377 40.608 155.321 41.568C156.281 42.512 157.937 42.984 160.289 42.984H164.225C166.577 42.984 168.225 42.512 169.169 41.568C170.129 40.608 170.609 38.952 170.609 36.6V31.272C170.609 28.92 170.129 27.272 169.169 26.328C168.225 25.368 166.577 24.888 164.225 24.888H160.289C158.721 24.872 157.465 25.072 156.521 25.488C155.593 25.888 154.921 26.56 154.505 27.504C154.105 28.432 153.905 29.688 153.905 31.272V36.648ZM189.415 54.6C187.543 54.6 186.135 54.208 185.191 53.424C184.247 52.656 183.703 51.432 183.559 49.752C183.543 49.416 183.623 49.152 183.799 48.96C183.975 48.784 184.215 48.696 184.519 48.696C184.855 48.696 185.111 48.776 185.287 48.936C185.463 49.112 185.559 49.368 185.575 49.704C185.671 50.808 186.007 51.56 186.583 51.96C187.175 52.376 188.119 52.584 189.415 52.584H198.343C199.831 52.584 200.847 52.304 201.391 51.744C201.951 51.2 202.231 50.184 202.231 48.696V41.4C201.543 42.584 200.511 43.48 199.135 44.088C197.775 44.696 195.975 45 193.735 45H191.911C188.983 45 186.847 44.336 185.503 43.008C184.175 41.664 183.511 39.544 183.511 36.648V31.272C183.511 28.312 184.175 26.176 185.503 24.864C186.847 23.536 188.983 22.872 191.911 22.872H195.847C197.559 22.872 198.919 23.096 199.927 23.544C200.935 23.992 201.703 24.688 202.231 25.632V23.88C202.231 23.208 202.567 22.872 203.239 22.872C203.911 22.872 204.247 23.208 204.247 23.88V48.696C204.247 50.728 203.775 52.216 202.831 53.16C201.887 54.12 200.391 54.6 198.343 54.6H189.415ZM191.911 42.984H193.735C196.359 42.984 198.431 42.552 199.951 41.688C201.471 40.808 202.231 39.496 202.231 37.752V30.264C202.231 28.296 201.711 26.912 200.671 26.112C199.647 25.296 198.039 24.888 195.847 24.888H191.911C189.559 24.888 187.903 25.36 186.943 26.304C185.999 27.232 185.527 28.888 185.527 31.272V36.648C185.527 38.968 185.999 40.608 186.943 41.568C187.903 42.512 189.559 42.984 191.911 42.984ZM216.668 45C215.996 45 215.66 44.664 215.66 43.992V23.88C215.66 23.208 215.996 22.872 216.668 22.872C217.34 22.872 217.676 23.208 217.676 23.88V28.176C218.476 26.464 219.676 25.152 221.276 24.24C222.892 23.328 224.828 22.872 227.084 22.872C227.756 22.872 228.092 23.208 228.092 23.88C228.092 24.552 227.756 24.888 227.084 24.888C224.204 24.888 221.964 25.576 220.364 26.952C218.764 28.328 217.868 30.328 217.676 32.952V43.992C217.676 44.664 217.34 45 216.668 45ZM241.2 45C238.784 45 237.016 44.448 235.896 43.344C234.792 42.224 234.24 40.456 234.24 38.04C234.24 35.608 234.8 33.832 235.92 32.712C237.04 31.592 238.8 31.032 241.2 31.032H252.384C252.368 28.776 251.88 27.192 250.92 26.28C249.96 25.352 248.32 24.888 246 24.888H243.216C241.04 24.888 239.456 25.144 238.464 25.656C237.472 26.152 236.88 27 236.688 28.2C236.64 28.504 236.536 28.744 236.376 28.92C236.232 29.08 236 29.16 235.68 29.16C235.344 29.16 235.088 29.072 234.912 28.896C234.736 28.704 234.656 28.44 234.672 28.104C234.8 26.28 235.568 24.952 236.976 24.12C238.4 23.288 240.48 22.872 243.216 22.872H246C248.928 22.872 251.056 23.544 252.384 24.888C253.728 26.216 254.4 28.344 254.4 31.272V43.992C254.4 44.664 254.064 45 253.392 45C252.72 45 252.384 44.664 252.384 43.992V41.16C250.912 43.72 248.08 45 243.888 45H241.2ZM241.2 42.984H243.888C245.568 42.984 247.016 42.792 248.232 42.408C249.464 42.024 250.432 41.416 251.136 40.584C251.856 39.752 252.272 38.664 252.384 37.32V33.048H241.2C239.36 33.048 238.072 33.416 237.336 34.152C236.616 34.872 236.256 36.168 236.256 38.04C236.256 39.88 236.616 41.168 237.336 41.904C238.072 42.624 239.36 42.984 241.2 42.984ZM290.835 22.824C293.267 22.824 295.003 23.464 296.043 24.744C297.083 26.008 297.603 28.104 297.603 31.032V44.04C297.603 44.712 297.267 45.048 296.595 45.048C295.923 45.048 295.587 44.712 295.587 44.04V31.032C295.587 28.824 295.219 27.24 294.483 26.28C293.763 25.32 292.547 24.84 290.835 24.84H288.819C286.643 24.84 285.083 25.32 284.139 26.28C283.195 27.24 282.723 28.824 282.723 31.032V44.04C282.723 44.712 282.387 45.048 281.715 45.048C281.043 45.048 280.707 44.712 280.707 44.04V31.032C280.707 28.824 280.339 27.24 279.603 26.28C278.883 25.32 277.667 24.84 275.955 24.84H273.939C271.763 24.84 270.203 25.32 269.259 26.28C268.315 27.24 267.843 28.824 267.843 31.032V44.04C267.843 44.712 267.507 45.048 266.835 45.048C266.163 45.048 265.827 44.712 265.827 44.04V23.88C265.827 23.208 266.163 22.872 266.835 22.872C267.507 22.872 267.843 23.208 267.843 23.88V25.992C268.499 24.856 269.299 24.048 270.243 23.568C271.203 23.072 272.435 22.824 273.939 22.824H275.955C277.523 22.824 278.795 23.12 279.771 23.712C280.763 24.304 281.555 25.28 282.147 26.64C282.787 25.28 283.635 24.304 284.691 23.712C285.747 23.12 287.123 22.824 288.819 22.824H290.835Z"/>
</mask>
<path d="M26.584 45C23.176 45 20.696 44.232 19.144 42.696C17.608 41.144 16.84 38.664 16.84 35.256V24.36C16.84 20.92 17.608 18.44 19.144 16.92C20.696 15.384 23.16 14.616 26.536 14.616H32.344C35.272 14.616 37.432 15.224 38.824 16.44C40.216 17.656 40.968 19.624 41.08 22.344C41.112 22.68 41.04 22.944 40.864 23.136C40.704 23.312 40.456 23.4 40.12 23.4C39.464 23.4 39.112 23.064 39.064 22.392C38.968 20.232 38.408 18.736 37.384 17.904C36.376 17.056 34.696 16.632 32.344 16.632H26.536C24.648 16.632 23.144 16.88 22.024 17.376C20.904 17.872 20.096 18.688 19.6 19.824C19.104 20.944 18.856 22.456 18.856 24.36V35.256C18.856 37.144 19.104 38.656 19.6 39.792C20.112 40.912 20.928 41.728 22.048 42.24C23.184 42.736 24.696 42.984 26.584 42.984H32.344C34.696 42.984 36.376 42.568 37.384 41.736C38.408 40.888 38.968 39.384 39.064 37.224C39.112 36.552 39.464 36.216 40.12 36.216C40.456 36.216 40.704 36.312 40.864 36.504C41.04 36.68 41.112 36.936 41.08 37.272C40.968 39.976 40.216 41.944 38.824 43.176C37.432 44.392 35.272 45 32.344 45H26.584ZM52.9971 45C52.3251 45 51.9891 44.664 51.9891 43.992V23.88C51.9891 23.208 52.3251 22.872 52.9971 22.872C53.6691 22.872 54.0051 23.208 54.0051 23.88V28.176C54.8051 26.464 56.0051 25.152 57.6051 24.24C59.2211 23.328 61.1571 22.872 63.4131 22.872C64.0851 22.872 64.4211 23.208 64.4211 23.88C64.4211 24.552 64.0851 24.888 63.4131 24.888C60.5331 24.888 58.2931 25.576 56.6931 26.952C55.0931 28.328 54.1971 30.328 54.0051 32.952V43.992C54.0051 44.664 53.6691 45 52.9971 45ZM77.974 54.6C75.942 54.6 74.446 54.12 73.486 53.16C72.542 52.216 72.07 50.712 72.07 48.648C72.07 47.976 72.406 47.64 73.078 47.64C73.75 47.64 74.086 47.976 74.086 48.648C74.086 50.152 74.366 51.184 74.926 51.744C75.502 52.304 76.518 52.584 77.974 52.584H85.942C87.414 52.584 88.43 52.304 88.99 51.744C89.55 51.184 89.83 50.152 89.83 48.648V41.88C88.95 43 87.798 43.808 86.374 44.304C84.966 44.8 83.286 45.048 81.334 45.048H80.326C77.446 45.048 75.35 44.392 74.038 43.08C72.726 41.768 72.07 39.688 72.07 36.84V23.832C72.07 23.16 72.406 22.824 73.078 22.824C73.75 22.824 74.086 23.16 74.086 23.832V36.84C74.086 39.144 74.542 40.752 75.454 41.664C76.382 42.576 78.006 43.032 80.326 43.032H81.334C84.198 43.032 86.326 42.52 87.718 41.496C89.126 40.456 89.83 38.904 89.83 36.84V23.832C89.83 23.16 90.166 22.824 90.838 22.824C91.51 22.824 91.846 23.16 91.846 23.832V48.648C91.846 50.712 91.374 52.216 90.43 53.16C89.486 54.12 87.99 54.6 85.942 54.6H77.974ZM104.71 54.6C104.038 54.6 103.702 54.264 103.702 53.592V23.88C103.702 23.208 104.038 22.872 104.71 22.872C105.382 22.872 105.718 23.208 105.718 23.88V26.52C106.39 25.32 107.406 24.416 108.766 23.808C110.142 23.184 111.958 22.872 114.214 22.872H116.038C118.966 22.872 121.094 23.544 122.422 24.888C123.766 26.216 124.438 28.344 124.438 31.272V36.6C124.438 39.528 123.766 41.664 122.422 43.008C121.094 44.336 118.966 45 116.038 45H105.718V53.592C105.718 54.264 105.382 54.6 104.71 54.6ZM105.718 42.984H116.038C118.39 42.984 120.038 42.512 120.982 41.568C121.942 40.608 122.422 38.952 122.422 36.6V31.272C122.422 28.92 121.942 27.272 120.982 26.328C120.038 25.368 118.39 24.888 116.038 24.888H114.214C111.478 24.888 109.438 25.344 108.094 26.256C106.75 27.152 105.958 28.536 105.718 30.408V42.984ZM143.784 45C140.904 45 138.808 44.344 137.496 43.032C136.184 41.72 135.528 39.64 135.528 36.792V24.888H132.504C131.832 24.888 131.496 24.552 131.496 23.88C131.496 23.208 131.832 22.872 132.504 22.872H135.528V17.16C135.528 16.488 135.864 16.152 136.536 16.152C137.208 16.152 137.544 16.488 137.544 17.16V22.872H143.736C144.408 22.872 144.744 23.208 144.744 23.88C144.744 24.552 144.408 24.888 143.736 24.888H137.544V36.792C137.544 39.096 138 40.704 138.912 41.616C139.84 42.528 141.464 42.984 143.784 42.984C144.2 42.984 144.48 43.072 144.624 43.248C144.768 43.424 144.84 43.672 144.84 43.992C144.84 44.664 144.488 45 143.784 45ZM160.289 45C157.361 45 155.225 44.336 153.881 43.008C152.553 41.664 151.889 39.544 151.889 36.648V31.272C151.889 28.312 152.553 26.168 153.881 24.84C155.225 23.496 157.361 22.84 160.289 22.872H164.225C167.153 22.872 169.281 23.544 170.609 24.888C171.953 26.216 172.625 28.344 172.625 31.272V36.6C172.625 39.528 171.953 41.664 170.609 43.008C169.281 44.336 167.153 45 164.225 45H160.289ZM153.905 36.648C153.905 38.968 154.377 40.608 155.321 41.568C156.281 42.512 157.937 42.984 160.289 42.984H164.225C166.577 42.984 168.225 42.512 169.169 41.568C170.129 40.608 170.609 38.952 170.609 36.6V31.272C170.609 28.92 170.129 27.272 169.169 26.328C168.225 25.368 166.577 24.888 164.225 24.888H160.289C158.721 24.872 157.465 25.072 156.521 25.488C155.593 25.888 154.921 26.56 154.505 27.504C154.105 28.432 153.905 29.688 153.905 31.272V36.648ZM189.415 54.6C187.543 54.6 186.135 54.208 185.191 53.424C184.247 52.656 183.703 51.432 183.559 49.752C183.543 49.416 183.623 49.152 183.799 48.96C183.975 48.784 184.215 48.696 184.519 48.696C184.855 48.696 185.111 48.776 185.287 48.936C185.463 49.112 185.559 49.368 185.575 49.704C185.671 50.808 186.007 51.56 186.583 51.96C187.175 52.376 188.119 52.584 189.415 52.584H198.343C199.831 52.584 200.847 52.304 201.391 51.744C201.951 51.2 202.231 50.184 202.231 48.696V41.4C201.543 42.584 200.511 43.48 199.135 44.088C197.775 44.696 195.975 45 193.735 45H191.911C188.983 45 186.847 44.336 185.503 43.008C184.175 41.664 183.511 39.544 183.511 36.648V31.272C183.511 28.312 184.175 26.176 185.503 24.864C186.847 23.536 188.983 22.872 191.911 22.872H195.847C197.559 22.872 198.919 23.096 199.927 23.544C200.935 23.992 201.703 24.688 202.231 25.632V23.88C202.231 23.208 202.567 22.872 203.239 22.872C203.911 22.872 204.247 23.208 204.247 23.88V48.696C204.247 50.728 203.775 52.216 202.831 53.16C201.887 54.12 200.391 54.6 198.343 54.6H189.415ZM191.911 42.984H193.735C196.359 42.984 198.431 42.552 199.951 41.688C201.471 40.808 202.231 39.496 202.231 37.752V30.264C202.231 28.296 201.711 26.912 200.671 26.112C199.647 25.296 198.039 24.888 195.847 24.888H191.911C189.559 24.888 187.903 25.36 186.943 26.304C185.999 27.232 185.527 28.888 185.527 31.272V36.648C185.527 38.968 185.999 40.608 186.943 41.568C187.903 42.512 189.559 42.984 191.911 42.984ZM216.668 45C215.996 45 215.66 44.664 215.66 43.992V23.88C215.66 23.208 215.996 22.872 216.668 22.872C217.34 22.872 217.676 23.208 217.676 23.88V28.176C218.476 26.464 219.676 25.152 221.276 24.24C222.892 23.328 224.828 22.872 227.084 22.872C227.756 22.872 228.092 23.208 228.092 23.88C228.092 24.552 227.756 24.888 227.084 24.888C224.204 24.888 221.964 25.576 220.364 26.952C218.764 28.328 217.868 30.328 217.676 32.952V43.992C217.676 44.664 217.34 45 216.668 45ZM241.2 45C238.784 45 237.016 44.448 235.896 43.344C234.792 42.224 234.24 40.456 234.24 38.04C234.24 35.608 234.8 33.832 235.92 32.712C237.04 31.592 238.8 31.032 241.2 31.032H252.384C252.368 28.776 251.88 27.192 250.92 26.28C249.96 25.352 248.32 24.888 246 24.888H243.216C241.04 24.888 239.456 25.144 238.464 25.656C237.472 26.152 236.88 27 236.688 28.2C236.64 28.504 236.536 28.744 236.376 28.92C236.232 29.08 236 29.16 235.68 29.16C235.344 29.16 235.088 29.072 234.912 28.896C234.736 28.704 234.656 28.44 234.672 28.104C234.8 26.28 235.568 24.952 236.976 24.12C238.4 23.288 240.48 22.872 243.216 22.872H246C248.928 22.872 251.056 23.544 252.384 24.888C253.728 26.216 254.4 28.344 254.4 31.272V43.992C254.4 44.664 254.064 45 253.392 45C252.72 45 252.384 44.664 252.384 43.992V41.16C250.912 43.72 248.08 45 243.888 45H241.2ZM241.2 42.984H243.888C245.568 42.984 247.016 42.792 248.232 42.408C249.464 42.024 250.432 41.416 251.136 40.584C251.856 39.752 252.272 38.664 252.384 37.32V33.048H241.2C239.36 33.048 238.072 33.416 237.336 34.152C236.616 34.872 236.256 36.168 236.256 38.04C236.256 39.88 236.616 41.168 237.336 41.904C238.072 42.624 239.36 42.984 241.2 42.984ZM290.835 22.824C293.267 22.824 295.003 23.464 296.043 24.744C297.083 26.008 297.603 28.104 297.603 31.032V44.04C297.603 44.712 297.267 45.048 296.595 45.048C295.923 45.048 295.587 44.712 295.587 44.04V31.032C295.587 28.824 295.219 27.24 294.483 26.28C293.763 25.32 292.547 24.84 290.835 24.84H288.819C286.643 24.84 285.083 25.32 284.139 26.28C283.195 27.24 282.723 28.824 282.723 31.032V44.04C282.723 44.712 282.387 45.048 281.715 45.048C281.043 45.048 280.707 44.712 280.707 44.04V31.032C280.707 28.824 280.339 27.24 279.603 26.28C278.883 25.32 277.667 24.84 275.955 24.84H273.939C271.763 24.84 270.203 25.32 269.259 26.28C268.315 27.24 267.843 28.824 267.843 31.032V44.04C267.843 44.712 267.507 45.048 266.835 45.048C266.163 45.048 265.827 44.712 265.827 44.04V23.88C265.827 23.208 266.163 22.872 266.835 22.872C267.507 22.872 267.843 23.208 267.843 23.88V25.992C268.499 24.856 269.299 24.048 270.243 23.568C271.203 23.072 272.435 22.824 273.939 22.824H275.955C277.523 22.824 278.795 23.12 279.771 23.712C280.763 24.304 281.555 25.28 282.147 26.64C282.787 25.28 283.635 24.304 284.691 23.712C285.747 23.12 287.123 22.824 288.819 22.824H290.835Z" fill="#E1D2F3"/>
<path d="M19.144 42.696L18.4332 43.3995L18.4406 43.4068L19.144 42.696ZM19.144 16.92L19.8474 17.6308L19.8474 17.6308L19.144 16.92ZM38.824 16.44L39.4819 15.6869L39.4819 15.6869L38.824 16.44ZM41.08 22.344L40.0808 22.3851L40.082 22.412L40.0845 22.4388L41.08 22.344ZM40.864 23.136L40.1268 22.4603L40.1241 22.4633L40.864 23.136ZM39.064 22.392L38.065 22.4364L38.0656 22.4498L38.0665 22.4632L39.064 22.392ZM37.384 17.904L36.7402 18.6692L36.7468 18.6747L36.7534 18.6801L37.384 17.904ZM19.6 19.824L20.5144 20.2289L20.5165 20.2241L19.6 19.824ZM19.6 39.792L18.6835 40.1921L18.687 40.2L18.6905 40.2078L19.6 39.792ZM22.048 42.24L21.6322 43.1495L21.64 43.153L21.6479 43.1565L22.048 42.24ZM37.384 41.736L38.0206 42.5072L38.0218 42.5062L37.384 41.736ZM39.064 37.224L38.0665 37.1528L38.0656 37.1662L38.065 37.1796L39.064 37.224ZM40.864 36.504L40.0958 37.1442L40.1248 37.179L40.1569 37.2111L40.864 36.504ZM41.08 37.272L40.0845 37.1772L40.082 37.2039L40.0809 37.2306L41.08 37.272ZM38.824 43.176L39.4819 43.9291L39.4868 43.9248L38.824 43.176ZM26.584 44C23.296 44 21.1304 43.2549 19.8474 41.9852L18.4406 43.4068C20.2616 45.2091 23.056 46 26.584 46V44ZM19.8548 41.9926C18.5851 40.7096 17.84 38.544 17.84 35.256H15.84C15.84 38.784 16.6309 41.5784 18.4332 43.3994L19.8548 41.9926ZM17.84 35.256V24.36H15.84V35.256H17.84ZM17.84 24.36C17.84 21.0344 18.5875 18.8775 19.8474 17.6308L18.4406 16.2092C16.6285 18.0024 15.84 20.8056 15.84 24.36H17.84ZM19.8474 17.6308C21.1318 16.3596 23.2832 15.616 26.536 15.616V13.616C23.0368 13.616 20.2602 14.4084 18.4406 16.2092L19.8474 17.6308ZM26.536 15.616H32.344V13.616H26.536V15.616ZM32.344 15.616C35.164 15.616 37.0367 16.2065 38.1661 17.1931L39.4819 15.6869C37.8273 14.2415 35.38 13.616 32.344 13.616V15.616ZM38.1661 17.1931C39.2706 18.1579 39.9748 19.8092 40.0808 22.3851L42.0792 22.3029C41.9612 19.4388 41.1614 17.1541 39.4819 15.6869L38.1661 17.1931ZM40.0845 22.4388C40.0916 22.5137 40.083 22.539 40.0852 22.5309C40.0865 22.5263 40.0901 22.5153 40.098 22.5007C40.106 22.486 40.1161 22.472 40.1268 22.4603L41.6012 23.8117C42.0212 23.3534 42.1259 22.7786 42.0755 22.2492L40.0845 22.4388ZM40.1241 22.4633C40.1434 22.4421 40.1643 22.4248 40.1842 22.4119C40.2038 22.3993 40.2182 22.3935 40.2236 22.3916C40.2285 22.3898 40.2239 22.392 40.2065 22.3947C40.189 22.3973 40.1608 22.4 40.12 22.4V24.4C40.6184 24.4 41.1868 24.2676 41.6039 23.8087L40.1241 22.4633ZM40.12 22.4C40.0392 22.4 40.0046 22.3894 40.0012 22.3883C40.0002 22.388 40.0066 22.39 40.0176 22.3965C40.0289 22.4032 40.0418 22.4126 40.0545 22.4246C40.0821 22.451 40.0894 22.4715 40.0865 22.4642C40.0821 22.4531 40.0679 22.4103 40.0615 22.3208L38.0665 22.4632C38.1014 22.9514 38.2586 23.4753 38.6735 23.8714C39.0926 24.2714 39.6263 24.4 40.12 24.4V22.4ZM40.063 22.3476C39.9622 20.0791 39.368 18.2276 38.0146 17.1279L36.7534 18.6801C37.448 19.2444 37.9738 20.3849 38.065 22.4364L40.063 22.3476ZM38.0278 17.1388C36.744 16.0588 34.7659 15.632 32.344 15.632V17.632C34.6261 17.632 36.008 18.0532 36.7402 18.6692L38.0278 17.1388ZM32.344 15.632H26.536V17.632H32.344V15.632ZM26.536 15.632C24.5764 15.632 22.9167 15.887 21.6191 16.4617L22.4289 18.2903C23.3713 17.873 24.7196 17.632 26.536 17.632V15.632ZM21.6191 16.4617C20.2672 17.0603 19.2784 18.0615 18.6835 19.4239L20.5165 20.2241C20.9136 19.3145 21.5408 18.6837 22.4289 18.2903L21.6191 16.4617ZM18.6857 19.4191C18.1106 20.7175 17.856 22.3858 17.856 24.36H19.856C19.856 22.5262 20.0974 21.1705 20.5143 20.2289L18.6857 19.4191ZM17.856 24.36V35.256H19.856V24.36H17.856ZM17.856 35.256C17.856 37.2167 18.1113 38.8815 18.6835 40.1921L20.5165 39.3919C20.0967 38.4305 19.856 37.0713 19.856 35.256H17.856ZM18.6905 40.2078C19.3024 41.5463 20.2937 42.5376 21.6322 43.1495L22.4638 41.3305C21.5623 40.9184 20.9216 40.2777 20.5095 39.3762L18.6905 40.2078ZM21.6479 43.1565C22.9585 43.7287 24.6233 43.984 26.584 43.984V41.984C24.7687 41.984 23.4095 41.7433 22.4481 41.3235L21.6479 43.1565ZM26.584 43.984H32.344V41.984H26.584V43.984ZM32.344 43.984C34.7631 43.984 36.7377 43.5661 38.0206 42.5072L36.7474 40.9648C36.0143 41.5699 34.6289 41.984 32.344 41.984V43.984ZM38.0218 42.5062C39.3674 41.3919 39.9621 39.5391 40.063 37.2684L38.065 37.1796C37.9739 39.2289 37.4487 40.3841 36.7462 40.9658L38.0218 42.5062ZM40.0615 37.2952C40.0679 37.2057 40.0821 37.1629 40.0865 37.1518C40.0894 37.1445 40.0821 37.165 40.0545 37.1914C40.0418 37.2034 40.0289 37.2128 40.0176 37.2195C40.0066 37.226 40.0002 37.228 40.0012 37.2277C40.0046 37.2266 40.0392 37.216 40.12 37.216V35.216C39.6263 35.216 39.0926 35.3446 38.6735 35.7446C38.2586 36.1407 38.1014 36.6646 38.0665 37.1528L40.0615 37.2952ZM40.12 37.216C40.1957 37.216 40.214 37.2272 40.197 37.2206C40.1876 37.2169 40.1709 37.2091 40.1508 37.195C40.1305 37.1806 40.1116 37.1632 40.0958 37.1442L41.6322 35.8638C41.2223 35.3719 40.6443 35.216 40.12 35.216V37.216ZM40.1569 37.2111C40.1385 37.1927 40.1221 37.1713 40.1092 37.1489C40.0965 37.1267 40.0902 37.1088 40.0874 37.0987C40.0823 37.0808 40.0918 37.1004 40.0845 37.1772L42.0755 37.3668C42.1251 36.8459 42.0264 36.2522 41.5711 35.7969L40.1569 37.2111ZM40.0809 37.2306C39.975 39.7875 39.272 41.4441 38.1612 42.4272L39.4868 43.9248C41.16 42.4439 41.9611 40.1645 42.0791 37.3134L40.0809 37.2306ZM38.1661 42.4229C37.0367 43.4095 35.164 44 32.344 44V46C35.38 46 37.8273 45.3745 39.4819 43.9291L38.1661 42.4229ZM32.344 44H26.584V46H32.344V44ZM54.0051 28.176H53.0051V32.6781L54.9111 28.5993L54.0051 28.176ZM57.6051 24.24L57.1136 23.3691L57.1099 23.3712L57.6051 24.24ZM54.0051 32.952L53.0078 32.879L53.0051 32.9155V32.952H54.0051ZM52.9971 44C52.9544 44 52.9233 43.9973 52.9023 43.9943C52.8813 43.9913 52.8722 43.9883 52.8724 43.9883C52.8728 43.9885 52.8823 43.9917 52.8974 44.0008C52.9048 44.0052 52.9132 44.0108 52.922 44.0177C52.9309 44.0246 52.9397 44.0323 52.9482 44.0409C52.9568 44.0494 52.9645 44.0583 52.9714 44.0671C52.9783 44.076 52.9839 44.0843 52.9884 44.0918C52.9974 44.1068 53.0007 44.1163 53.0008 44.1168C53.0008 44.1169 52.9978 44.1078 52.9948 44.0868C52.9918 44.0658 52.9891 44.0347 52.9891 43.992H50.9891C50.9891 44.4821 51.1123 45.0334 51.534 45.4551C51.9557 45.8768 52.507 46 52.9971 46V44ZM52.9891 43.992V23.88H50.9891V43.992H52.9891ZM52.9891 23.88C52.9891 23.8373 52.9918 23.8062 52.9948 23.7852C52.9978 23.7642 53.0008 23.7551 53.0008 23.7552C53.0007 23.7557 52.9974 23.7652 52.9884 23.7802C52.9839 23.7877 52.9783 23.796 52.9714 23.8049C52.9645 23.8137 52.9568 23.8226 52.9482 23.8311C52.9397 23.8397 52.9309 23.8474 52.922 23.8543C52.9132 23.8612 52.9048 23.8668 52.8974 23.8712C52.8823 23.8803 52.8728 23.8835 52.8724 23.8837C52.8722 23.8837 52.8813 23.8807 52.9023 23.8777C52.9233 23.8747 52.9544 23.872 52.9971 23.872V21.872C52.507 21.872 51.9557 21.9952 51.534 22.4169C51.1123 22.8386 50.9891 23.3899 50.9891 23.88H52.9891ZM52.9971 23.872C53.0398 23.872 53.0709 23.8747 53.092 23.8777C53.1129 23.8807 53.122 23.8837 53.1219 23.8837C53.1215 23.8835 53.112 23.8803 53.0969 23.8712C53.0894 23.8668 53.0811 23.8612 53.0722 23.8543C53.0634 23.8474 53.0546 23.8397 53.046 23.8311C53.0375 23.8226 53.0297 23.8137 53.0228 23.8049C53.016 23.796 53.0104 23.7877 53.0059 23.7802C52.9968 23.7652 52.9936 23.7557 52.9934 23.7552C52.9934 23.7551 52.9964 23.7642 52.9994 23.7852C53.0024 23.8062 53.0051 23.8373 53.0051 23.88H55.0051C55.0051 23.3899 54.8819 22.8386 54.4602 22.4169C54.0386 21.9952 53.4873 21.872 52.9971 21.872V23.872ZM53.0051 23.88V28.176H55.0051V23.88H53.0051ZM54.9111 28.5993C55.626 27.0695 56.685 25.9155 58.1003 25.1088L57.1099 23.3712C55.3253 24.3885 53.9843 25.8585 53.0992 27.7527L54.9111 28.5993ZM58.0966 25.1109C59.5334 24.3 61.2924 23.872 63.4131 23.872V21.872C61.0219 21.872 58.9088 22.356 57.1136 23.3691L58.0966 25.1109ZM63.4131 23.872C63.4558 23.872 63.4869 23.8747 63.508 23.8777C63.5289 23.8807 63.538 23.8837 63.5379 23.8837C63.5375 23.8835 63.528 23.8803 63.5129 23.8712C63.5054 23.8668 63.4971 23.8612 63.4882 23.8543C63.4794 23.8474 63.4706 23.8397 63.462 23.8311C63.4535 23.8226 63.4457 23.8137 63.4388 23.8049C63.432 23.796 63.4264 23.7877 63.4219 23.7802C63.4128 23.7652 63.4096 23.7557 63.4094 23.7552C63.4094 23.7551 63.4124 23.7642 63.4154 23.7852C63.4184 23.8062 63.4211 23.8373 63.4211 23.88H65.4211C65.4211 23.3899 65.2979 22.8386 64.8762 22.4169C64.4546 21.9952 63.9033 21.872 63.4131 21.872V23.872ZM63.4211 23.88C63.4211 23.9227 63.4184 23.9538 63.4154 23.9748C63.4124 23.9958 63.4094 24.0049 63.4094 24.0048C63.4096 24.0043 63.4128 23.9948 63.4219 23.9798C63.4264 23.9723 63.432 23.964 63.4388 23.9551C63.4457 23.9463 63.4535 23.9374 63.462 23.9289C63.4706 23.9203 63.4794 23.9126 63.4882 23.9057C63.4971 23.8988 63.5054 23.8932 63.5129 23.8888C63.528 23.8797 63.5375 23.8765 63.5379 23.8763C63.538 23.8763 63.5289 23.8793 63.508 23.8823C63.4869 23.8853 63.4558 23.888 63.4131 23.888V25.888C63.9033 25.888 64.4546 25.7648 64.8762 25.3431C65.2979 24.9214 65.4211 24.3701 65.4211 23.88H63.4211ZM63.4131 23.888C60.3813 23.888 57.8793 24.6129 56.0411 26.1938L57.3452 27.7102C58.7069 26.5391 60.6849 25.888 63.4131 25.888V23.888ZM56.0411 26.1938C54.1923 27.7838 53.2141 30.059 53.0078 32.879L55.0025 33.025C55.1801 30.597 55.994 28.8722 57.3452 27.7102L56.0411 26.1938ZM53.0051 32.952V43.992H55.0051V32.952H53.0051ZM53.0051 43.992C53.0051 44.0347 53.0024 44.0658 52.9994 44.0868C52.9964 44.1078 52.9934 44.1169 52.9934 44.1168C52.9936 44.1163 52.9968 44.1068 53.0059 44.0918C53.0104 44.0843 53.016 44.076 53.0228 44.0671C53.0297 44.0583 53.0375 44.0494 53.046 44.0409C53.0546 44.0323 53.0634 44.0246 53.0722 44.0177C53.0811 44.0108 53.0894 44.0052 53.0969 44.0008C53.112 43.9917 53.1215 43.9885 53.1219 43.9883C53.122 43.9883 53.1129 43.9913 53.092 43.9943C53.0709 43.9973 53.0398 44 52.9971 44V46C53.4873 46 54.0386 45.8768 54.4602 45.4551C54.8819 45.0334 55.0051 44.4821 55.0051 43.992H53.0051ZM73.486 53.16L74.1931 52.4529L74.1931 52.4529L73.486 53.16ZM74.926 51.744L74.2188 52.4512L74.2289 52.461L74.926 51.744ZM88.99 51.744L89.6971 52.4511L89.6971 52.4511L88.99 51.744ZM89.83 41.88H90.83V38.9887L89.0437 41.2622L89.83 41.88ZM86.374 44.304L86.0451 43.3596L86.0417 43.3608L86.374 44.304ZM74.038 43.08L74.7451 42.3729L74.7451 42.3729L74.038 43.08ZM75.454 41.664L74.7469 42.3711L74.7531 42.3772L75.454 41.664ZM87.718 41.496L88.3106 42.3015L88.3121 42.3004L87.718 41.496ZM90.43 53.16L89.7229 52.4529L89.717 52.4589L90.43 53.16ZM77.974 53.6C76.0769 53.6 74.8901 53.1499 74.1931 52.4529L72.7789 53.8671C74.0019 55.0901 75.8071 55.6 77.974 55.6V53.6ZM74.1931 52.4529C73.5173 51.7771 73.07 50.5882 73.07 48.648H71.07C71.07 50.8358 71.5667 52.6549 72.7789 53.8671L74.1931 52.4529ZM73.07 48.648C73.07 48.6053 73.0727 48.5742 73.0757 48.5532C73.0787 48.5322 73.0817 48.5231 73.0817 48.5232C73.0815 48.5237 73.0783 48.5332 73.0692 48.5482C73.0648 48.5557 73.0592 48.564 73.0523 48.5729C73.0454 48.5817 73.0377 48.5906 73.0291 48.5991C73.0206 48.6077 73.0117 48.6154 73.0029 48.6223C72.994 48.6292 72.9857 48.6348 72.9782 48.6392C72.9632 48.6483 72.9537 48.6515 72.9532 48.6517C72.9531 48.6517 72.9622 48.6487 72.9832 48.6457C73.0042 48.6427 73.0353 48.64 73.078 48.64V46.64C72.5879 46.64 72.0366 46.7632 71.6149 47.1849C71.1932 47.6066 71.07 48.1579 71.07 48.648H73.07ZM73.078 48.64C73.1207 48.64 73.1518 48.6427 73.1728 48.6457C73.1938 48.6487 73.2029 48.6517 73.2028 48.6517C73.2023 48.6515 73.1928 48.6483 73.1778 48.6392C73.1703 48.6348 73.162 48.6292 73.1531 48.6223C73.1443 48.6154 73.1354 48.6077 73.1269 48.5991C73.1183 48.5906 73.1106 48.5817 73.1037 48.5729C73.0968 48.564 73.0912 48.5557 73.0868 48.5482C73.0777 48.5332 73.0745 48.5237 73.0743 48.5232C73.0743 48.5231 73.0773 48.5322 73.0803 48.5532C73.0833 48.5742 73.086 48.6053 73.086 48.648H75.086C75.086 48.1579 74.9628 47.6066 74.5411 47.1849C74.1194 46.7632 73.5681 46.64 73.078 46.64V48.64ZM73.086 48.648C73.086 50.2049 73.3614 51.5936 74.2189 52.4511L75.6331 51.0369C75.3706 50.7744 75.086 50.0991 75.086 48.648H73.086ZM74.2289 52.461C75.0945 53.3025 76.4494 53.584 77.974 53.584V51.584C76.5866 51.584 75.9095 51.3055 75.6231 51.027L74.2289 52.461ZM77.974 53.584H85.942V51.584H77.974V53.584ZM85.942 53.584C87.4744 53.584 88.8424 53.3058 89.6971 52.4511L88.2829 51.0369C88.0176 51.3022 87.3536 51.584 85.942 51.584V53.584ZM89.6971 52.4511C90.5546 51.5936 90.83 50.2049 90.83 48.648H88.83C88.83 50.0991 88.5454 50.7744 88.2829 51.0369L89.6971 52.4511ZM90.83 48.648V41.88H88.83V48.648H90.83ZM89.0437 41.2622C88.2889 42.2229 87.2996 42.9227 86.0451 43.3596L86.7029 45.2484C88.2964 44.6933 89.6111 43.7771 90.6163 42.4978L89.0437 41.2622ZM86.0417 43.3608C84.7676 43.8097 83.2057 44.048 81.334 44.048V46.048C83.3663 46.048 85.1644 45.7903 86.7063 45.2472L86.0417 43.3608ZM81.334 44.048H80.326V46.048H81.334V44.048ZM80.326 44.048C77.5685 44.048 75.7883 43.4161 74.7451 42.3729L73.3309 43.7871C74.9117 45.3679 77.3235 46.048 80.326 46.048V44.048ZM74.7451 42.3729C73.7001 41.3279 73.07 39.5617 73.07 36.84H71.07C71.07 39.8143 71.7519 42.2081 73.3309 43.7871L74.7451 42.3729ZM73.07 36.84V23.832H71.07V36.84H73.07ZM73.07 23.832C73.07 23.7893 73.0727 23.7582 73.0757 23.7372C73.0787 23.7162 73.0817 23.7071 73.0817 23.7072C73.0815 23.7077 73.0783 23.7172 73.0692 23.7322C73.0648 23.7397 73.0592 23.748 73.0523 23.7569C73.0454 23.7657 73.0377 23.7746 73.0291 23.7831C73.0206 23.7917 73.0117 23.7994 73.0029 23.8063C72.994 23.8132 72.9857 23.8188 72.9782 23.8232C72.9632 23.8323 72.9537 23.8355 72.9532 23.8357C72.9531 23.8357 72.9622 23.8327 72.9832 23.8297C73.0042 23.8267 73.0353 23.824 73.078 23.824V21.824C72.5879 21.824 72.0366 21.9472 71.6149 22.3689C71.1932 22.7906 71.07 23.3419 71.07 23.832H73.07ZM73.078 23.824C73.1207 23.824 73.1518 23.8267 73.1728 23.8297C73.1938 23.8327 73.2029 23.8357 73.2028 23.8357C73.2023 23.8355 73.1928 23.8323 73.1778 23.8232C73.1703 23.8188 73.162 23.8132 73.1531 23.8063C73.1443 23.7994 73.1354 23.7917 73.1269 23.7831C73.1183 23.7746 73.1106 23.7657 73.1037 23.7569C73.0968 23.748 73.0912 23.7397 73.0868 23.7322C73.0777 23.7172 73.0745 23.7077 73.0743 23.7072C73.0743 23.7071 73.0773 23.7162 73.0803 23.7372C73.0833 23.7582 73.086 23.7893 73.086 23.832H75.086C75.086 23.3419 74.9628 22.7906 74.5411 22.3689C74.1194 21.9472 73.5681 21.824 73.078 21.824V23.824ZM73.086 23.832V36.84H75.086V23.832H73.086ZM73.086 36.84C73.086 39.2181 73.5455 41.1697 74.7469 42.3711L76.1611 40.9569C75.5385 40.3343 75.086 39.0699 75.086 36.84H73.086ZM74.7531 42.3772C75.9691 43.5723 77.9316 44.032 80.326 44.032V42.032C78.0804 42.032 76.7949 41.5797 76.1549 40.9508L74.7531 42.3772ZM80.326 44.032H81.334V42.032H80.326V44.032ZM81.334 44.032C84.2836 44.032 86.6667 43.5108 88.3106 42.3015L87.1254 40.6905C85.9853 41.5292 84.1124 42.032 81.334 42.032V44.032ZM88.3121 42.3004C90.0231 41.0366 90.83 39.1569 90.83 36.84H88.83C88.83 38.6511 88.2289 39.8754 87.1239 40.6916L88.3121 42.3004ZM90.83 36.84V23.832H88.83V36.84H90.83ZM90.83 23.832C90.83 23.7893 90.8327 23.7582 90.8357 23.7372C90.8387 23.7162 90.8417 23.7071 90.8417 23.7072C90.8415 23.7077 90.8383 23.7172 90.8292 23.7322C90.8248 23.7397 90.8192 23.748 90.8123 23.7569C90.8054 23.7657 90.7977 23.7746 90.7891 23.7831C90.7806 23.7917 90.7717 23.7994 90.7629 23.8063C90.754 23.8132 90.7457 23.8188 90.7382 23.8232C90.7232 23.8323 90.7137 23.8355 90.7132 23.8357C90.7131 23.8357 90.7222 23.8327 90.7432 23.8297C90.7642 23.8267 90.7953 23.824 90.838 23.824V21.824C90.3479 21.824 89.7966 21.9472 89.3749 22.3689C88.9532 22.7906 88.83 23.3419 88.83 23.832H90.83ZM90.838 23.824C90.8807 23.824 90.9118 23.8267 90.9328 23.8297C90.9538 23.8327 90.9629 23.8357 90.9628 23.8357C90.9623 23.8355 90.9528 23.8323 90.9378 23.8232C90.9303 23.8188 90.922 23.8132 90.9131 23.8063C90.9043 23.7994 90.8954 23.7917 90.8869 23.7831C90.8783 23.7746 90.8706 23.7657 90.8637 23.7569C90.8568 23.748 90.8512 23.7397 90.8468 23.7322C90.8377 23.7172 90.8345 23.7077 90.8343 23.7072C90.8343 23.7071 90.8373 23.7162 90.8403 23.7372C90.8433 23.7582 90.846 23.7893 90.846 23.832H92.846C92.846 23.3419 92.7228 22.7906 92.3011 22.3689C91.8794 21.9472 91.3281 21.824 90.838 21.824V23.824ZM90.846 23.832V48.648H92.846V23.832H90.846ZM90.846 48.648C90.846 50.5882 90.3987 51.7771 89.7229 52.4529L91.1371 53.8671C92.3493 52.6549 92.846 50.8358 92.846 48.648H90.846ZM89.717 52.4589C89.0394 53.1479 87.8595 53.6 85.942 53.6V55.6C88.1205 55.6 89.9326 55.0921 91.143 53.8611L89.717 52.4589ZM85.942 53.6H77.974V55.6H85.942V53.6ZM105.718 26.52H104.718V30.3524L106.591 27.0086L105.718 26.52ZM108.766 23.808L109.175 24.7209L109.179 24.7187L108.766 23.808ZM122.422 24.888L121.711 25.5909L121.72 25.5993L122.422 24.888ZM122.422 43.008L123.129 43.7151L123.129 43.7151L122.422 43.008ZM105.718 45V44H104.718V45H105.718ZM105.718 42.984H104.718V43.984H105.718V42.984ZM120.982 41.568L121.689 42.2751L121.689 42.2751L120.982 41.568ZM120.982 26.328L120.269 27.0291L120.275 27.0351L120.281 27.041L120.982 26.328ZM108.094 26.256L108.649 27.0881L108.656 27.0835L108.094 26.256ZM105.718 30.408L104.726 30.2808L104.718 30.3442V30.408H105.718ZM104.71 53.6C104.668 53.6 104.637 53.5973 104.616 53.5943C104.595 53.5913 104.585 53.5883 104.586 53.5883C104.586 53.5885 104.596 53.5917 104.611 53.6008C104.618 53.6052 104.626 53.6108 104.635 53.6177C104.644 53.6246 104.653 53.6323 104.661 53.6409C104.67 53.6494 104.678 53.6583 104.685 53.6671C104.692 53.676 104.697 53.6843 104.702 53.6918C104.711 53.7068 104.714 53.7163 104.714 53.7168C104.714 53.7169 104.711 53.7078 104.708 53.6868C104.705 53.6658 104.702 53.6347 104.702 53.592H102.702C102.702 54.0821 102.826 54.6334 103.247 55.0551C103.669 55.4768 104.22 55.6 104.71 55.6V53.6ZM104.702 53.592V23.88H102.702V53.592H104.702ZM104.702 23.88C104.702 23.8373 104.705 23.8062 104.708 23.7852C104.711 23.7642 104.714 23.7551 104.714 23.7552C104.714 23.7557 104.711 23.7652 104.702 23.7802C104.697 23.7877 104.692 23.796 104.685 23.8049C104.678 23.8137 104.67 23.8226 104.661 23.8311C104.653 23.8397 104.644 23.8474 104.635 23.8543C104.626 23.8612 104.618 23.8668 104.611 23.8712C104.596 23.8803 104.586 23.8835 104.586 23.8837C104.585 23.8837 104.595 23.8807 104.616 23.8777C104.637 23.8747 104.668 23.872 104.71 23.872V21.872C104.22 21.872 103.669 21.9952 103.247 22.4169C102.826 22.8386 102.702 23.3899 102.702 23.88H104.702ZM104.71 23.872C104.753 23.872 104.784 23.8747 104.805 23.8777C104.826 23.8807 104.835 23.8837 104.835 23.8837C104.835 23.8835 104.825 23.8803 104.81 23.8712C104.803 23.8668 104.794 23.8612 104.785 23.8543C104.777 23.8474 104.768 23.8397 104.759 23.8311C104.751 23.8226 104.743 23.8137 104.736 23.8049C104.729 23.796 104.724 23.7877 104.719 23.7802C104.71 23.7652 104.707 23.7557 104.707 23.7552C104.707 23.7551 104.71 23.7642 104.713 23.7852C104.716 23.8062 104.718 23.8373 104.718 23.88H106.718C106.718 23.3899 106.595 22.8386 106.173 22.4169C105.752 21.9952 105.201 21.872 104.71 21.872V23.872ZM104.718 23.88V26.52H106.718V23.88H104.718ZM106.591 27.0086C107.149 26.0122 107.994 25.2489 109.175 24.7209L108.358 22.8951C106.819 23.5831 105.632 24.6278 104.846 26.0314L106.591 27.0086ZM109.179 24.7187C110.378 24.1753 112.037 23.872 114.214 23.872V21.872C111.88 21.872 109.907 22.1927 108.353 22.8973L109.179 24.7187ZM114.214 23.872H116.038V21.872H114.214V23.872ZM116.038 23.872C118.843 23.872 120.652 24.5193 121.711 25.5909L123.134 24.1851C121.537 22.5687 119.09 21.872 116.038 21.872V23.872ZM121.72 25.5993C122.791 26.6582 123.438 28.4677 123.438 31.272H125.438C125.438 28.2203 124.742 25.7738 123.125 24.1767L121.72 25.5993ZM123.438 31.272V36.6H125.438V31.272H123.438ZM123.438 36.6C123.438 39.4029 122.792 41.2245 121.715 42.3009L123.129 43.7151C124.741 42.1035 125.438 39.6531 125.438 36.6H123.438ZM121.715 42.3009C120.657 43.3594 118.845 44 116.038 44V46C119.087 46 121.532 45.3126 123.129 43.7151L121.715 42.3009ZM116.038 44H105.718V46H116.038V44ZM104.718 45V53.592H106.718V45H104.718ZM104.718 53.592C104.718 53.6347 104.716 53.6658 104.713 53.6868C104.71 53.7078 104.707 53.7169 104.707 53.7168C104.707 53.7163 104.71 53.7068 104.719 53.6918C104.724 53.6843 104.729 53.676 104.736 53.6671C104.743 53.6583 104.751 53.6494 104.759 53.6409C104.768 53.6323 104.777 53.6246 104.785 53.6177C104.794 53.6108 104.803 53.6052 104.81 53.6008C104.825 53.5917 104.835 53.5885 104.835 53.5883C104.835 53.5883 104.826 53.5913 104.805 53.5943C104.784 53.5973 104.753 53.6 104.71 53.6V55.6C105.201 55.6 105.752 55.4768 106.173 55.0551C106.595 54.6334 106.718 54.0821 106.718 53.592H104.718ZM105.718 43.984H116.038V41.984H105.718V43.984ZM116.038 43.984C118.469 43.984 120.458 43.5066 121.689 42.2751L120.275 40.8609C119.619 41.5174 118.312 41.984 116.038 41.984V43.984ZM121.689 42.2751C122.935 41.03 123.422 39.0367 123.422 36.6H121.422C121.422 38.8673 120.95 40.186 120.275 40.8609L121.689 42.2751ZM123.422 36.6V31.272H121.422V36.6H123.422ZM123.422 31.272C123.422 28.8378 122.936 26.8462 121.684 25.615L120.281 27.041C120.949 27.6978 121.422 29.0022 121.422 31.272H123.422ZM121.695 25.6269C120.464 24.3748 118.473 23.888 116.038 23.888V25.888C118.308 25.888 119.613 26.3612 120.269 27.0291L121.695 25.6269ZM116.038 23.888H114.214V25.888H116.038V23.888ZM114.214 23.888C111.401 23.888 109.121 24.3507 107.533 25.4285L108.656 27.0835C109.756 26.3373 111.556 25.888 114.214 25.888V23.888ZM107.54 25.4239C105.913 26.5082 104.996 28.1751 104.726 30.2808L106.71 30.5352C106.92 28.8969 107.587 27.7958 108.649 27.088L107.54 25.4239ZM104.718 30.408V42.984H106.718V30.408H104.718ZM137.496 43.032L138.203 42.3249L138.203 42.3249L137.496 43.032ZM135.528 24.888H136.528V23.888H135.528V24.888ZM135.528 22.872V23.872H136.528V22.872H135.528ZM137.544 22.872H136.544V23.872H137.544V22.872ZM137.544 24.888V23.888H136.544V24.888H137.544ZM138.912 41.616L138.205 42.3231L138.211 42.3292L138.912 41.616ZM144.624 43.248L145.398 42.6148L145.398 42.6148L144.624 43.248ZM143.784 44C141.026 44 139.246 43.3681 138.203 42.3249L136.789 43.7391C138.37 45.3199 140.781 46 143.784 46V44ZM138.203 42.3249C137.158 41.2799 136.528 39.5137 136.528 36.792H134.528C134.528 39.7663 135.21 42.1601 136.789 43.7391L138.203 42.3249ZM136.528 36.792V24.888H134.528V36.792H136.528ZM135.528 23.888H132.504V25.888H135.528V23.888ZM132.504 23.888C132.461 23.888 132.43 23.8853 132.409 23.8823C132.388 23.8793 132.379 23.8763 132.379 23.8763C132.38 23.8765 132.389 23.8797 132.404 23.8888C132.412 23.8932 132.42 23.8988 132.429 23.9057C132.438 23.9126 132.446 23.9203 132.455 23.9289C132.464 23.9374 132.471 23.9463 132.478 23.9551C132.485 23.964 132.491 23.9723 132.495 23.9798C132.504 23.9948 132.507 24.0043 132.508 24.0048C132.508 24.0049 132.505 23.9958 132.502 23.9748C132.499 23.9538 132.496 23.9227 132.496 23.88H130.496C130.496 24.3701 130.619 24.9214 131.041 25.3431C131.462 25.7648 132.014 25.888 132.504 25.888V23.888ZM132.496 23.88C132.496 23.8373 132.499 23.8062 132.502 23.7852C132.505 23.7642 132.508 23.7551 132.508 23.7552C132.507 23.7557 132.504 23.7652 132.495 23.7802C132.491 23.7877 132.485 23.796 132.478 23.8049C132.471 23.8137 132.464 23.8226 132.455 23.8311C132.446 23.8397 132.438 23.8474 132.429 23.8543C132.42 23.8612 132.412 23.8668 132.404 23.8712C132.389 23.8803 132.38 23.8835 132.379 23.8837C132.379 23.8837 132.388 23.8807 132.409 23.8777C132.43 23.8747 132.461 23.872 132.504 23.872V21.872C132.014 21.872 131.462 21.9952 131.041 22.4169C130.619 22.8386 130.496 23.3899 130.496 23.88H132.496ZM132.504 23.872H135.528V21.872H132.504V23.872ZM136.528 22.872V17.16H134.528V22.872H136.528ZM136.528 17.16C136.528 17.1173 136.531 17.0862 136.534 17.0652C136.537 17.0442 136.54 17.0351 136.54 17.0352C136.539 17.0357 136.536 17.0452 136.527 17.0602C136.523 17.0677 136.517 17.076 136.51 17.0849C136.503 17.0937 136.496 17.1026 136.487 17.1111C136.478 17.1197 136.47 17.1274 136.461 17.1343C136.452 17.1412 136.444 17.1468 136.436 17.1512C136.421 17.1603 136.412 17.1635 136.411 17.1637C136.411 17.1637 136.42 17.1607 136.441 17.1577C136.462 17.1547 136.493 17.152 136.536 17.152V15.152C136.046 15.152 135.494 15.2752 135.073 15.6969C134.651 16.1186 134.528 16.6699 134.528 17.16H136.528ZM136.536 17.152C136.579 17.152 136.61 17.1547 136.631 17.1577C136.652 17.1607 136.661 17.1637 136.661 17.1637C136.66 17.1635 136.651 17.1603 136.636 17.1512C136.628 17.1468 136.62 17.1412 136.611 17.1343C136.602 17.1274 136.593 17.1197 136.585 17.1111C136.576 17.1026 136.568 17.0937 136.562 17.0849C136.555 17.076 136.549 17.0677 136.545 17.0602C136.536 17.0452 136.532 17.0357 136.532 17.0352C136.532 17.0351 136.535 17.0442 136.538 17.0652C136.541 17.0862 136.544 17.1173 136.544 17.16H138.544C138.544 16.6699 138.421 16.1186 137.999 15.6969C137.577 15.2752 137.026 15.152 136.536 15.152V17.152ZM136.544 17.16V22.872H138.544V17.16H136.544ZM137.544 23.872H143.736V21.872H137.544V23.872ZM143.736 23.872C143.779 23.872 143.81 23.8747 143.831 23.8777C143.852 23.8807 143.861 23.8837 143.861 23.8837C143.86 23.8835 143.851 23.8803 143.836 23.8712C143.828 23.8668 143.82 23.8612 143.811 23.8543C143.802 23.8474 143.793 23.8397 143.785 23.8311C143.776 23.8226 143.768 23.8137 143.762 23.8049C143.755 23.796 143.749 23.7877 143.745 23.7802C143.736 23.7652 143.732 23.7557 143.732 23.7552C143.732 23.7551 143.735 23.7642 143.738 23.7852C143.741 23.8062 143.744 23.8373 143.744 23.88H145.744C145.744 23.3899 145.621 22.8386 145.199 22.4169C144.777 21.9952 144.226 21.872 143.736 21.872V23.872ZM143.744 23.88C143.744 23.9227 143.741 23.9538 143.738 23.9748C143.735 23.9958 143.732 24.0049 143.732 24.0048C143.732 24.0043 143.736 23.9948 143.745 23.9798C143.749 23.9723 143.755 23.964 143.762 23.9551C143.768 23.9463 143.776 23.9374 143.785 23.9289C143.793 23.9203 143.802 23.9126 143.811 23.9057C143.82 23.8988 143.828 23.8932 143.836 23.8888C143.851 23.8797 143.86 23.8765 143.861 23.8763C143.861 23.8763 143.852 23.8793 143.831 23.8823C143.81 23.8853 143.779 23.888 143.736 23.888V25.888C144.226 25.888 144.777 25.7648 145.199 25.3431C145.621 24.9214 145.744 24.3701 145.744 23.88H143.744ZM143.736 23.888H137.544V25.888H143.736V23.888ZM136.544 24.888V36.792H138.544V24.888H136.544ZM136.544 36.792C136.544 39.1701 137.003 41.1217 138.205 42.3231L139.619 40.9089C138.996 40.2863 138.544 39.0219 138.544 36.792H136.544ZM138.211 42.3292C139.427 43.5243 141.39 43.984 143.784 43.984V41.984C141.538 41.984 140.253 41.5317 139.613 40.9028L138.211 42.3292ZM143.784 43.984C143.853 43.984 143.906 43.9877 143.945 43.9926C143.984 43.9975 144.003 44.0029 144.006 44.004C144.014 44.0064 143.933 43.9823 143.85 43.8812L145.398 42.6148C144.954 42.0724 144.267 41.984 143.784 41.984V43.984ZM143.85 43.8812C143.826 43.8516 143.822 43.8328 143.826 43.8448C143.83 43.8596 143.84 43.9048 143.84 43.992H145.84C145.84 43.5337 145.737 43.0299 145.398 42.6148L143.85 43.8812ZM143.84 43.992C143.84 44.0755 143.829 44.1067 143.83 44.1033C143.831 44.1007 143.835 44.0898 143.845 44.0741C143.855 44.058 143.868 44.0408 143.885 44.0246C143.902 44.0086 143.918 43.9974 143.93 43.9905C143.942 43.9838 143.947 43.9826 143.943 43.9841C143.938 43.9857 143.923 43.9898 143.896 43.9934C143.869 43.9971 143.832 44 143.784 44V46C144.279 46 144.835 45.8827 145.266 45.4714C145.706 45.0517 145.84 44.4943 145.84 43.992H143.84ZM153.881 43.008L153.169 43.7109L153.178 43.7193L153.881 43.008ZM153.881 24.84L153.174 24.1329L153.174 24.1329L153.881 24.84ZM160.289 22.872L160.278 23.872H160.289V22.872ZM170.609 24.888L169.897 25.5909L169.906 25.5993L170.609 24.888ZM170.609 43.008L171.316 43.7151L171.316 43.7151L170.609 43.008ZM155.321 41.568L154.608 42.2691L154.614 42.2751L154.62 42.281L155.321 41.568ZM169.169 41.568L169.876 42.2751L169.876 42.2751L169.169 41.568ZM169.169 26.328L168.456 27.0291L168.462 27.0351L168.468 27.041L169.169 26.328ZM160.289 24.888L160.279 25.888H160.289V24.888ZM156.521 25.488L156.917 26.4064L156.924 26.4031L156.521 25.488ZM154.505 27.504L153.59 27.1007L153.586 27.1082L154.505 27.504ZM160.289 44C157.483 44 155.66 43.36 154.584 42.2967L153.178 43.7193C154.79 45.312 157.238 46 160.289 46V44ZM154.592 42.3051C153.527 41.2273 152.889 39.4179 152.889 36.648H150.889C150.889 39.6701 151.578 42.1007 153.169 43.7109L154.592 42.3051ZM152.889 36.648V31.272H150.889V36.648H152.889ZM152.889 31.272C152.889 28.4293 153.531 26.6039 154.588 25.5471L153.174 24.1329C151.574 25.7321 150.889 28.1947 150.889 31.272H152.889ZM154.588 25.5471C155.66 24.4748 157.476 23.8413 160.278 23.8719L160.3 21.8721C157.245 21.8387 154.789 22.5172 153.174 24.1329L154.588 25.5471ZM160.289 23.872H164.225V21.872H160.289V23.872ZM164.225 23.872C167.029 23.872 168.839 24.5193 169.897 25.5909L171.32 24.1851C169.723 22.5687 167.276 21.872 164.225 21.872V23.872ZM169.906 25.5993C170.977 26.6582 171.625 28.4677 171.625 31.272H173.625C173.625 28.2203 172.928 25.7738 171.312 24.1767L169.906 25.5993ZM171.625 31.272V36.6H173.625V31.272H171.625ZM171.625 36.6C171.625 39.4029 170.978 41.2245 169.902 42.3009L171.316 43.7151C172.927 42.1035 173.625 39.6531 173.625 36.6H171.625ZM169.902 42.3009C168.843 43.3594 167.032 44 164.225 44V46C167.274 46 169.718 45.3126 171.316 43.7151L169.902 42.3009ZM164.225 44H160.289V46H164.225V44ZM152.905 36.648C152.905 39.054 153.385 41.0258 154.608 42.2691L156.034 40.8669C155.368 40.1902 154.905 38.882 154.905 36.648H152.905ZM154.62 42.281C155.865 43.5055 157.855 43.984 160.289 43.984V41.984C158.018 41.984 156.697 41.5185 156.022 40.855L154.62 42.281ZM160.289 43.984H164.225V41.984H160.289V43.984ZM164.225 43.984C166.656 43.984 168.644 43.5066 169.876 42.2751L168.462 40.8609C167.805 41.5174 166.498 41.984 164.225 41.984V43.984ZM169.876 42.2751C171.121 41.03 171.609 39.0367 171.609 36.6H169.609C169.609 38.8673 169.137 40.186 168.462 40.8609L169.876 42.2751ZM171.609 36.6V31.272H169.609V36.6H171.609ZM171.609 31.272C171.609 28.8378 171.122 26.8462 169.87 25.615L168.468 27.041C169.136 27.6978 169.609 29.0022 169.609 31.272H171.609ZM169.882 25.6269C168.651 24.3748 166.659 23.888 164.225 23.888V25.888C166.495 25.888 167.799 26.3612 168.456 27.0291L169.882 25.6269ZM164.225 23.888H160.289V25.888H164.225V23.888ZM160.299 23.8881C158.656 23.8713 157.242 24.0776 156.117 24.5729L156.924 26.4031C157.688 26.0664 158.786 25.8727 160.279 25.8879L160.299 23.8881ZM156.125 24.5697C154.96 25.0719 154.105 25.931 153.59 27.1007L155.42 27.9073C155.736 27.189 156.226 26.7041 156.917 26.4063L156.125 24.5697ZM153.586 27.1082C153.111 28.2118 152.905 29.6207 152.905 31.272H154.905C154.905 29.7552 155.099 28.6522 155.423 27.8998L153.586 27.1082ZM152.905 31.272V36.648H154.905V31.272H152.905ZM185.191 53.424L185.83 52.6547L185.822 52.6483L185.191 53.424ZM183.559 49.752L182.56 49.7996L182.561 49.8185L182.563 49.8374L183.559 49.752ZM183.799 48.96L183.092 48.2529L183.077 48.2683L183.062 48.2843L183.799 48.96ZM185.287 48.936L185.994 48.2289L185.977 48.2121L185.96 48.1961L185.287 48.936ZM185.575 49.704L184.576 49.7516L184.577 49.7711L184.579 49.7906L185.575 49.704ZM186.583 51.96L187.158 51.1418L187.153 51.1386L186.583 51.96ZM201.391 51.744L200.694 51.0267L200.684 51.0368L200.674 51.0472L201.391 51.744ZM202.231 41.4H203.231V37.6887L201.366 40.8976L202.231 41.4ZM199.135 44.088L198.731 43.1733L198.727 43.1751L199.135 44.088ZM185.503 43.008L184.792 43.7109L184.8 43.7193L185.503 43.008ZM185.503 24.864L186.206 25.5754L186.206 25.5753L185.503 24.864ZM202.231 25.632L201.358 26.1202L203.231 29.4684V25.632H202.231ZM202.831 53.16L202.124 52.4529L202.118 52.4589L202.831 53.16ZM199.951 41.688L200.445 42.5574L200.452 42.5534L199.951 41.688ZM200.671 26.112L200.048 26.8941L200.055 26.8994L200.061 26.9046L200.671 26.112ZM186.943 26.304L187.644 27.0171L187.644 27.017L186.943 26.304ZM186.943 41.568L186.23 42.2691L186.236 42.2751L186.242 42.281L186.943 41.568ZM189.415 53.6C187.659 53.6 186.521 53.2288 185.83 52.6547L184.552 54.1933C185.749 55.1872 187.427 55.6 189.415 55.6V53.6ZM185.822 52.6483C185.159 52.1088 184.685 51.1832 184.555 49.6666L182.563 49.8374C182.721 51.6808 183.335 53.2032 184.56 54.1997L185.822 52.6483ZM184.558 49.7044C184.554 49.6263 184.564 49.5937 184.564 49.592C184.564 49.5916 184.562 49.5974 184.557 49.607C184.552 49.6168 184.544 49.6268 184.536 49.6357L183.062 48.2843C182.657 48.7256 182.535 49.2784 182.56 49.7996L184.558 49.7044ZM184.506 49.6671C184.499 49.6745 184.489 49.6821 184.479 49.6888C184.468 49.6955 184.46 49.6992 184.455 49.7009C184.446 49.7042 184.463 49.696 184.519 49.696V47.696C184.012 47.696 183.495 47.8494 183.092 48.2529L184.506 49.6671ZM184.519 49.696C184.61 49.696 184.654 49.7072 184.665 49.7105C184.672 49.7126 184.647 49.7057 184.614 49.6759L185.96 48.1961C185.536 47.8107 185.001 47.696 184.519 47.696V49.696ZM184.58 49.6431C184.557 49.6206 184.552 49.6035 184.555 49.6111C184.559 49.6224 184.572 49.6644 184.576 49.7516L186.574 49.6564C186.55 49.1605 186.4 48.6348 185.994 48.2289L184.58 49.6431ZM184.579 49.7906C184.686 51.0195 185.08 52.1337 186.013 52.7814L187.153 51.1386C186.934 50.9863 186.656 50.5965 186.571 49.6174L184.579 49.7906ZM186.008 52.7782C186.856 53.3741 188.056 53.584 189.415 53.584V51.584C188.182 51.584 187.494 51.3779 187.158 51.1418L186.008 52.7782ZM189.415 53.584H198.343V51.584H189.415V53.584ZM198.343 53.584C199.883 53.584 201.265 53.3092 202.108 52.4408L200.674 51.0472C200.429 51.2988 199.779 51.584 198.343 51.584V53.584ZM202.088 52.4613C202.956 51.6176 203.231 50.2358 203.231 48.696H201.231C201.231 50.1322 200.946 50.7824 200.694 51.0267L202.088 52.4613ZM203.231 48.696V41.4H201.231V48.696H203.231ZM201.366 40.8976C200.795 41.8809 199.934 42.6418 198.731 43.1733L199.539 45.0027C201.088 44.3182 202.291 43.2871 203.096 41.9024L201.366 40.8976ZM198.727 43.1751C197.543 43.7042 195.899 44 193.735 44V46C196.051 46 198.007 45.6878 199.543 45.0009L198.727 43.1751ZM193.735 44H191.911V46H193.735V44ZM191.911 44C189.105 44 187.282 43.36 186.206 42.2967L184.8 43.7193C186.412 45.312 188.861 46 191.911 46V44ZM186.214 42.3051C185.149 41.2273 184.511 39.4179 184.511 36.648H182.511C182.511 39.6701 183.201 42.1007 184.792 43.7109L186.214 42.3051ZM184.511 36.648V31.272H182.511V36.648H184.511ZM184.511 31.272C184.511 28.4278 185.154 26.6147 186.206 25.5754L184.8 24.1526C183.196 25.7373 182.511 28.1962 182.511 31.272H184.511ZM186.206 25.5753C187.282 24.512 189.105 23.872 191.911 23.872V21.872C188.861 21.872 186.412 22.56 184.8 24.1527L186.206 25.5753ZM191.911 23.872H195.847V21.872H191.911V23.872ZM195.847 23.872C197.488 23.872 198.692 24.0893 199.521 24.4578L200.333 22.6302C199.146 22.1027 197.63 21.872 195.847 21.872V23.872ZM199.521 24.4578C200.336 24.8199 200.938 25.3687 201.358 26.1202L203.104 25.1438C202.468 24.0073 201.534 23.1641 200.333 22.6302L199.521 24.4578ZM203.231 25.632V23.88H201.231V25.632H203.231ZM203.231 23.88C203.231 23.8373 203.234 23.8062 203.237 23.7852C203.24 23.7642 203.243 23.7551 203.243 23.7552C203.243 23.7557 203.239 23.7652 203.23 23.7802C203.226 23.7877 203.22 23.796 203.213 23.8049C203.206 23.8137 203.199 23.8226 203.19 23.8311C203.182 23.8397 203.173 23.8474 203.164 23.8543C203.155 23.8612 203.147 23.8668 203.139 23.8712C203.124 23.8803 203.115 23.8835 203.114 23.8837C203.114 23.8837 203.123 23.8807 203.144 23.8777C203.165 23.8747 203.196 23.872 203.239 23.872V21.872C202.749 21.872 202.198 21.9952 201.776 22.4169C201.354 22.8386 201.231 23.3899 201.231 23.88H203.231ZM203.239 23.872C203.282 23.872 203.313 23.8747 203.334 23.8777C203.355 23.8807 203.364 23.8837 203.364 23.8837C203.363 23.8835 203.354 23.8803 203.339 23.8712C203.331 23.8668 203.323 23.8612 203.314 23.8543C203.305 23.8474 203.296 23.8397 203.288 23.8311C203.279 23.8226 203.272 23.8137 203.265 23.8049C203.258 23.796 203.252 23.7877 203.248 23.7802C203.239 23.7652 203.235 23.7557 203.235 23.7552C203.235 23.7551 203.238 23.7642 203.241 23.7852C203.244 23.8062 203.247 23.8373 203.247 23.88H205.247C205.247 23.3899 205.124 22.8386 204.702 22.4169C204.28 21.9952 203.729 21.872 203.239 21.872V23.872ZM203.247 23.88V48.696H205.247V23.88H203.247ZM203.247 48.696C203.247 50.5988 202.802 51.7746 202.124 52.4529L203.538 53.8671C204.748 52.6574 205.247 50.8572 205.247 48.696H203.247ZM202.118 52.4589C201.44 53.1479 200.261 53.6 198.343 53.6V55.6C200.521 55.6 202.334 55.0921 203.544 53.8611L202.118 52.4589ZM198.343 53.6H189.415V55.6H198.343V53.6ZM191.911 43.984H193.735V41.984H191.911V43.984ZM193.735 43.984C196.452 43.984 198.718 43.5394 200.445 42.5574L199.457 40.8186C198.145 41.5646 196.266 41.984 193.735 41.984V43.984ZM200.452 42.5534C202.278 41.4962 203.231 39.856 203.231 37.752H201.231C201.231 39.136 200.664 40.1198 199.45 40.8226L200.452 42.5534ZM203.231 37.752V30.264H201.231V37.752H203.231ZM203.231 30.264C203.231 28.1457 202.671 26.3886 201.281 25.3194L200.061 26.9046C200.751 27.4354 201.231 28.4463 201.231 30.264H203.231ZM201.294 25.3299C200.008 24.3053 198.126 23.888 195.847 23.888V25.888C197.952 25.888 199.286 26.2867 200.048 26.8941L201.294 25.3299ZM195.847 23.888H191.911V25.888H195.847V23.888ZM191.911 23.888C189.478 23.888 187.487 24.3665 186.242 25.591L187.644 27.017C188.319 26.3535 189.64 25.888 191.911 25.888V23.888ZM186.242 25.5909C185.001 26.8103 184.527 28.8164 184.527 31.272H186.527C186.527 28.9596 186.997 27.6537 187.644 27.0171L186.242 25.5909ZM184.527 31.272V36.648H186.527V31.272H184.527ZM184.527 36.648C184.527 39.054 185.007 41.0258 186.23 42.2691L187.656 40.8669C186.991 40.1902 186.527 38.882 186.527 36.648H184.527ZM186.242 42.281C187.487 43.5055 189.478 43.984 191.911 43.984V41.984C189.64 41.984 188.319 41.5185 187.644 40.855L186.242 42.281ZM217.676 28.176H216.676V32.6781L218.582 28.5993L217.676 28.176ZM221.276 24.24L220.785 23.3691L220.781 23.3712L221.276 24.24ZM217.676 32.952L216.679 32.879L216.676 32.9155V32.952H217.676ZM216.668 44C216.625 44 216.594 43.9973 216.573 43.9943C216.552 43.9913 216.543 43.9883 216.543 43.9883C216.544 43.9885 216.553 43.9917 216.568 44.0008C216.576 44.0052 216.584 44.0108 216.593 44.0177C216.602 44.0246 216.611 44.0323 216.619 44.0409C216.628 44.0494 216.636 44.0583 216.642 44.0671C216.649 44.076 216.655 44.0843 216.659 44.0918C216.668 44.1068 216.672 44.1163 216.672 44.1168C216.672 44.1169 216.669 44.1078 216.666 44.0868C216.663 44.0658 216.66 44.0347 216.66 43.992H214.66C214.66 44.4821 214.783 45.0334 215.205 45.4551C215.627 45.8768 216.178 46 216.668 46V44ZM216.66 43.992V23.88H214.66V43.992H216.66ZM216.66 23.88C216.66 23.8373 216.663 23.8062 216.666 23.7852C216.669 23.7642 216.672 23.7551 216.672 23.7552C216.672 23.7557 216.668 23.7652 216.659 23.7802C216.655 23.7877 216.649 23.796 216.642 23.8049C216.636 23.8137 216.628 23.8226 216.619 23.8311C216.611 23.8397 216.602 23.8474 216.593 23.8543C216.584 23.8612 216.576 23.8668 216.568 23.8712C216.553 23.8803 216.544 23.8835 216.543 23.8837C216.543 23.8837 216.552 23.8807 216.573 23.8777C216.594 23.8747 216.625 23.872 216.668 23.872V21.872C216.178 21.872 215.627 21.9952 215.205 22.4169C214.783 22.8386 214.66 23.3899 214.66 23.88H216.66ZM216.668 23.872C216.711 23.872 216.742 23.8747 216.763 23.8777C216.784 23.8807 216.793 23.8837 216.793 23.8837C216.792 23.8835 216.783 23.8803 216.768 23.8712C216.76 23.8668 216.752 23.8612 216.743 23.8543C216.734 23.8474 216.726 23.8397 216.717 23.8311C216.708 23.8226 216.701 23.8137 216.694 23.8049C216.687 23.796 216.681 23.7877 216.677 23.7802C216.668 23.7652 216.665 23.7557 216.664 23.7552C216.664 23.7551 216.667 23.7642 216.67 23.7852C216.673 23.8062 216.676 23.8373 216.676 23.88H218.676C218.676 23.3899 218.553 22.8386 218.131 22.4169C217.71 21.9952 217.158 21.872 216.668 21.872V23.872ZM216.676 23.88V28.176H218.676V23.88H216.676ZM218.582 28.5993C219.297 27.0695 220.356 25.9155 221.771 25.1088L220.781 23.3712C218.996 24.3885 217.655 25.8585 216.77 27.7527L218.582 28.5993ZM221.768 25.1109C223.204 24.3 224.963 23.872 227.084 23.872V21.872C224.693 21.872 222.58 22.356 220.785 23.3691L221.768 25.1109ZM227.084 23.872C227.127 23.872 227.158 23.8747 227.179 23.8777C227.2 23.8807 227.209 23.8837 227.209 23.8837C227.208 23.8835 227.199 23.8803 227.184 23.8712C227.176 23.8668 227.168 23.8612 227.159 23.8543C227.15 23.8474 227.142 23.8397 227.133 23.8311C227.124 23.8226 227.117 23.8137 227.11 23.8049C227.103 23.796 227.097 23.7877 227.093 23.7802C227.084 23.7652 227.081 23.7557 227.08 23.7552C227.08 23.7551 227.083 23.7642 227.086 23.7852C227.089 23.8062 227.092 23.8373 227.092 23.88H229.092C229.092 23.3899 228.969 22.8386 228.547 22.4169C228.126 21.9952 227.574 21.872 227.084 21.872V23.872ZM227.092 23.88C227.092 23.9227 227.089 23.9538 227.086 23.9748C227.083 23.9958 227.08 24.0049 227.08 24.0048C227.081 24.0043 227.084 23.9948 227.093 23.9798C227.097 23.9723 227.103 23.964 227.11 23.9551C227.117 23.9463 227.124 23.9374 227.133 23.9289C227.142 23.9203 227.15 23.9126 227.159 23.9057C227.168 23.8988 227.176 23.8932 227.184 23.8888C227.199 23.8797 227.208 23.8765 227.209 23.8763C227.209 23.8763 227.2 23.8793 227.179 23.8823C227.158 23.8853 227.127 23.888 227.084 23.888V25.888C227.574 25.888 228.126 25.7648 228.547 25.3431C228.969 24.9214 229.092 24.3701 229.092 23.88H227.092ZM227.084 23.888C224.052 23.888 221.55 24.6129 219.712 26.1938L221.016 27.7102C222.378 26.5391 224.356 25.888 227.084 25.888V23.888ZM219.712 26.1938C217.863 27.7838 216.885 30.059 216.679 32.879L218.673 33.025C218.851 30.597 219.665 28.8722 221.016 27.7102L219.712 26.1938ZM216.676 32.952V43.992H218.676V32.952H216.676ZM216.676 43.992C216.676 44.0347 216.673 44.0658 216.67 44.0868C216.667 44.1078 216.664 44.1169 216.664 44.1168C216.665 44.1163 216.668 44.1068 216.677 44.0918C216.681 44.0843 216.687 44.076 216.694 44.0671C216.701 44.0583 216.708 44.0494 216.717 44.0409C216.726 44.0323 216.734 44.0246 216.743 44.0177C216.752 44.0108 216.76 44.0052 216.768 44.0008C216.783 43.9917 216.792 43.9885 216.793 43.9883C216.793 43.9883 216.784 43.9913 216.763 43.9943C216.742 43.9973 216.711 44 216.668 44V46C217.158 46 217.71 45.8768 218.131 45.4551C218.553 45.0334 218.676 44.4821 218.676 43.992H216.676ZM235.896 43.344L235.184 44.046L235.189 44.0511L235.194 44.0562L235.896 43.344ZM235.92 32.712L235.213 32.0049L235.213 32.0049L235.92 32.712ZM252.384 31.032V32.032H253.391L253.384 31.0249L252.384 31.032ZM250.92 26.28L250.225 26.999L250.231 27.005L250.92 26.28ZM238.464 25.656L238.911 26.5505L238.923 26.5446L238.464 25.656ZM236.688 28.2L235.7 28.042L235.7 28.044L236.688 28.2ZM236.376 28.92L235.636 28.2473L235.633 28.251L236.376 28.92ZM234.912 28.896L234.175 29.5717L234.189 29.5877L234.205 29.6031L234.912 28.896ZM234.672 28.104L233.674 28.034L233.674 28.0452L233.673 28.0564L234.672 28.104ZM236.976 24.12L236.471 23.2566L236.467 23.2591L236.976 24.12ZM252.384 24.888L251.672 25.5909L251.681 25.5993L252.384 24.888ZM252.384 41.16H253.384V37.4147L251.517 40.6615L252.384 41.16ZM248.232 42.408L247.934 41.4533L247.931 41.4544L248.232 42.408ZM251.136 40.584L250.38 39.9296L250.372 39.9381L251.136 40.584ZM252.384 37.32L253.38 37.403L253.384 37.3616V37.32H252.384ZM252.384 33.048H253.384V32.048H252.384V33.048ZM237.336 34.152L236.629 33.4449L236.629 33.4449L237.336 34.152ZM237.336 41.904L236.621 42.6033L236.629 42.6111L236.637 42.6188L237.336 41.904ZM241.2 44C238.909 44 237.451 43.4732 236.598 42.6318L235.194 44.0562C236.58 45.4228 238.659 46 241.2 46V44ZM236.608 42.642C235.767 41.7884 235.24 40.3309 235.24 38.04H233.24C233.24 40.5811 233.817 42.6596 235.184 44.046L236.608 42.642ZM235.24 38.04C235.24 35.7342 235.774 34.272 236.627 33.4191L235.213 32.0049C233.826 33.392 233.24 35.4818 233.24 38.04H235.24ZM236.627 33.4191C237.482 32.5641 238.931 32.032 241.2 32.032V30.032C238.669 30.032 236.598 30.6199 235.213 32.0049L236.627 33.4191ZM241.2 32.032H252.384V30.032H241.2V32.032ZM253.384 31.0249C253.367 28.6773 252.866 26.7496 251.609 25.555L250.231 27.005C250.894 27.6344 251.369 28.8747 251.384 31.0391L253.384 31.0249ZM251.615 25.561C250.371 24.3591 248.403 23.888 246 23.888V25.888C248.237 25.888 249.548 26.3449 250.225 26.999L251.615 25.561ZM246 23.888H243.216V25.888H246V23.888ZM243.216 23.888C241.004 23.888 239.219 24.141 238.005 24.7674L238.923 26.5446C239.693 26.147 241.075 25.888 243.216 25.888V23.888ZM238.017 24.7616C236.706 25.417 235.938 26.5593 235.7 28.042L237.675 28.358C237.822 27.4407 238.238 26.887 238.911 26.5504L238.017 24.7616ZM235.7 28.044C235.687 28.1271 235.67 28.1798 235.656 28.2104C235.65 28.2254 235.644 28.2349 235.641 28.2402C235.639 28.2429 235.638 28.2446 235.637 28.2457C235.636 28.2468 235.636 28.2473 235.636 28.2473L237.116 29.5927C237.441 29.2354 237.606 28.7967 237.676 28.356L235.7 28.044ZM235.633 28.251C235.659 28.2217 235.687 28.1988 235.713 28.1821C235.739 28.1657 235.759 28.1578 235.768 28.1546C235.783 28.1494 235.761 28.16 235.68 28.16V30.16C236.144 30.16 236.709 30.0447 237.119 29.589L235.633 28.251ZM235.68 28.16C235.597 28.16 235.563 28.1489 235.561 28.1483C235.561 28.1483 235.568 28.1509 235.58 28.1582C235.593 28.1657 235.606 28.1761 235.619 28.1889L234.205 29.6031C234.626 30.0248 235.174 30.16 235.68 30.16V28.16ZM235.649 28.2203C235.657 28.2292 235.664 28.2392 235.67 28.249C235.675 28.2586 235.677 28.2644 235.677 28.264C235.676 28.2623 235.667 28.2297 235.671 28.1516L233.673 28.0564C233.648 28.5776 233.77 29.1304 234.175 29.5717L235.649 28.2203ZM235.669 28.174C235.778 26.6328 236.397 25.6239 237.485 24.9809L236.467 23.2591C234.739 24.2801 233.822 25.9272 233.674 28.034L235.669 28.174ZM237.48 24.9834C238.681 24.2817 240.553 23.872 243.216 23.872V21.872C240.406 21.872 238.118 22.2943 236.471 23.2566L237.48 24.9834ZM243.216 23.872H246V21.872H243.216V23.872ZM246 23.872C248.804 23.872 250.614 24.5193 251.673 25.5909L253.095 24.1851C251.498 22.5687 249.052 21.872 246 21.872V23.872ZM251.681 25.5993C252.753 26.6582 253.4 28.4677 253.4 31.272H255.4C255.4 28.2203 254.703 25.7738 253.087 24.1767L251.681 25.5993ZM253.4 31.272V43.992H255.4V31.272H253.4ZM253.4 43.992C253.4 44.0347 253.397 44.0658 253.394 44.0868C253.391 44.1078 253.388 44.1169 253.388 44.1168C253.388 44.1163 253.392 44.1068 253.401 44.0918C253.405 44.0843 253.411 44.076 253.418 44.0671C253.424 44.0583 253.432 44.0494 253.441 44.0409C253.449 44.0323 253.458 44.0246 253.467 44.0177C253.476 44.0108 253.484 44.0052 253.492 44.0008C253.507 43.9917 253.516 43.9885 253.517 43.9883C253.517 43.9883 253.508 43.9913 253.487 43.9943C253.466 43.9973 253.435 44 253.392 44V46C253.882 46 254.433 45.8768 254.855 45.4551C255.277 45.0334 255.4 44.4821 255.4 43.992H253.4ZM253.392 44C253.349 44 253.318 43.9973 253.297 43.9943C253.276 43.9913 253.267 43.9883 253.267 43.9883C253.268 43.9885 253.277 43.9917 253.292 44.0008C253.3 44.0052 253.308 44.0108 253.317 44.0177C253.326 44.0246 253.334 44.0323 253.343 44.0409C253.352 44.0494 253.359 44.0583 253.366 44.0671C253.373 44.076 253.379 44.0843 253.383 44.0918C253.392 44.1068 253.395 44.1163 253.396 44.1168C253.396 44.1169 253.393 44.1078 253.39 44.0868C253.387 44.0658 253.384 44.0347 253.384 43.992H251.384C251.384 44.4821 251.507 45.0334 251.929 45.4551C252.35 45.8768 252.902 46 253.392 46V44ZM253.384 43.992V41.16H251.384V43.992H253.384ZM251.517 40.6615C250.293 42.7895 247.889 44 243.888 44V46C248.271 46 251.53 44.6505 253.251 41.6585L251.517 40.6615ZM243.888 44H241.2V46H243.888V44ZM241.2 43.984H243.888V41.984H241.2V43.984ZM243.888 43.984C245.64 43.984 247.194 43.7843 248.533 43.3616L247.931 41.4544C246.837 41.7997 245.496 41.984 243.888 41.984V43.984ZM248.529 43.3627C249.909 42.9327 251.051 42.2319 251.899 41.2299L250.372 39.9381C249.812 40.6001 249.019 41.1153 247.934 41.4533L248.529 43.3627ZM251.892 41.2384C252.779 40.2129 253.255 38.9096 253.38 37.403L251.387 37.237C251.289 38.4184 250.932 39.2911 250.38 39.9296L251.892 41.2384ZM253.384 37.32V33.048H251.384V37.32H253.384ZM252.384 32.048H241.2V34.048H252.384V32.048ZM241.2 32.048C239.282 32.048 237.653 32.421 236.629 33.4449L238.043 34.8591C238.491 34.411 239.438 34.048 241.2 34.048V32.048ZM236.629 33.4449C235.616 34.4581 235.256 36.1039 235.256 38.04H237.256C237.256 36.2321 237.616 35.2859 238.043 34.8591L236.629 33.4449ZM235.256 38.04C235.256 39.9535 235.619 41.5792 236.621 42.6033L238.051 41.2047C237.612 40.7568 237.256 39.8065 237.256 38.04H235.256ZM236.637 42.6188C237.661 43.6206 239.286 43.984 241.2 43.984V41.984C239.433 41.984 238.483 41.6274 238.035 41.1892L236.637 42.6188ZM296.043 24.744L295.266 25.3746L295.27 25.3794L296.043 24.744ZM294.483 26.28L293.682 26.88L293.689 26.8884L294.483 26.28ZM284.139 26.28L283.425 25.5789L283.425 25.5789L284.139 26.28ZM279.603 26.28L278.802 26.88L278.809 26.8884L279.603 26.28ZM267.843 25.992H266.843V29.7234L268.708 26.4921L267.843 25.992ZM270.243 23.568L270.696 24.4594L270.702 24.4564L270.243 23.568ZM279.771 23.712L279.252 24.567L279.258 24.5707L279.771 23.712ZM282.147 26.64L281.23 27.0391L282.111 29.064L283.051 27.0658L282.147 26.64ZM284.691 23.712L284.201 22.8397L284.201 22.8397L284.691 23.712ZM290.835 23.824C293.112 23.824 294.493 24.4225 295.266 25.3746L296.819 24.1134C295.512 22.5055 293.421 21.824 290.835 21.824V23.824ZM295.27 25.3794C296.085 26.3696 296.603 28.1727 296.603 31.032H298.603C298.603 28.0353 298.08 25.6464 296.815 24.1086L295.27 25.3794ZM296.603 31.032V44.04H298.603V31.032H296.603ZM296.603 44.04C296.603 44.0827 296.6 44.1138 296.597 44.1348C296.594 44.1558 296.591 44.1649 296.591 44.1648C296.591 44.1643 296.594 44.1548 296.603 44.1398C296.608 44.1323 296.613 44.124 296.62 44.1151C296.627 44.1063 296.635 44.0974 296.643 44.0889C296.652 44.0803 296.661 44.0726 296.67 44.0657C296.678 44.0588 296.687 44.0532 296.694 44.0488C296.709 44.0397 296.719 44.0365 296.719 44.0363C296.719 44.0363 296.71 44.0393 296.689 44.0423C296.668 44.0453 296.637 44.048 296.595 44.048V46.048C297.085 46.048 297.636 45.9248 298.058 45.5031C298.479 45.0814 298.603 44.5301 298.603 44.04H296.603ZM296.595 44.048C296.552 44.048 296.521 44.0453 296.5 44.0423C296.479 44.0393 296.47 44.0363 296.47 44.0363C296.47 44.0365 296.48 44.0397 296.495 44.0488C296.502 44.0532 296.511 44.0588 296.519 44.0657C296.528 44.0726 296.537 44.0803 296.546 44.0889C296.554 44.0974 296.562 44.1063 296.569 44.1151C296.576 44.124 296.581 44.1323 296.586 44.1398C296.595 44.1548 296.598 44.1643 296.598 44.1648C296.598 44.1649 296.595 44.1558 296.592 44.1348C296.589 44.1138 296.587 44.0827 296.587 44.04H294.587C294.587 44.5301 294.71 45.0814 295.131 45.5031C295.553 45.9248 296.104 46.048 296.595 46.048V44.048ZM296.587 44.04V31.032H294.587V44.04H296.587ZM296.587 31.032C296.587 28.7631 296.218 26.9003 295.276 25.6716L293.689 26.8884C294.219 27.5797 294.587 28.8849 294.587 31.032H296.587ZM295.283 25.68C294.302 24.3729 292.719 23.84 290.835 23.84V25.84C292.374 25.84 293.223 26.2671 293.683 26.88L295.283 25.68ZM290.835 23.84H288.819V25.84H290.835V23.84ZM288.819 23.84C286.533 23.84 284.645 24.3383 283.425 25.5789L284.852 26.9811C285.52 26.3017 286.752 25.84 288.819 25.84V23.84ZM283.425 25.5789C282.21 26.8151 281.723 28.7211 281.723 31.032H283.723C283.723 28.9269 284.179 27.6649 284.852 26.9811L283.425 25.5789ZM281.723 31.032V44.04H283.723V31.032H281.723ZM281.723 44.04C281.723 44.0827 281.72 44.1138 281.717 44.1348C281.714 44.1558 281.711 44.1649 281.711 44.1648C281.711 44.1643 281.714 44.1548 281.723 44.1398C281.728 44.1323 281.733 44.124 281.74 44.1151C281.747 44.1063 281.755 44.0974 281.763 44.0889C281.772 44.0803 281.781 44.0726 281.79 44.0657C281.798 44.0588 281.807 44.0532 281.814 44.0488C281.829 44.0397 281.839 44.0365 281.839 44.0363C281.839 44.0363 281.83 44.0393 281.809 44.0423C281.788 44.0453 281.757 44.048 281.715 44.048V46.048C282.205 46.048 282.756 45.9248 283.178 45.5031C283.599 45.0814 283.723 44.5301 283.723 44.04H281.723ZM281.715 44.048C281.672 44.048 281.641 44.0453 281.62 44.0423C281.599 44.0393 281.59 44.0363 281.59 44.0363C281.59 44.0365 281.6 44.0397 281.615 44.0488C281.622 44.0532 281.631 44.0588 281.639 44.0657C281.648 44.0726 281.657 44.0803 281.666 44.0889C281.674 44.0974 281.682 44.1063 281.689 44.1151C281.696 44.124 281.701 44.1323 281.706 44.1398C281.715 44.1548 281.718 44.1643 281.718 44.1648C281.718 44.1649 281.715 44.1558 281.712 44.1348C281.709 44.1138 281.707 44.0827 281.707 44.04H279.707C279.707 44.5301 279.83 45.0814 280.251 45.5031C280.673 45.9248 281.224 46.048 281.715 46.048V44.048ZM281.707 44.04V31.032H279.707V44.04H281.707ZM281.707 31.032C281.707 28.7631 281.338 26.9003 280.396 25.6716L278.809 26.8884C279.339 27.5797 279.707 28.8849 279.707 31.032H281.707ZM280.403 25.68C279.422 24.3729 277.839 23.84 275.955 23.84V25.84C277.494 25.84 278.343 26.2671 278.803 26.88L280.403 25.68ZM275.955 23.84H273.939V25.84H275.955V23.84ZM273.939 23.84C271.653 23.84 269.765 24.3383 268.545 25.5789L269.972 26.9811C270.64 26.3017 271.872 25.84 273.939 25.84V23.84ZM268.545 25.5789C267.33 26.8151 266.843 28.7211 266.843 31.032H268.843C268.843 28.9269 269.299 27.6649 269.972 26.9811L268.545 25.5789ZM266.843 31.032V44.04H268.843V31.032H266.843ZM266.843 44.04C266.843 44.0827 266.84 44.1138 266.837 44.1348C266.834 44.1558 266.831 44.1649 266.831 44.1648C266.831 44.1643 266.834 44.1548 266.843 44.1398C266.848 44.1323 266.853 44.124 266.86 44.1151C266.867 44.1063 266.875 44.0974 266.883 44.0889C266.892 44.0803 266.901 44.0726 266.91 44.0657C266.918 44.0588 266.927 44.0532 266.934 44.0488C266.949 44.0397 266.959 44.0365 266.959 44.0363C266.959 44.0363 266.95 44.0393 266.929 44.0423C266.908 44.0453 266.877 44.048 266.835 44.048V46.048C267.325 46.048 267.876 45.9248 268.298 45.5031C268.719 45.0814 268.843 44.5301 268.843 44.04H266.843ZM266.835 44.048C266.792 44.048 266.761 44.0453 266.74 44.0423C266.719 44.0393 266.71 44.0363 266.71 44.0363C266.71 44.0365 266.72 44.0397 266.735 44.0488C266.742 44.0532 266.751 44.0588 266.759 44.0657C266.768 44.0726 266.777 44.0803 266.786 44.0889C266.794 44.0974 266.802 44.1063 266.809 44.1151C266.816 44.124 266.821 44.1323 266.826 44.1398C266.835 44.1548 266.838 44.1643 266.838 44.1648C266.838 44.1649 266.835 44.1558 266.832 44.1348C266.829 44.1138 266.827 44.0827 266.827 44.04H264.827C264.827 44.5301 264.95 45.0814 265.371 45.5031C265.793 45.9248 266.344 46.048 266.835 46.048V44.048ZM266.827 44.04V23.88H264.827V44.04H266.827ZM266.827 23.88C266.827 23.8373 266.829 23.8062 266.832 23.7852C266.835 23.7642 266.838 23.7551 266.838 23.7552C266.838 23.7557 266.835 23.7652 266.826 23.7802C266.821 23.7877 266.816 23.796 266.809 23.8049C266.802 23.8137 266.794 23.8226 266.786 23.8311C266.777 23.8397 266.768 23.8474 266.759 23.8543C266.751 23.8612 266.742 23.8668 266.735 23.8712C266.72 23.8803 266.71 23.8835 266.71 23.8837C266.71 23.8837 266.719 23.8807 266.74 23.8777C266.761 23.8747 266.792 23.872 266.835 23.872V21.872C266.344 21.872 265.793 21.9952 265.371 22.4169C264.95 22.8386 264.827 23.3899 264.827 23.88H266.827ZM266.835 23.872C266.877 23.872 266.908 23.8747 266.929 23.8777C266.95 23.8807 266.959 23.8837 266.959 23.8837C266.959 23.8835 266.949 23.8803 266.934 23.8712C266.927 23.8668 266.918 23.8612 266.91 23.8543C266.901 23.8474 266.892 23.8397 266.883 23.8311C266.875 23.8226 266.867 23.8137 266.86 23.8049C266.853 23.796 266.848 23.7877 266.843 23.7802C266.834 23.7652 266.831 23.7557 266.831 23.7552C266.831 23.7551 266.834 23.7642 266.837 23.7852C266.84 23.8062 266.843 23.8373 266.843 23.88H268.843C268.843 23.3899 268.719 22.8386 268.298 22.4169C267.876 21.9952 267.325 21.872 266.835 21.872V23.872ZM266.843 23.88V25.992H268.843V23.88H266.843ZM268.708 26.4921C269.291 25.4836 269.961 24.8328 270.696 24.4594L269.789 22.6766C268.636 23.2632 267.706 24.2284 266.977 25.4919L268.708 26.4921ZM270.702 24.4564C271.475 24.0568 272.535 23.824 273.939 23.824V21.824C272.334 21.824 270.93 22.0872 269.783 22.6796L270.702 24.4564ZM273.939 23.824H275.955V21.824H273.939V23.824ZM275.955 23.824C277.405 23.824 278.48 24.0989 279.252 24.567L280.289 22.857C279.109 22.1411 277.64 21.824 275.955 21.824V23.824ZM279.258 24.5707C280.025 25.0287 280.697 25.8163 281.23 27.0391L283.063 26.2409C282.412 24.7437 281.5 23.5793 280.283 22.8533L279.258 24.5707ZM283.051 27.0658C283.624 25.8482 284.345 25.0521 285.18 24.5843L284.201 22.8397C282.924 23.5559 281.949 24.7118 281.242 26.2142L283.051 27.0658ZM285.18 24.5843C286.038 24.1029 287.229 23.824 288.819 23.824V21.824C287.016 21.824 285.455 22.1371 284.201 22.8397L285.18 24.5843ZM288.819 23.824H290.835V21.824H288.819V23.824Z" fill="#BB86FC" mask="url(#path-1-outside-1_55_65)"/>
</g>
<defs>
<filter id="filter0_dd_55_65" x="0.840027" y="0.615997" width="312.762" height="71.984" filterUnits="userSpaceOnUse" color-interpolation-filters="sRGB">
<feFlood flood-opacity="0" result="BackgroundImageFix"/>
<feColorMatrix in="SourceAlpha" type="matrix" values="0 0 0 0 0 0 0 0 0 0 0 0 0 0 0 0 0 0 127 0" result="hardAlpha"/>
<feOffset dy="1"/>
<feGaussianBlur stdDeviation="1.5"/>
<feColorMatrix type="matrix" values="0 0 0 0 0 0 0 0 0 0 0 0 0 0 0 0 0 0 0.15 0"/>
<feBlend mode="normal" in2="BackgroundImageFix" result="effect1_dropShadow_55_65"/>
<feColorMatrix in="SourceAlpha" type="matrix" values="0 0 0 0 0 0 0 0 0 0 0 0 0 0 0 0 0 0 127 0" result="hardAlpha"/>
<feMorphology radius="1" operator="dilate" in="SourceAlpha" result="effect2_dropShadow_55_65"/>
<feOffset dy="2"/>
<feGaussianBlur stdDeviation="7.5"/>
<feColorMatrix type="matrix" values="0 0 0 0 0.75625 0 0 0 0 0.5575 0 0 0 0 1 0 0 0 0.61 0"/>
<feBlend mode="normal" in2="effect1_dropShadow_55_65" result="effect2_dropShadow_55_65"/>
<feBlend mode="normal" in="SourceGraphic" in2="effect2_dropShadow_55_65" result="shape"/>
</filter>
</defs>
</svg>
