<svg width="346" height="64" viewBox="0 0 346 64" fill="none" xmlns="http://www.w3.org/2000/svg">
<g filter="url(#filter0_dd_55_65)">
<mask id="path-1-outside-1_55_65" maskUnits="userSpaceOnUse" x="15" y="13" width="316" height="34" fill="black">
<rect fill="white" x="15" y="13" width="316" height="34"/>
<path d="M26.584 45C23.176 45 20.696 44.232 19.144 42.696C17.608 41.144 16.84 38.664 16.84 35.256V24.36C16.84 20.92 17.608 18.44 19.144 16.92C20.696 15.384 23.16 14.616 26.536 14.616H32.344C35.272 14.616 37.432 15.224 38.824 16.44C40.216 17.656 40.968 19.624 41.08 22.344C41.112 22.68 41.04 22.944 40.864 23.136C40.704 23.312 40.456 23.4 40.12 23.4C39.464 23.4 39.112 23.064 39.064 22.392C38.968 20.232 38.408 18.736 37.384 17.904C36.376 17.056 34.696 16.632 32.344 16.632H26.536C24.648 16.632 23.144 16.88 22.024 17.376C20.904 17.872 20.096 18.688 19.6 19.824C19.104 20.944 18.856 22.456 18.856 24.36V35.256C18.856 37.144 19.104 38.656 19.6 39.792C20.112 40.912 20.928 41.728 22.048 42.24C23.184 42.736 24.696 42.984 26.584 42.984H32.344C34.696 42.984 36.376 42.568 37.384 41.736C38.408 40.888 38.968 39.384 39.064 37.224C39.112 36.552 39.464 36.216 40.12 36.216C40.456 36.216 40.704 36.312 40.864 36.504C41.04 36.68 41.112 36.936 41.08 37.272C40.968 39.976 40.216 41.944 38.824 43.176C37.432 44.392 35.272 45 32.344 45H26.584ZM72.9171 45.048C72.6291 45.208 72.3651 45.264 72.1251 45.216C71.9011 45.168 71.7011 45.016 71.5251 44.76L63.5091 32.184H54.0051V43.992C54.0051 44.664 53.6691 45 52.9971 45C52.3251 45 51.9891 44.664 51.9891 43.992V15.624C51.9891 14.952 52.3251 14.616 52.9971 14.616H64.2291C66.9011 14.616 68.9091 15.296 70.2531 16.656C71.6131 18 72.2931 20.008 72.2931 22.68V24.12C72.2931 26.488 71.7491 28.344 70.6611 29.688C69.5891 31.016 67.9891 31.816 65.8611 32.088L73.2051 43.656C73.5891 44.248 73.4931 44.712 72.9171 45.048ZM54.0051 30.168H64.2291C66.3251 30.168 67.8531 29.68 68.8131 28.704C69.7891 27.728 70.2771 26.2 70.2771 24.12V22.68C70.2771 20.584 69.7891 19.056 68.8131 18.096C67.8531 17.12 66.3251 16.632 64.2291 16.632H54.0051V30.168ZM90.6659 45C89.9939 45 89.6579 44.664 89.6579 43.992V33L79.0019 16.2C78.6499 15.656 78.7619 15.192 79.3379 14.808C79.9139 14.44 80.3779 14.552 80.7299 15.144L90.6659 30.84L100.65 15.096C100.826 14.824 101.026 14.664 101.25 14.616C101.49 14.568 101.754 14.632 102.042 14.808C102.618 15.144 102.714 15.608 102.33 16.2L91.6739 33V43.992C91.6739 44.664 91.3379 45 90.6659 45ZM111.601 45C110.929 45 110.593 44.664 110.593 43.992V15.624C110.593 14.952 110.929 14.616 111.601 14.616H122.833C125.505 14.616 127.513 15.296 128.857 16.656C130.217 18 130.897 20.008 130.897 22.68V24.12C130.897 26.776 130.217 28.784 128.857 30.144C127.513 31.504 125.505 32.184 122.833 32.184H112.609V43.992C112.609 44.664 112.273 45 111.601 45ZM112.609 30.168H122.833C124.929 30.168 126.457 29.68 127.417 28.704C128.393 27.728 128.881 26.2 128.881 24.12V22.68C128.881 20.584 128.393 19.056 127.417 18.096C126.457 17.12 124.929 16.632 122.833 16.632H112.609V30.168ZM148.799 45.048C148.511 45.048 148.271 44.952 148.079 44.76C147.887 44.568 147.791 44.328 147.791 44.04V16.584H137.279C136.991 16.584 136.751 16.488 136.559 16.296C136.367 16.104 136.271 15.864 136.271 15.576C136.271 15.288 136.367 15.048 136.559 14.856C136.751 14.664 136.991 14.568 137.279 14.568H160.319C160.608 14.568 160.847 14.664 161.039 14.856C161.231 15.048 161.327 15.288 161.327 15.576C161.327 15.864 161.231 16.104 161.039 16.296C160.847 16.488 160.608 16.584 160.319 16.584H149.807V44.04C149.807 44.328 149.711 44.568 149.519 44.76C149.327 44.952 149.087 45.048 148.799 45.048ZM176.914 45C173.506 45 171.026 44.232 169.474 42.696C167.938 41.144 167.17 38.664 167.17 35.256V24.36C167.17 20.92 167.938 18.432 169.474 16.896C171.026 15.344 173.49 14.584 176.866 14.616H182.674C186.082 14.616 188.554 15.392 190.09 16.944C191.642 18.48 192.418 20.952 192.418 24.36V35.256C192.418 38.664 191.642 41.144 190.09 42.696C188.554 44.232 186.082 45 182.674 45H176.914ZM176.914 42.984H182.674C184.562 42.984 186.066 42.736 187.186 42.24C188.322 41.728 189.138 40.912 189.634 39.792C190.146 38.656 190.402 37.144 190.402 35.256V24.36C190.402 22.472 190.146 20.968 189.634 19.848C189.138 18.712 188.322 17.896 187.186 17.4C186.066 16.888 184.562 16.632 182.674 16.632H176.866C174.978 16.616 173.474 16.856 172.354 17.352C171.234 17.848 170.426 18.664 169.93 19.8C169.434 20.936 169.186 22.456 169.186 24.36V35.256C169.186 37.144 169.434 38.656 169.93 39.792C170.442 40.912 171.258 41.728 172.378 42.24C173.514 42.736 175.026 42.984 176.914 42.984ZM213.036 45C209.628 45 207.148 44.232 205.596 42.696C204.06 41.144 203.292 38.664 203.292 35.256V24.36C203.292 20.92 204.06 18.44 205.596 16.92C207.148 15.384 209.612 14.616 212.988 14.616H218.796C221.724 14.616 223.884 15.224 225.276 16.44C226.668 17.656 227.42 19.624 227.532 22.344C227.564 22.68 227.492 22.944 227.316 23.136C227.156 23.312 226.908 23.4 226.572 23.4C225.916 23.4 225.564 23.064 225.516 22.392C225.42 20.232 224.86 18.736 223.836 17.904C222.828 17.056 221.148 16.632 218.796 16.632H212.988C211.1 16.632 209.596 16.88 208.476 17.376C207.356 17.872 206.548 18.688 206.052 19.824C205.556 20.944 205.308 22.456 205.308 24.36V35.256C205.308 37.144 205.556 38.656 206.052 39.792C206.564 40.912 207.38 41.728 208.5 42.24C209.636 42.736 211.148 42.984 213.036 42.984H218.796C220.492 42.984 221.828 42.776 222.804 42.36C223.796 41.928 224.5 41.224 224.916 40.248C225.348 39.256 225.564 37.912 225.564 36.216V32.952L219.804 32.904C219.132 32.904 218.796 32.568 218.796 31.896C218.796 31.224 219.132 30.888 219.804 30.888L226.572 30.936C227.244 30.936 227.58 31.272 227.58 31.944V36.216C227.58 39.304 226.892 41.544 225.516 42.936C224.14 44.312 221.9 45 218.796 45H213.036ZM259.416 45.048C259.128 45.208 258.864 45.264 258.624 45.216C258.4 45.168 258.2 45.016 258.024 44.76L250.008 32.184H240.504V43.992C240.504 44.664 240.168 45 239.496 45C238.824 45 238.488 44.664 238.488 43.992V15.624C238.488 14.952 238.824 14.616 239.496 14.616H250.728C253.4 14.616 255.408 15.296 256.752 16.656C258.112 18 258.792 20.008 258.792 22.68V24.12C258.792 26.488 258.248 28.344 257.16 29.688C256.088 31.016 254.488 31.816 252.36 32.088L259.704 43.656C260.088 44.248 259.992 44.712 259.416 45.048ZM240.504 30.168H250.728C252.824 30.168 254.352 29.68 255.312 28.704C256.288 27.728 256.776 26.2 256.776 24.12V22.68C256.776 20.584 256.288 19.056 255.312 18.096C254.352 17.12 252.824 16.632 250.728 16.632H240.504V30.168ZM266.906 44.904C266.314 44.616 266.138 44.168 266.378 43.56L278.426 15.384C278.618 14.872 279.002 14.616 279.578 14.616H279.722C280.25 14.616 280.634 14.872 280.874 15.384L292.874 43.56C293.146 44.168 292.97 44.616 292.346 44.904C291.738 45.16 291.306 44.984 291.05 44.376L287.666 36.408H271.682L268.25 44.376C267.994 44.984 267.546 45.16 266.906 44.904ZM272.546 34.392H286.802L279.722 17.784L272.546 34.392ZM302.506 45C301.834 45 301.498 44.664 301.498 43.992V15.624C301.498 14.952 301.834 14.616 302.506 14.616C303.034 14.616 303.434 14.84 303.706 15.288L315.85 33.96L315.37 34.008L327.514 15.288C327.786 14.84 328.186 14.616 328.714 14.616C329.354 14.616 329.674 14.952 329.674 15.624V43.992C329.674 44.664 329.338 45 328.666 45C327.994 45 327.658 44.664 327.658 43.992V17.64L328.234 17.832L316.81 35.4C316.538 35.848 316.138 36.072 315.61 36.072C315.082 36.072 314.682 35.848 314.41 35.4L302.986 17.832L303.514 18.072V43.992C303.514 44.664 303.178 45 302.506 45Z"/>
</mask>
<path d="M26.584 45C23.176 45 20.696 44.232 19.144 42.696C17.608 41.144 16.84 38.664 16.84 35.256V24.36C16.84 20.92 17.608 18.44 19.144 16.92C20.696 15.384 23.16 14.616 26.536 14.616H32.344C35.272 14.616 37.432 15.224 38.824 16.44C40.216 17.656 40.968 19.624 41.08 22.344C41.112 22.68 41.04 22.944 40.864 23.136C40.704 23.312 40.456 23.4 40.12 23.4C39.464 23.4 39.112 23.064 39.064 22.392C38.968 20.232 38.408 18.736 37.384 17.904C36.376 17.056 34.696 16.632 32.344 16.632H26.536C24.648 16.632 23.144 16.88 22.024 17.376C20.904 17.872 20.096 18.688 19.6 19.824C19.104 20.944 18.856 22.456 18.856 24.36V35.256C18.856 37.144 19.104 38.656 19.6 39.792C20.112 40.912 20.928 41.728 22.048 42.24C23.184 42.736 24.696 42.984 26.584 42.984H32.344C34.696 42.984 36.376 42.568 37.384 41.736C38.408 40.888 38.968 39.384 39.064 37.224C39.112 36.552 39.464 36.216 40.12 36.216C40.456 36.216 40.704 36.312 40.864 36.504C41.04 36.68 41.112 36.936 41.08 37.272C40.968 39.976 40.216 41.944 38.824 43.176C37.432 44.392 35.272 45 32.344 45H26.584ZM72.9171 45.048C72.6291 45.208 72.3651 45.264 72.1251 45.216C71.9011 45.168 71.7011 45.016 71.5251 44.76L63.5091 32.184H54.0051V43.992C54.0051 44.664 53.6691 45 52.9971 45C52.3251 45 51.9891 44.664 51.9891 43.992V15.624C51.9891 14.952 52.3251 14.616 52.9971 14.616H64.2291C66.9011 14.616 68.9091 15.296 70.2531 16.656C71.6131 18 72.2931 20.008 72.2931 22.68V24.12C72.2931 26.488 71.7491 28.344 70.6611 29.688C69.5891 31.016 67.9891 31.816 65.8611 32.088L73.2051 43.656C73.5891 44.248 73.4931 44.712 72.9171 45.048ZM54.0051 30.168H64.2291C66.3251 30.168 67.8531 29.68 68.8131 28.704C69.7891 27.728 70.2771 26.2 70.2771 24.12V22.68C70.2771 20.584 69.7891 19.056 68.8131 18.096C67.8531 17.12 66.3251 16.632 64.2291 16.632H54.0051V30.168ZM90.6659 45C89.9939 45 89.6579 44.664 89.6579 43.992V33L79.0019 16.2C78.6499 15.656 78.7619 15.192 79.3379 14.808C79.9139 14.44 80.3779 14.552 80.7299 15.144L90.6659 30.84L100.65 15.096C100.826 14.824 101.026 14.664 101.25 14.616C101.49 14.568 101.754 14.632 102.042 14.808C102.618 15.144 102.714 15.608 102.33 16.2L91.6739 33V43.992C91.6739 44.664 91.3379 45 90.6659 45ZM111.601 45C110.929 45 110.593 44.664 110.593 43.992V15.624C110.593 14.952 110.929 14.616 111.601 14.616H122.833C125.505 14.616 127.513 15.296 128.857 16.656C130.217 18 130.897 20.008 130.897 22.68V24.12C130.897 26.776 130.217 28.784 128.857 30.144C127.513 31.504 125.505 32.184 122.833 32.184H112.609V43.992C112.609 44.664 112.273 45 111.601 45ZM112.609 30.168H122.833C124.929 30.168 126.457 29.68 127.417 28.704C128.393 27.728 128.881 26.2 128.881 24.12V22.68C128.881 20.584 128.393 19.056 127.417 18.096C126.457 17.12 124.929 16.632 122.833 16.632H112.609V30.168ZM148.799 45.048C148.511 45.048 148.271 44.952 148.079 44.76C147.887 44.568 147.791 44.328 147.791 44.04V16.584H137.279C136.991 16.584 136.751 16.488 136.559 16.296C136.367 16.104 136.271 15.864 136.271 15.576C136.271 15.288 136.367 15.048 136.559 14.856C136.751 14.664 136.991 14.568 137.279 14.568H160.319C160.608 14.568 160.847 14.664 161.039 14.856C161.231 15.048 161.327 15.288 161.327 15.576C161.327 15.864 161.231 16.104 161.039 16.296C160.847 16.488 160.608 16.584 160.319 16.584H149.807V44.04C149.807 44.328 149.711 44.568 149.519 44.76C149.327 44.952 149.087 45.048 148.799 45.048ZM176.914 45C173.506 45 171.026 44.232 169.474 42.696C167.938 41.144 167.17 38.664 167.17 35.256V24.36C167.17 20.92 167.938 18.432 169.474 16.896C171.026 15.344 173.49 14.584 176.866 14.616H182.674C186.082 14.616 188.554 15.392 190.09 16.944C191.642 18.48 192.418 20.952 192.418 24.36V35.256C192.418 38.664 191.642 41.144 190.09 42.696C188.554 44.232 186.082 45 182.674 45H176.914ZM176.914 42.984H182.674C184.562 42.984 186.066 42.736 187.186 42.24C188.322 41.728 189.138 40.912 189.634 39.792C190.146 38.656 190.402 37.144 190.402 35.256V24.36C190.402 22.472 190.146 20.968 189.634 19.848C189.138 18.712 188.322 17.896 187.186 17.4C186.066 16.888 184.562 16.632 182.674 16.632H176.866C174.978 16.616 173.474 16.856 172.354 17.352C171.234 17.848 170.426 18.664 169.93 19.8C169.434 20.936 169.186 22.456 169.186 24.36V35.256C169.186 37.144 169.434 38.656 169.93 39.792C170.442 40.912 171.258 41.728 172.378 42.24C173.514 42.736 175.026 42.984 176.914 42.984ZM213.036 45C209.628 45 207.148 44.232 205.596 42.696C204.06 41.144 203.292 38.664 203.292 35.256V24.36C203.292 20.92 204.06 18.44 205.596 16.92C207.148 15.384 209.612 14.616 212.988 14.616H218.796C221.724 14.616 223.884 15.224 225.276 16.44C226.668 17.656 227.42 19.624 227.532 22.344C227.564 22.68 227.492 22.944 227.316 23.136C227.156 23.312 226.908 23.4 226.572 23.4C225.916 23.4 225.564 23.064 225.516 22.392C225.42 20.232 224.86 18.736 223.836 17.904C222.828 17.056 221.148 16.632 218.796 16.632H212.988C211.1 16.632 209.596 16.88 208.476 17.376C207.356 17.872 206.548 18.688 206.052 19.824C205.556 20.944 205.308 22.456 205.308 24.36V35.256C205.308 37.144 205.556 38.656 206.052 39.792C206.564 40.912 207.38 41.728 208.5 42.24C209.636 42.736 211.148 42.984 213.036 42.984H218.796C220.492 42.984 221.828 42.776 222.804 42.36C223.796 41.928 224.5 41.224 224.916 40.248C225.348 39.256 225.564 37.912 225.564 36.216V32.952L219.804 32.904C219.132 32.904 218.796 32.568 218.796 31.896C218.796 31.224 219.132 30.888 219.804 30.888L226.572 30.936C227.244 30.936 227.58 31.272 227.58 31.944V36.216C227.58 39.304 226.892 41.544 225.516 42.936C224.14 44.312 221.9 45 218.796 45H213.036ZM259.416 45.048C259.128 45.208 258.864 45.264 258.624 45.216C258.4 45.168 258.2 45.016 258.024 44.76L250.008 32.184H240.504V43.992C240.504 44.664 240.168 45 239.496 45C238.824 45 238.488 44.664 238.488 43.992V15.624C238.488 14.952 238.824 14.616 239.496 14.616H250.728C253.4 14.616 255.408 15.296 256.752 16.656C258.112 18 258.792 20.008 258.792 22.68V24.12C258.792 26.488 258.248 28.344 257.16 29.688C256.088 31.016 254.488 31.816 252.36 32.088L259.704 43.656C260.088 44.248 259.992 44.712 259.416 45.048ZM240.504 30.168H250.728C252.824 30.168 254.352 29.68 255.312 28.704C256.288 27.728 256.776 26.2 256.776 24.12V22.68C256.776 20.584 256.288 19.056 255.312 18.096C254.352 17.12 252.824 16.632 250.728 16.632H240.504V30.168ZM266.906 44.904C266.314 44.616 266.138 44.168 266.378 43.56L278.426 15.384C278.618 14.872 279.002 14.616 279.578 14.616H279.722C280.25 14.616 280.634 14.872 280.874 15.384L292.874 43.56C293.146 44.168 292.97 44.616 292.346 44.904C291.738 45.16 291.306 44.984 291.05 44.376L287.666 36.408H271.682L268.25 44.376C267.994 44.984 267.546 45.16 266.906 44.904ZM272.546 34.392H286.802L279.722 17.784L272.546 34.392ZM302.506 45C301.834 45 301.498 44.664 301.498 43.992V15.624C301.498 14.952 301.834 14.616 302.506 14.616C303.034 14.616 303.434 14.84 303.706 15.288L315.85 33.96L315.37 34.008L327.514 15.288C327.786 14.84 328.186 14.616 328.714 14.616C329.354 14.616 329.674 14.952 329.674 15.624V43.992C329.674 44.664 329.338 45 328.666 45C327.994 45 327.658 44.664 327.658 43.992V17.64L328.234 17.832L316.81 35.4C316.538 35.848 316.138 36.072 315.61 36.072C315.082 36.072 314.682 35.848 314.41 35.4L302.986 17.832L303.514 18.072V43.992C303.514 44.664 303.178 45 302.506 45Z" fill="#E1D2F3"/>
<path d="M19.144 42.696L18.4332 43.3995L18.4406 43.4068L19.144 42.696ZM19.144 16.92L19.8474 17.6308L19.8474 17.6308L19.144 16.92ZM38.824 16.44L39.4819 15.6869L39.4819 15.6869L38.824 16.44ZM41.08 22.344L40.0808 22.3851L40.082 22.412L40.0845 22.4388L41.08 22.344ZM40.864 23.136L40.1268 22.4603L40.1241 22.4633L40.864 23.136ZM39.064 22.392L38.065 22.4364L38.0656 22.4498L38.0665 22.4632L39.064 22.392ZM37.384 17.904L36.7402 18.6692L36.7468 18.6747L36.7534 18.6801L37.384 17.904ZM19.6 19.824L20.5144 20.2289L20.5165 20.2241L19.6 19.824ZM19.6 39.792L18.6835 40.1921L18.687 40.2L18.6905 40.2078L19.6 39.792ZM22.048 42.24L21.6322 43.1495L21.64 43.153L21.6479 43.1565L22.048 42.24ZM37.384 41.736L38.0206 42.5072L38.0218 42.5062L37.384 41.736ZM39.064 37.224L38.0665 37.1528L38.0656 37.1662L38.065 37.1796L39.064 37.224ZM40.864 36.504L40.0958 37.1442L40.1248 37.179L40.1569 37.2111L40.864 36.504ZM41.08 37.272L40.0845 37.1772L40.082 37.2039L40.0809 37.2306L41.08 37.272ZM38.824 43.176L39.4819 43.9291L39.4868 43.9248L38.824 43.176ZM26.584 44C23.296 44 21.1304 43.2549 19.8474 41.9852L18.4406 43.4068C20.2616 45.2091 23.056 46 26.584 46V44ZM19.8548 41.9926C18.5851 40.7096 17.84 38.544 17.84 35.256H15.84C15.84 38.784 16.6309 41.5784 18.4332 43.3994L19.8548 41.9926ZM17.84 35.256V24.36H15.84V35.256H17.84ZM17.84 24.36C17.84 21.0344 18.5875 18.8775 19.8474 17.6308L18.4406 16.2092C16.6285 18.0024 15.84 20.8056 15.84 24.36H17.84ZM19.8474 17.6308C21.1318 16.3596 23.2832 15.616 26.536 15.616V13.616C23.0368 13.616 20.2602 14.4084 18.4406 16.2092L19.8474 17.6308ZM26.536 15.616H32.344V13.616H26.536V15.616ZM32.344 15.616C35.164 15.616 37.0367 16.2065 38.1661 17.1931L39.4819 15.6869C37.8273 14.2415 35.38 13.616 32.344 13.616V15.616ZM38.1661 17.1931C39.2706 18.1579 39.9748 19.8092 40.0808 22.3851L42.0792 22.3029C41.9612 19.4388 41.1614 17.1541 39.4819 15.6869L38.1661 17.1931ZM40.0845 22.4388C40.0916 22.5137 40.083 22.539 40.0852 22.5309C40.0865 22.5263 40.0901 22.5153 40.098 22.5007C40.106 22.486 40.1161 22.472 40.1268 22.4603L41.6012 23.8117C42.0212 23.3534 42.1259 22.7786 42.0755 22.2492L40.0845 22.4388ZM40.1241 22.4633C40.1434 22.4421 40.1643 22.4248 40.1842 22.4119C40.2038 22.3993 40.2182 22.3935 40.2236 22.3916C40.2285 22.3898 40.2239 22.392 40.2065 22.3947C40.189 22.3973 40.1608 22.4 40.12 22.4V24.4C40.6184 24.4 41.1868 24.2676 41.6039 23.8087L40.1241 22.4633ZM40.12 22.4C40.0392 22.4 40.0046 22.3894 40.0012 22.3883C40.0002 22.388 40.0066 22.39 40.0176 22.3965C40.0289 22.4032 40.0418 22.4126 40.0545 22.4246C40.0821 22.451 40.0894 22.4715 40.0865 22.4642C40.0821 22.4531 40.0679 22.4103 40.0615 22.3208L38.0665 22.4632C38.1014 22.9514 38.2586 23.4753 38.6735 23.8714C39.0926 24.2714 39.6263 24.4 40.12 24.4V22.4ZM40.063 22.3476C39.9622 20.0791 39.368 18.2276 38.0146 17.1279L36.7534 18.6801C37.448 19.2444 37.9738 20.3849 38.065 22.4364L40.063 22.3476ZM38.0278 17.1388C36.744 16.0588 34.7659 15.632 32.344 15.632V17.632C34.6261 17.632 36.008 18.0532 36.7402 18.6692L38.0278 17.1388ZM32.344 15.632H26.536V17.632H32.344V15.632ZM26.536 15.632C24.5764 15.632 22.9167 15.887 21.6191 16.4617L22.4289 18.2903C23.3713 17.873 24.7196 17.632 26.536 17.632V15.632ZM21.6191 16.4617C20.2672 17.0603 19.2784 18.0615 18.6835 19.4239L20.5165 20.2241C20.9136 19.3145 21.5408 18.6837 22.4289 18.2903L21.6191 16.4617ZM18.6857 19.4191C18.1106 20.7175 17.856 22.3858 17.856 24.36H19.856C19.856 22.5262 20.0974 21.1705 20.5143 20.2289L18.6857 19.4191ZM17.856 24.36V35.256H19.856V24.36H17.856ZM17.856 35.256C17.856 37.2167 18.1113 38.8815 18.6835 40.1921L20.5165 39.3919C20.0967 38.4305 19.856 37.0713 19.856 35.256H17.856ZM18.6905 40.2078C19.3024 41.5463 20.2937 42.5376 21.6322 43.1495L22.4638 41.3305C21.5623 40.9184 20.9216 40.2777 20.5095 39.3762L18.6905 40.2078ZM21.6479 43.1565C22.9585 43.7287 24.6233 43.984 26.584 43.984V41.984C24.7687 41.984 23.4095 41.7433 22.4481 41.3235L21.6479 43.1565ZM26.584 43.984H32.344V41.984H26.584V43.984ZM32.344 43.984C34.7631 43.984 36.7377 43.5661 38.0206 42.5072L36.7474 40.9648C36.0143 41.5699 34.6289 41.984 32.344 41.984V43.984ZM38.0218 42.5062C39.3674 41.3919 39.9621 39.5391 40.063 37.2684L38.065 37.1796C37.9739 39.2289 37.4487 40.3841 36.7462 40.9658L38.0218 42.5062ZM40.0615 37.2952C40.0679 37.2057 40.0821 37.1629 40.0865 37.1518C40.0894 37.1445 40.0821 37.165 40.0545 37.1914C40.0418 37.2034 40.0289 37.2128 40.0176 37.2195C40.0066 37.226 40.0002 37.228 40.0012 37.2277C40.0046 37.2266 40.0392 37.216 40.12 37.216V35.216C39.6263 35.216 39.0926 35.3446 38.6735 35.7446C38.2586 36.1407 38.1014 36.6646 38.0665 37.1528L40.0615 37.2952ZM40.12 37.216C40.1957 37.216 40.214 37.2272 40.197 37.2206C40.1876 37.2169 40.1709 37.2091 40.1508 37.195C40.1305 37.1806 40.1116 37.1632 40.0958 37.1442L41.6322 35.8638C41.2223 35.3719 40.6443 35.216 40.12 35.216V37.216ZM40.1569 37.2111C40.1385 37.1927 40.1221 37.1713 40.1092 37.1489C40.0965 37.1267 40.0902 37.1088 40.0874 37.0987C40.0823 37.0808 40.0918 37.1004 40.0845 37.1772L42.0755 37.3668C42.1251 36.8459 42.0264 36.2522 41.5711 35.7969L40.1569 37.2111ZM40.0809 37.2306C39.975 39.7875 39.272 41.4441 38.1612 42.4272L39.4868 43.9248C41.16 42.4439 41.9611 40.1645 42.0791 37.3134L40.0809 37.2306ZM38.1661 42.4229C37.0367 43.4095 35.164 44 32.344 44V46C35.38 46 37.8273 45.3745 39.4819 43.9291L38.1661 42.4229ZM32.344 44H26.584V46H32.344V44ZM72.9171 45.048L73.4028 45.9222L73.4119 45.9171L73.421 45.9118L72.9171 45.048ZM72.1251 45.216L71.9156 46.1939L71.929 46.1966L72.1251 45.216ZM71.5251 44.76L70.6819 45.2975L70.6912 45.3122L70.7011 45.3265L71.5251 44.76ZM63.5091 32.184L64.3524 31.6465L64.0576 31.184H63.5091V32.184ZM54.0051 32.184V31.184H53.0051V32.184H54.0051ZM70.2531 16.656L69.5418 17.359L69.5502 17.3673L70.2531 16.656ZM70.6611 29.688L69.8839 29.0588L69.883 29.0599L70.6611 29.688ZM65.8611 32.088L65.7343 31.0961L64.1735 31.2956L65.0169 32.624L65.8611 32.088ZM73.2051 43.656L72.3608 44.192L72.3662 44.2002L73.2051 43.656ZM54.0051 30.168H53.0051V31.168H54.0051V30.168ZM68.8131 28.704L68.106 27.9969L68.1002 28.0028L68.8131 28.704ZM68.8131 18.096L68.1002 18.7972L68.106 18.8031L68.1119 18.8089L68.8131 18.096ZM54.0051 16.632V15.632H53.0051V16.632H54.0051ZM72.4315 44.1738C72.356 44.2158 72.3115 44.2284 72.2956 44.2318C72.2829 44.2345 72.2948 44.2301 72.3212 44.2354L71.929 46.1966C72.4716 46.3051 72.9795 46.1573 73.4028 45.9222L72.4315 44.1738ZM72.3347 44.2382C72.3553 44.2426 72.3735 44.2491 72.3882 44.2561C72.4027 44.2629 72.4106 44.2686 72.4122 44.2698C72.4143 44.2714 72.3906 44.2537 72.3492 44.1935L70.7011 45.3265C70.9694 45.7167 71.3639 46.0756 71.9156 46.1938L72.3347 44.2382ZM72.3684 44.2225L64.3524 31.6465L62.6659 32.7215L70.6819 45.2975L72.3684 44.2225ZM63.5091 31.184H54.0051V33.184H63.5091V31.184ZM53.0051 32.184V43.992H55.0051V32.184H53.0051ZM53.0051 43.992C53.0051 44.0347 53.0024 44.0658 52.9994 44.0868C52.9964 44.1078 52.9934 44.1169 52.9934 44.1168C52.9936 44.1163 52.9968 44.1068 53.0059 44.0918C53.0104 44.0843 53.016 44.076 53.0228 44.0671C53.0297 44.0583 53.0375 44.0494 53.046 44.0409C53.0546 44.0323 53.0634 44.0246 53.0722 44.0177C53.0811 44.0108 53.0894 44.0052 53.0969 44.0008C53.112 43.9917 53.1215 43.9885 53.1219 43.9883C53.122 43.9883 53.1129 43.9913 53.092 43.9943C53.0709 43.9973 53.0398 44 52.9971 44V46C53.4873 46 54.0386 45.8768 54.4602 45.4551C54.8819 45.0334 55.0051 44.4821 55.0051 43.992H53.0051ZM52.9971 44C52.9544 44 52.9233 43.9973 52.9023 43.9943C52.8813 43.9913 52.8722 43.9883 52.8724 43.9883C52.8728 43.9885 52.8823 43.9917 52.8974 44.0008C52.9048 44.0052 52.9132 44.0108 52.922 44.0177C52.9309 44.0246 52.9397 44.0323 52.9482 44.0409C52.9568 44.0494 52.9645 44.0583 52.9714 44.0671C52.9783 44.076 52.9839 44.0843 52.9884 44.0918C52.9974 44.1068 53.0007 44.1163 53.0008 44.1168C53.0008 44.1169 52.9978 44.1078 52.9948 44.0868C52.9918 44.0658 52.9891 44.0347 52.9891 43.992H50.9891C50.9891 44.4821 51.1123 45.0334 51.534 45.4551C51.9557 45.8768 52.507 46 52.9971 46V44ZM52.9891 43.992V15.624H50.9891V43.992H52.9891ZM52.9891 15.624C52.9891 15.5813 52.9918 15.5502 52.9948 15.5292C52.9978 15.5082 53.0008 15.4991 53.0008 15.4992C53.0007 15.4997 52.9974 15.5092 52.9884 15.5242C52.9839 15.5317 52.9783 15.54 52.9714 15.5489C52.9645 15.5577 52.9568 15.5666 52.9482 15.5751C52.9397 15.5837 52.9309 15.5914 52.922 15.5983C52.9132 15.6052 52.9048 15.6108 52.8974 15.6152C52.8823 15.6243 52.8728 15.6275 52.8724 15.6277C52.8722 15.6277 52.8813 15.6247 52.9023 15.6217C52.9233 15.6187 52.9544 15.616 52.9971 15.616V13.616C52.507 13.616 51.9557 13.7392 51.534 14.1609C51.1123 14.5826 50.9891 15.1339 50.9891 15.624H52.9891ZM52.9971 15.616H64.2291V13.616H52.9971V15.616ZM64.2291 15.616C66.7419 15.616 68.4501 16.2541 69.5418 17.3589L70.9644 15.9531C69.3682 14.3379 67.0603 13.616 64.2291 13.616V15.616ZM69.5502 17.3673C70.655 18.4591 71.2931 20.1672 71.2931 22.68H73.2931C73.2931 19.8488 72.5713 17.5409 70.956 15.9447L69.5502 17.3673ZM71.2931 22.68V24.12H73.2931V22.68H71.2931ZM71.2931 24.12C71.2931 26.343 70.7825 27.9487 69.8839 29.0588L71.4384 30.3172C72.7157 28.7393 73.2931 26.633 73.2931 24.12H71.2931ZM69.883 29.0599C69.012 30.1389 67.6753 30.848 65.7343 31.0961L65.9879 33.0799C68.3029 32.784 70.1663 31.8931 71.4392 30.3161L69.883 29.0599ZM65.0169 32.624L72.3609 44.192L74.0494 43.12L66.7054 31.552L65.0169 32.624ZM72.3662 44.2002C72.393 44.2416 72.4107 44.2743 72.4221 44.2984C72.4335 44.3226 72.4375 44.3359 72.4384 44.3391C72.4392 44.342 72.4366 44.3339 72.4358 44.3163C72.4349 44.2982 72.436 44.2738 72.4419 44.2454C72.4478 44.2169 72.4572 44.1908 72.4682 44.1688C72.479 44.1472 72.4891 44.134 72.4934 44.1288C72.4975 44.1239 72.4954 44.1275 72.4826 44.1378C72.4697 44.1482 72.4476 44.1642 72.4133 44.1842L73.421 45.9118C73.8512 45.6608 74.2745 45.2589 74.4004 44.6506C74.5229 44.0585 74.31 43.5217 74.0441 43.1118L72.3662 44.2002ZM54.0051 31.168H64.2291V29.168H54.0051V31.168ZM64.2291 31.168C66.4533 31.168 68.2986 30.6532 69.5261 29.4052L68.1002 28.0028C67.4077 28.7068 66.1969 29.168 64.2291 29.168V31.168ZM69.5202 29.4111C70.7604 28.171 71.2771 26.3326 71.2771 24.12H69.2771C69.2771 26.0674 68.8179 27.285 68.106 27.9969L69.5202 29.4111ZM71.2771 24.12V22.68H69.2771V24.12H71.2771ZM71.2771 22.68C71.2771 20.4558 70.7623 18.6106 69.5144 17.3831L68.1119 18.8089C68.8159 19.5014 69.2771 20.7122 69.2771 22.68H71.2771ZM69.5261 17.3948C68.2986 16.1468 66.4533 15.632 64.2291 15.632V17.632C66.1969 17.632 67.4077 18.0932 68.1002 18.7972L69.5261 17.3948ZM64.2291 15.632H54.0051V17.632H64.2291V15.632ZM53.0051 16.632V30.168H55.0051V16.632H53.0051ZM89.6579 33H90.6579V32.7096L90.5023 32.4644L89.6579 33ZM79.0019 16.2L79.8464 15.6644L79.8414 15.6567L79.0019 16.2ZM79.3379 14.808L78.7995 13.9653L78.7913 13.9705L78.7832 13.9759L79.3379 14.808ZM80.7299 15.144L79.8703 15.6551L79.8775 15.6671L79.8849 15.6789L80.7299 15.144ZM90.6659 30.84L89.8209 31.3749L90.6651 32.7084L91.5104 31.3755L90.6659 30.84ZM100.65 15.096L99.8103 14.5527L99.8054 14.5605L100.65 15.096ZM101.25 14.616L101.054 13.6353L101.04 13.6382L101.25 14.616ZM102.042 14.808L101.52 15.6613L101.529 15.6666L101.538 15.6718L102.042 14.808ZM102.33 16.2L101.491 15.6558L101.485 15.6644L102.33 16.2ZM91.6739 33L90.8294 32.4644L90.6739 32.7096V33H91.6739ZM90.6659 44C90.6232 44 90.5921 43.9973 90.571 43.9943C90.5501 43.9913 90.541 43.9883 90.5411 43.9883C90.5415 43.9885 90.551 43.9917 90.5661 44.0008C90.5736 44.0052 90.5819 44.0108 90.5908 44.0177C90.5996 44.0246 90.6084 44.0323 90.617 44.0409C90.6255 44.0494 90.6333 44.0583 90.6402 44.0671C90.647 44.076 90.6526 44.0843 90.6571 44.0918C90.6662 44.1068 90.6694 44.1163 90.6696 44.1168C90.6696 44.1169 90.6666 44.1078 90.6636 44.0868C90.6606 44.0658 90.6579 44.0347 90.6579 43.992H88.6579C88.6579 44.4821 88.7811 45.0334 89.2028 45.4551C89.6244 45.8768 90.1757 46 90.6659 46V44ZM90.6579 43.992V33H88.6579V43.992H90.6579ZM90.5023 32.4644L79.8463 15.6644L78.1574 16.7356L88.8134 33.5356L90.5023 32.4644ZM79.8414 15.6567C79.8004 15.5933 79.7957 15.5669 79.7977 15.5754C79.7989 15.5805 79.8014 15.5937 79.8016 15.6135C79.8018 15.6336 79.7994 15.656 79.794 15.6786C79.7885 15.7011 79.7813 15.7187 79.7752 15.7306C79.7693 15.742 79.766 15.7453 79.7694 15.741C79.7731 15.7366 79.7833 15.7249 79.8035 15.7071C79.8238 15.6893 79.8527 15.6666 79.8926 15.6401L78.7832 13.9759C78.3791 14.2453 77.9867 14.6421 77.8498 15.2094C77.709 15.7926 77.8925 16.3262 78.1623 16.7432L79.8414 15.6567ZM79.8763 15.6507C79.9133 15.6271 79.9414 15.6124 79.9609 15.6035C79.9803 15.5948 79.9891 15.5927 79.9879 15.593C79.9863 15.5934 79.9748 15.596 79.9549 15.5964C79.9451 15.5965 79.9338 15.5961 79.9214 15.5948C79.909 15.5934 79.8962 15.5912 79.8832 15.5881C79.8703 15.585 79.858 15.5811 79.8465 15.5767C79.8351 15.5723 79.8252 15.5677 79.8169 15.5633C79.8001 15.5544 79.7919 15.5474 79.7916 15.5472C79.7916 15.5471 79.7935 15.5488 79.7973 15.5528C79.8011 15.5567 79.8067 15.5629 79.8137 15.5716C79.8279 15.5893 79.8472 15.6162 79.8703 15.6551L81.5894 14.6329C81.3371 14.2086 80.9438 13.7866 80.3525 13.6439C79.7591 13.5007 79.2165 13.6989 78.7995 13.9653L79.8763 15.6507ZM79.8849 15.6789L89.8209 31.3749L91.5108 30.3051L81.5748 14.6091L79.8849 15.6789ZM91.5104 31.3755L101.494 15.6315L99.8054 14.5605L89.8214 30.3045L91.5104 31.3755ZM101.489 15.6393C101.511 15.6059 101.528 15.5836 101.541 15.5695C101.553 15.5556 101.559 15.5513 101.557 15.5529C101.554 15.5546 101.545 15.5621 101.527 15.5708C101.509 15.5797 101.486 15.5881 101.459 15.5938L101.04 13.6382C100.466 13.7614 100.07 14.1513 99.8103 14.5527L101.489 15.6393ZM101.446 15.5966C101.429 15.6 101.414 15.6008 101.403 15.6005C101.392 15.6002 101.388 15.5988 101.392 15.5998C101.402 15.6023 101.444 15.6148 101.52 15.6613L102.563 13.9547C102.143 13.6977 101.621 13.522 101.054 13.6354L101.446 15.5966ZM101.538 15.6718C101.572 15.6918 101.594 15.7078 101.607 15.7182C101.62 15.7285 101.622 15.7321 101.618 15.7272C101.614 15.722 101.604 15.7088 101.593 15.6872C101.582 15.6652 101.573 15.6391 101.567 15.6106C101.561 15.5822 101.56 15.5578 101.561 15.5397C101.561 15.5221 101.564 15.514 101.563 15.5169C101.562 15.5201 101.558 15.5334 101.547 15.5576C101.535 15.5817 101.518 15.6144 101.491 15.6558L103.169 16.7442C103.435 16.3343 103.648 15.7975 103.525 15.2054C103.399 14.5971 102.976 14.1952 102.546 13.9442L101.538 15.6718ZM101.485 15.6644L90.8294 32.4644L92.5183 33.5356L103.174 16.7356L101.485 15.6644ZM90.6739 33V43.992H92.6739V33H90.6739ZM90.6739 43.992C90.6739 44.0347 90.6712 44.0658 90.6682 44.0868C90.6652 44.1078 90.6622 44.1169 90.6622 44.1168C90.6623 44.1163 90.6656 44.1068 90.6746 44.0918C90.6791 44.0843 90.6847 44.076 90.6916 44.0671C90.6985 44.0583 90.7062 44.0494 90.7148 44.0409C90.7233 44.0323 90.7321 44.0246 90.741 44.0177C90.7498 44.0108 90.7582 44.0052 90.7656 44.0008C90.7807 43.9917 90.7902 43.9885 90.7906 43.9883C90.7908 43.9883 90.7817 43.9913 90.7607 43.9943C90.7397 43.9973 90.7086 44 90.6659 44V46C91.156 46 91.7073 45.8768 92.129 45.4551C92.5507 45.0334 92.6739 44.4821 92.6739 43.992H90.6739ZM128.857 16.656L128.146 17.359L128.154 17.3673L128.857 16.656ZM128.857 30.144L128.15 29.4369L128.146 29.4411L128.857 30.144ZM112.609 32.184V31.184H111.609V32.184H112.609ZM112.609 30.168H111.609V31.168H112.609V30.168ZM127.417 28.704L126.71 27.9969L126.704 28.0028L127.417 28.704ZM127.417 18.096L126.704 18.7972L126.71 18.8031L126.716 18.8089L127.417 18.096ZM112.609 16.632V15.632H111.609V16.632H112.609ZM111.601 44C111.558 44 111.527 43.9973 111.506 43.9943C111.485 43.9913 111.476 43.9883 111.476 43.9883C111.477 43.9885 111.486 43.9917 111.501 44.0008C111.509 44.0052 111.517 44.0108 111.526 44.0177C111.535 44.0246 111.544 44.0323 111.552 44.0409C111.561 44.0494 111.568 44.0583 111.575 44.0671C111.582 44.076 111.588 44.0843 111.592 44.0918C111.601 44.1068 111.605 44.1163 111.605 44.1168C111.605 44.1169 111.602 44.1078 111.599 44.0868C111.596 44.0658 111.593 44.0347 111.593 43.992H109.593C109.593 44.4821 109.716 45.0334 110.138 45.4551C110.56 45.8768 111.111 46 111.601 46V44ZM111.593 43.992V15.624H109.593V43.992H111.593ZM111.593 15.624C111.593 15.5813 111.596 15.5502 111.599 15.5292C111.602 15.5082 111.605 15.4991 111.605 15.4992C111.605 15.4997 111.601 15.5092 111.592 15.5242C111.588 15.5317 111.582 15.54 111.575 15.5489C111.568 15.5577 111.561 15.5666 111.552 15.5751C111.544 15.5837 111.535 15.5914 111.526 15.5983C111.517 15.6052 111.509 15.6108 111.501 15.6152C111.486 15.6243 111.477 15.6275 111.476 15.6277C111.476 15.6277 111.485 15.6247 111.506 15.6217C111.527 15.6187 111.558 15.616 111.601 15.616V13.616C111.111 13.616 110.56 13.7392 110.138 14.1609C109.716 14.5826 109.593 15.1339 109.593 15.624H111.593ZM111.601 15.616H122.833V13.616H111.601V15.616ZM122.833 15.616C125.346 15.616 127.054 16.2541 128.146 17.3589L129.568 15.9531C127.972 14.3379 125.664 13.616 122.833 13.616V15.616ZM128.154 17.3673C129.259 18.4591 129.897 20.1672 129.897 22.68H131.897C131.897 19.8488 131.175 17.5409 129.56 15.9447L128.154 17.3673ZM129.897 22.68V24.12H131.897V22.68H129.897ZM129.897 24.12C129.897 26.6138 129.26 28.3265 128.15 29.4369L129.564 30.8511C131.174 29.2415 131.897 26.9382 131.897 24.12H129.897ZM128.146 29.4411C127.054 30.5459 125.346 31.184 122.833 31.184V33.184C125.664 33.184 127.972 32.4621 129.568 30.8469L128.146 29.4411ZM122.833 31.184H112.609V33.184H122.833V31.184ZM111.609 32.184V43.992H113.609V32.184H111.609ZM111.609 43.992C111.609 44.0347 111.606 44.0658 111.603 44.0868C111.6 44.1078 111.597 44.1169 111.597 44.1168C111.597 44.1163 111.601 44.1068 111.61 44.0918C111.614 44.0843 111.62 44.076 111.627 44.0671C111.634 44.0583 111.641 44.0494 111.65 44.0409C111.658 44.0323 111.667 44.0246 111.676 44.0177C111.685 44.0108 111.693 44.0052 111.701 44.0008C111.716 43.9917 111.725 43.9885 111.726 43.9883C111.726 43.9883 111.717 43.9913 111.696 43.9943C111.675 43.9973 111.644 44 111.601 44V46C112.091 46 112.642 45.8768 113.064 45.4551C113.486 45.0334 113.609 44.4821 113.609 43.992H111.609ZM112.609 31.168H122.833V29.168H112.609V31.168ZM122.833 31.168C125.057 31.168 126.902 30.6532 128.13 29.4052L126.704 28.0028C126.012 28.7068 124.801 29.168 122.833 29.168V31.168ZM128.124 29.4111C129.364 28.171 129.881 26.3326 129.881 24.12H127.881C127.881 26.0674 127.422 27.285 126.71 27.9969L128.124 29.4111ZM129.881 24.12V22.68H127.881V24.12H129.881ZM129.881 22.68C129.881 20.4558 129.366 18.6106 128.118 17.3831L126.716 18.8089C127.42 19.5014 127.881 20.7122 127.881 22.68H129.881ZM128.13 17.3948C126.902 16.1468 125.057 15.632 122.833 15.632V17.632C124.801 17.632 126.012 18.0932 126.704 18.7972L128.13 17.3948ZM122.833 15.632H112.609V17.632H122.833V15.632ZM111.609 16.632V30.168H113.609V16.632H111.609ZM148.079 44.76L147.372 45.4671L147.372 45.4671L148.079 44.76ZM147.791 16.584H148.791V15.584H147.791V16.584ZM136.559 16.296L137.267 15.5889L137.267 15.5889L136.559 16.296ZM136.559 14.856L137.267 15.5631L137.267 15.5631L136.559 14.856ZM161.039 16.296L160.332 15.5889L160.332 15.5889L161.039 16.296ZM149.807 16.584V15.584H148.807V16.584H149.807ZM149.519 44.76L148.812 44.0529L148.812 44.0529L149.519 44.76ZM148.799 44.048C148.783 44.048 148.774 44.0466 148.771 44.0461C148.769 44.0456 148.77 44.0457 148.775 44.0475C148.779 44.0493 148.784 44.0517 148.787 44.0539C148.79 44.0561 148.79 44.0565 148.787 44.0529L147.372 45.4671C147.764 45.8589 148.264 46.048 148.799 46.048V44.048ZM148.787 44.0529C148.783 44.0493 148.783 44.0491 148.786 44.0523C148.788 44.0557 148.79 44.0601 148.792 44.0646C148.794 44.0691 148.794 44.0708 148.793 44.0681C148.793 44.0653 148.791 44.0564 148.791 44.04H146.791C146.791 44.5754 146.981 45.0753 147.372 45.4671L148.787 44.0529ZM148.791 44.04V16.584H146.791V44.04H148.791ZM147.791 15.584H137.279V17.584H147.791V15.584ZM137.279 15.584C137.263 15.584 137.254 15.5826 137.251 15.5821C137.249 15.5816 137.25 15.5817 137.255 15.5835C137.259 15.5853 137.264 15.5877 137.267 15.59C137.27 15.5921 137.27 15.5925 137.267 15.5889L135.852 17.0031C136.244 17.3949 136.744 17.584 137.279 17.584V15.584ZM137.267 15.5889C137.263 15.5853 137.263 15.5851 137.266 15.5883C137.268 15.5916 137.27 15.5961 137.272 15.6006C137.274 15.6051 137.274 15.6068 137.273 15.6041C137.273 15.6013 137.271 15.5924 137.271 15.576H135.271C135.271 16.1114 135.461 16.6113 135.852 17.0031L137.267 15.5889ZM137.271 15.576C137.271 15.5596 137.273 15.5507 137.273 15.5479C137.274 15.5452 137.274 15.5469 137.272 15.5514C137.27 15.5559 137.268 15.5603 137.266 15.5637C137.263 15.5669 137.263 15.5667 137.267 15.5631L135.852 14.1489C135.461 14.5407 135.271 15.0406 135.271 15.576H137.271ZM137.267 15.5631C137.27 15.5595 137.27 15.5599 137.267 15.5621C137.264 15.5643 137.259 15.5667 137.255 15.5685C137.25 15.5703 137.249 15.5704 137.251 15.5699C137.254 15.5694 137.263 15.568 137.279 15.568V13.568C136.744 13.568 136.244 13.7571 135.852 14.1489L137.267 15.5631ZM137.279 15.568H160.319V13.568H137.279V15.568ZM160.319 15.568C160.336 15.568 160.345 15.5694 160.348 15.5699C160.35 15.5704 160.349 15.5703 160.344 15.5685C160.34 15.5667 160.335 15.5643 160.332 15.562C160.329 15.5599 160.329 15.5595 160.332 15.5631L161.747 14.1489C161.355 13.7571 160.855 13.568 160.319 13.568V15.568ZM160.332 15.5631C160.336 15.5667 160.336 15.5669 160.333 15.5637C160.331 15.5603 160.329 15.5559 160.327 15.5514C160.325 15.5469 160.325 15.5452 160.326 15.5479C160.326 15.5507 160.327 15.5596 160.327 15.576H162.327C162.327 15.0406 162.138 14.5407 161.747 14.1489L160.332 15.5631ZM160.327 15.576C160.327 15.5924 160.326 15.6013 160.326 15.6041C160.325 15.6068 160.325 15.6051 160.327 15.6006C160.329 15.5961 160.331 15.5916 160.333 15.5883C160.336 15.5851 160.336 15.5853 160.332 15.5889L161.747 17.0031C162.138 16.6113 162.327 16.1114 162.327 15.576H160.327ZM160.332 15.5889C160.329 15.5925 160.329 15.5921 160.332 15.59C160.335 15.5877 160.34 15.5853 160.344 15.5835C160.349 15.5817 160.35 15.5816 160.348 15.5821C160.345 15.5826 160.336 15.584 160.319 15.584V17.584C160.855 17.584 161.355 17.3949 161.747 17.0031L160.332 15.5889ZM160.319 15.584H149.807V17.584H160.319V15.584ZM148.807 16.584V44.04H150.807V16.584H148.807ZM148.807 44.04C148.807 44.0564 148.806 44.0653 148.806 44.0681C148.805 44.0708 148.805 44.0691 148.807 44.0646C148.809 44.0601 148.811 44.0557 148.813 44.0523C148.816 44.0491 148.816 44.0493 148.812 44.0529L150.227 45.4671C150.618 45.0753 150.807 44.5754 150.807 44.04H148.807ZM148.812 44.0529C148.809 44.0565 148.809 44.0561 148.812 44.054C148.815 44.0517 148.82 44.0493 148.824 44.0475C148.829 44.0457 148.83 44.0456 148.828 44.0461C148.825 44.0466 148.816 44.048 148.799 44.048V46.048C149.335 46.048 149.835 45.8589 150.227 45.4671L148.812 44.0529ZM169.474 42.696L168.763 43.3995L168.771 43.4068L169.474 42.696ZM169.474 16.896L170.181 17.6031L170.181 17.6031L169.474 16.896ZM176.866 14.616L176.857 15.616H176.866V14.616ZM190.09 16.944L189.379 17.6475L189.387 17.6548L190.09 16.944ZM190.09 42.696L189.383 41.9889L189.383 41.9889L190.09 42.696ZM187.186 42.24L187.591 43.1544L187.597 43.1517L187.186 42.24ZM189.634 39.792L188.722 39.3811L188.72 39.3871L189.634 39.792ZM189.634 19.848L188.718 20.2481L188.721 20.256L188.725 20.2638L189.634 19.848ZM187.186 17.4L186.77 18.3095L186.778 18.313L186.786 18.3165L187.186 17.4ZM176.866 16.632L176.858 17.632H176.866V16.632ZM169.93 19.8L169.014 19.3999L169.014 19.3999L169.93 19.8ZM169.93 39.792L169.014 40.1921L169.017 40.2L169.021 40.2078L169.93 39.792ZM172.378 42.24L171.962 43.1495L171.97 43.153L171.978 43.1565L172.378 42.24ZM176.914 44C173.626 44 171.46 43.2549 170.177 41.9852L168.771 43.4068C170.592 45.2091 173.386 46 176.914 46V44ZM170.185 41.9926C168.915 40.7096 168.17 38.544 168.17 35.256H166.17C166.17 38.784 166.961 41.5784 168.763 43.3994L170.185 41.9926ZM168.17 35.256V24.36H166.17V35.256H168.17ZM168.17 24.36C168.17 21.0356 168.917 18.8672 170.181 17.6031L168.767 16.1889C166.959 17.9968 166.17 20.8044 166.17 24.36H168.17ZM170.181 17.6031C171.462 16.322 173.607 15.5852 176.857 15.616L176.875 13.616C173.373 13.5828 170.59 14.366 168.767 16.1889L170.181 17.6031ZM176.866 15.616H182.674V13.616H176.866V15.616ZM182.674 15.616C185.961 15.616 188.113 16.3684 189.379 17.6474L190.801 16.2406C188.995 14.4156 186.203 13.616 182.674 13.616V15.616ZM189.387 17.6548C190.666 18.9206 191.418 21.0732 191.418 24.36H193.418C193.418 20.8308 192.618 18.0394 190.793 16.2332L189.387 17.6548ZM191.418 24.36V35.256H193.418V24.36H191.418ZM191.418 35.256C191.418 38.5416 190.666 40.7057 189.383 41.9889L190.797 43.4031C192.618 41.5823 193.418 38.7864 193.418 35.256H191.418ZM189.383 41.9889C188.117 43.2544 185.963 44 182.674 44V46C186.201 46 188.991 45.2096 190.797 43.4031L189.383 41.9889ZM182.674 44H176.914V46H182.674V44ZM176.914 43.984H182.674V41.984H176.914V43.984ZM182.674 43.984C184.634 43.984 186.293 43.729 187.591 43.1543L186.781 41.3257C185.839 41.743 184.49 41.984 182.674 41.984V43.984ZM187.597 43.1517C188.953 42.5404 189.951 41.5463 190.548 40.1969L188.72 39.3871C188.325 40.2777 187.691 40.9156 186.775 41.3283L187.597 43.1517ZM190.546 40.2029C191.138 38.8886 191.402 37.2196 191.402 35.256H189.402C189.402 37.0684 189.154 38.4234 188.722 39.3811L190.546 40.2029ZM191.402 35.256V24.36H189.402V35.256H191.402ZM191.402 24.36C191.402 22.3976 191.138 20.7336 190.543 19.4322L188.725 20.2638C189.154 21.2024 189.402 22.5464 189.402 24.36H191.402ZM190.55 19.4479C189.954 18.0808 188.953 17.0804 187.586 16.4835L186.786 18.3165C187.691 18.7116 188.322 19.3432 188.718 20.2481L190.55 19.4479ZM187.602 16.4905C186.3 15.8956 184.636 15.632 182.674 15.632V17.632C184.488 17.632 185.832 17.8804 186.77 18.3095L187.602 16.4905ZM182.674 15.632H176.866V17.632H182.674V15.632ZM176.874 15.632C174.914 15.6154 173.25 15.8613 171.949 16.4376L172.759 18.2663C173.698 17.8507 175.042 17.6166 176.858 17.632L176.874 15.632ZM171.949 16.4376C170.597 17.0363 169.608 18.0375 169.014 19.3999L170.846 20.2001C171.244 19.2905 171.871 18.6597 172.759 18.2663L171.949 16.4376ZM169.014 19.3999C168.441 20.7113 168.186 22.3847 168.186 24.36H170.186C170.186 22.5273 170.427 21.1607 170.846 20.2001L169.014 19.3999ZM168.186 24.36V35.256H170.186V24.36H168.186ZM168.186 35.256C168.186 37.2167 168.441 38.8815 169.014 40.1921L170.846 39.3919C170.427 38.4305 170.186 37.0713 170.186 35.256H168.186ZM169.021 40.2078C169.632 41.5463 170.624 42.5376 171.962 43.1495L172.794 41.3305C171.892 40.9184 171.252 40.2777 170.839 39.3762L169.021 40.2078ZM171.978 43.1565C173.288 43.7287 174.953 43.984 176.914 43.984V41.984C175.099 41.984 173.74 41.7433 172.778 41.3235L171.978 43.1565ZM205.596 42.696L204.885 43.3995L204.893 43.4068L205.596 42.696ZM205.596 16.92L206.3 17.6308L206.3 17.6308L205.596 16.92ZM225.276 16.44L225.934 15.6869L225.934 15.6869L225.276 16.44ZM227.532 22.344L226.533 22.3851L226.534 22.412L226.537 22.4388L227.532 22.344ZM227.316 23.136L226.579 22.4603L226.576 22.4633L227.316 23.136ZM225.516 22.392L224.517 22.4364L224.518 22.4498L224.519 22.4632L225.516 22.392ZM223.836 17.904L223.192 18.6692L223.199 18.6747L223.206 18.6801L223.836 17.904ZM206.052 19.824L206.967 20.2289L206.969 20.2241L206.052 19.824ZM206.052 39.792L205.136 40.1921L205.139 40.2L205.143 40.2078L206.052 39.792ZM208.5 42.24L208.084 43.1495L208.092 43.153L208.1 43.1565L208.5 42.24ZM222.804 42.36L223.196 43.28L223.204 43.2768L222.804 42.36ZM224.916 40.248L223.999 39.8487L223.996 39.8559L224.916 40.248ZM225.564 32.952H226.564V31.9603L225.573 31.952L225.564 32.952ZM219.804 32.904L219.813 31.904H219.804V32.904ZM219.804 30.888L219.811 29.888H219.804V30.888ZM226.572 30.936L226.565 31.936H226.572V30.936ZM225.516 42.936L226.223 43.6431L226.227 43.639L225.516 42.936ZM213.036 44C209.748 44 207.583 43.2549 206.3 41.9852L204.893 43.4068C206.714 45.2091 209.508 46 213.036 46V44ZM206.307 41.9926C205.037 40.7096 204.292 38.544 204.292 35.256H202.292C202.292 38.784 203.083 41.5784 204.885 43.3994L206.307 41.9926ZM204.292 35.256V24.36H202.292V35.256H204.292ZM204.292 24.36C204.292 21.0344 205.04 18.8775 206.3 17.6308L204.893 16.2092C203.081 18.0024 202.292 20.8056 202.292 24.36H204.292ZM206.3 17.6308C207.584 16.3596 209.735 15.616 212.988 15.616V13.616C209.489 13.616 206.712 14.4084 204.893 16.2092L206.3 17.6308ZM212.988 15.616H218.796V13.616H212.988V15.616ZM218.796 15.616C221.616 15.616 223.489 16.2065 224.618 17.1931L225.934 15.6869C224.28 14.2415 221.832 13.616 218.796 13.616V15.616ZM224.618 17.1931C225.723 18.1579 226.427 19.8092 226.533 22.3851L228.531 22.3029C228.413 19.4388 227.614 17.1541 225.934 15.6869L224.618 17.1931ZM226.537 22.4388C226.544 22.5137 226.535 22.539 226.537 22.5309C226.539 22.5263 226.542 22.5153 226.55 22.5007C226.558 22.486 226.568 22.472 226.579 22.4603L228.053 23.8117C228.473 23.3534 228.578 22.7786 228.528 22.2492L226.537 22.4388ZM226.576 22.4633C226.596 22.4421 226.617 22.4248 226.637 22.4119C226.656 22.3993 226.67 22.3935 226.676 22.3916C226.681 22.3898 226.676 22.392 226.659 22.3947C226.641 22.3973 226.613 22.4 226.572 22.4V24.4C227.071 24.4 227.639 24.2676 228.056 23.8087L226.576 22.4633ZM226.572 22.4C226.492 22.4 226.457 22.3894 226.453 22.3883C226.452 22.388 226.459 22.39 226.47 22.3965C226.481 22.4032 226.494 22.4126 226.507 22.4246C226.534 22.451 226.542 22.4715 226.539 22.4642C226.534 22.4531 226.52 22.4103 226.514 22.3208L224.519 22.4632C224.554 22.9514 224.711 23.4753 225.126 23.8714C225.545 24.2714 226.079 24.4 226.572 24.4V22.4ZM226.515 22.3476C226.414 20.0791 225.82 18.2276 224.467 17.1279L223.206 18.6801C223.9 19.2444 224.426 20.3849 224.517 22.4364L226.515 22.3476ZM224.48 17.1388C223.196 16.0588 221.218 15.632 218.796 15.632V17.632C221.078 17.632 222.46 18.0532 223.192 18.6692L224.48 17.1388ZM218.796 15.632H212.988V17.632H218.796V15.632ZM212.988 15.632C211.029 15.632 209.369 15.887 208.071 16.4617L208.881 18.2903C209.824 17.873 211.172 17.632 212.988 17.632V15.632ZM208.071 16.4617C206.719 17.0603 205.731 18.0615 205.136 19.4239L206.969 20.2241C207.366 19.3145 207.993 18.6837 208.881 18.2903L208.071 16.4617ZM205.138 19.4191C204.563 20.7175 204.308 22.3858 204.308 24.36H206.308C206.308 22.5262 206.55 21.1705 206.967 20.2289L205.138 19.4191ZM204.308 24.36V35.256H206.308V24.36H204.308ZM204.308 35.256C204.308 37.2167 204.564 38.8815 205.136 40.1921L206.969 39.3919C206.549 38.4305 206.308 37.0713 206.308 35.256H204.308ZM205.143 40.2078C205.755 41.5463 206.746 42.5376 208.084 43.1495L208.916 41.3305C208.015 40.9184 207.374 40.2777 206.962 39.3762L205.143 40.2078ZM208.1 43.1565C209.411 43.7287 211.076 43.984 213.036 43.984V41.984C211.221 41.984 209.862 41.7433 208.9 41.3235L208.1 43.1565ZM213.036 43.984H218.796V41.984H213.036V43.984ZM218.796 43.984C220.556 43.984 222.044 43.7709 223.196 43.2799L222.412 41.4401C221.612 41.7811 220.429 41.984 218.796 41.984V43.984ZM223.204 43.2768C224.425 42.7451 225.318 41.8562 225.836 40.6401L223.996 39.8559C223.683 40.5918 223.168 41.1109 222.405 41.4432L223.204 43.2768ZM225.833 40.6473C226.342 39.4782 226.564 37.9798 226.564 36.216H224.564C224.564 37.8442 224.354 39.0338 223.999 39.8487L225.833 40.6473ZM226.564 36.216V32.952H224.564V36.216H226.564ZM225.573 31.952L219.813 31.904L219.796 33.904L225.556 33.952L225.573 31.952ZM219.804 31.904C219.762 31.904 219.73 31.9013 219.709 31.8983C219.688 31.8953 219.679 31.8923 219.679 31.8923C219.68 31.8925 219.689 31.8957 219.705 31.9048C219.712 31.9092 219.72 31.9148 219.729 31.9217C219.738 31.9286 219.747 31.9363 219.755 31.9449C219.764 31.9534 219.772 31.9623 219.779 31.9711C219.785 31.98 219.791 31.9883 219.795 31.9958C219.805 32.0108 219.808 32.0203 219.808 32.0208C219.808 32.0209 219.805 32.0118 219.802 31.9908C219.799 31.9698 219.796 31.9387 219.796 31.896H217.796C217.796 32.3861 217.919 32.9374 218.341 33.3591C218.763 33.7808 219.314 33.904 219.804 33.904V31.904ZM219.796 31.896C219.796 31.8533 219.799 31.8222 219.802 31.8012C219.805 31.7802 219.808 31.7711 219.808 31.7712C219.808 31.7717 219.805 31.7812 219.795 31.7962C219.791 31.8037 219.785 31.812 219.779 31.8209C219.772 31.8297 219.764 31.8386 219.755 31.8471C219.747 31.8557 219.738 31.8634 219.729 31.8703C219.72 31.8772 219.712 31.8828 219.705 31.8872C219.689 31.8963 219.68 31.8995 219.679 31.8997C219.679 31.8997 219.688 31.8967 219.709 31.8937C219.73 31.8907 219.762 31.888 219.804 31.888V29.888C219.314 29.888 218.763 30.0112 218.341 30.4329C217.919 30.8546 217.796 31.4059 217.796 31.896H219.796ZM219.797 31.888L226.565 31.936L226.579 29.936L219.811 29.888L219.797 31.888ZM226.572 31.936C226.615 31.936 226.646 31.9387 226.667 31.9417C226.688 31.9447 226.697 31.9477 226.697 31.9477C226.697 31.9475 226.687 31.9443 226.672 31.9352C226.665 31.9308 226.656 31.9252 226.647 31.9183C226.639 31.9114 226.63 31.9037 226.621 31.8951C226.613 31.8866 226.605 31.8777 226.598 31.8689C226.591 31.86 226.585 31.8517 226.581 31.8442C226.572 31.8292 226.569 31.8197 226.569 31.8192C226.569 31.8191 226.572 31.8282 226.575 31.8492C226.578 31.8702 226.58 31.9013 226.58 31.944H228.58C228.58 31.4539 228.457 30.9026 228.035 30.4809C227.614 30.0592 227.062 29.936 226.572 29.936V31.936ZM226.58 31.944V36.216H228.58V31.944H226.58ZM226.58 36.216C226.58 39.1877 225.914 41.1117 224.805 42.233L226.227 43.639C227.871 41.9763 228.58 39.4203 228.58 36.216H226.58ZM224.809 42.2289C223.706 43.3319 221.787 44 218.796 44V46C222.013 46 224.574 45.2921 226.223 43.6431L224.809 42.2289ZM218.796 44H213.036V46H218.796V44ZM259.416 45.048L259.902 45.9222L259.911 45.9171L259.92 45.9118L259.416 45.048ZM258.624 45.216L258.415 46.1939L258.428 46.1966L258.624 45.216ZM258.024 44.76L257.181 45.2975L257.19 45.3122L257.2 45.3265L258.024 44.76ZM250.008 32.184L250.852 31.6465L250.557 31.184H250.008V32.184ZM240.504 32.184V31.184H239.504V32.184H240.504ZM256.752 16.656L256.041 17.359L256.049 17.3673L256.752 16.656ZM257.16 29.688L256.383 29.0588L256.382 29.0599L257.16 29.688ZM252.36 32.088L252.233 31.0961L250.673 31.2956L251.516 32.624L252.36 32.088ZM259.704 43.656L258.86 44.192L258.865 44.2002L259.704 43.656ZM240.504 30.168H239.504V31.168H240.504V30.168ZM255.312 28.704L254.605 27.9969L254.599 28.0028L255.312 28.704ZM255.312 18.096L254.599 18.7972L254.605 18.8031L254.611 18.8089L255.312 18.096ZM240.504 16.632V15.632H239.504V16.632H240.504ZM258.931 44.1738C258.855 44.2158 258.811 44.2284 258.795 44.2318C258.782 44.2345 258.794 44.2301 258.82 44.2354L258.428 46.1966C258.971 46.3051 259.479 46.1573 259.902 45.9222L258.931 44.1738ZM258.834 44.2382C258.854 44.2426 258.873 44.2491 258.887 44.2561C258.902 44.2629 258.91 44.2686 258.911 44.2698C258.913 44.2714 258.89 44.2537 258.848 44.1935L257.2 45.3265C257.468 45.7167 257.863 46.0756 258.415 46.1938L258.834 44.2382ZM258.868 44.2225L250.852 31.6465L249.165 32.7215L257.181 45.2975L258.868 44.2225ZM250.008 31.184H240.504V33.184H250.008V31.184ZM239.504 32.184V43.992H241.504V32.184H239.504ZM239.504 43.992C239.504 44.0347 239.502 44.0658 239.499 44.0868C239.496 44.1078 239.493 44.1169 239.493 44.1168C239.493 44.1163 239.496 44.1068 239.505 44.0918C239.509 44.0843 239.515 44.076 239.522 44.0671C239.529 44.0583 239.537 44.0494 239.545 44.0409C239.554 44.0323 239.563 44.0246 239.571 44.0177C239.58 44.0108 239.589 44.0052 239.596 44.0008C239.611 43.9917 239.621 43.9885 239.621 43.9883C239.621 43.9883 239.612 43.9913 239.591 43.9943C239.57 43.9973 239.539 44 239.496 44V46C239.986 46 240.538 45.8768 240.959 45.4551C241.381 45.0334 241.504 44.4821 241.504 43.992H239.504ZM239.496 44C239.454 44 239.422 43.9973 239.401 43.9943C239.38 43.9913 239.371 43.9883 239.371 43.9883C239.372 43.9885 239.381 43.9917 239.396 44.0008C239.404 44.0052 239.412 44.0108 239.421 44.0177C239.43 44.0246 239.439 44.0323 239.447 44.0409C239.456 44.0494 239.464 44.0583 239.471 44.0671C239.477 44.076 239.483 44.0843 239.487 44.0918C239.497 44.1068 239.5 44.1163 239.5 44.1168C239.5 44.1169 239.497 44.1078 239.494 44.0868C239.491 44.0658 239.488 44.0347 239.488 43.992H237.488C237.488 44.4821 237.611 45.0334 238.033 45.4551C238.455 45.8768 239.006 46 239.496 46V44ZM239.488 43.992V15.624H237.488V43.992H239.488ZM239.488 15.624C239.488 15.5813 239.491 15.5502 239.494 15.5292C239.497 15.5082 239.5 15.4991 239.5 15.4992C239.5 15.4997 239.497 15.5092 239.487 15.5242C239.483 15.5317 239.477 15.54 239.471 15.5489C239.464 15.5577 239.456 15.5666 239.447 15.5751C239.439 15.5837 239.43 15.5914 239.421 15.5983C239.412 15.6052 239.404 15.6108 239.396 15.6152C239.381 15.6243 239.372 15.6275 239.371 15.6277C239.371 15.6277 239.38 15.6247 239.401 15.6217C239.422 15.6187 239.454 15.616 239.496 15.616V13.616C239.006 13.616 238.455 13.7392 238.033 14.1609C237.611 14.5826 237.488 15.1339 237.488 15.624H239.488ZM239.496 15.616H250.728V13.616H239.496V15.616ZM250.728 15.616C253.241 15.616 254.949 16.2541 256.041 17.3589L257.464 15.9531C255.867 14.3379 253.559 13.616 250.728 13.616V15.616ZM256.049 17.3673C257.154 18.4591 257.792 20.1672 257.792 22.68H259.792C259.792 19.8488 259.07 17.5409 257.455 15.9447L256.049 17.3673ZM257.792 22.68V24.12H259.792V22.68H257.792ZM257.792 24.12C257.792 26.343 257.282 27.9487 256.383 29.0588L257.937 30.3172C259.215 28.7393 259.792 26.633 259.792 24.12H257.792ZM256.382 29.0599C255.511 30.1389 254.174 30.848 252.233 31.0961L252.487 33.0799C254.802 32.784 256.665 31.8931 257.938 30.3161L256.382 29.0599ZM251.516 32.624L258.86 44.192L260.548 43.12L253.204 31.552L251.516 32.624ZM258.865 44.2002C258.892 44.2416 258.91 44.2743 258.921 44.2984C258.933 44.3226 258.937 44.3359 258.937 44.3391C258.938 44.342 258.936 44.3339 258.935 44.3163C258.934 44.2982 258.935 44.2738 258.941 44.2454C258.947 44.2169 258.956 44.1908 258.967 44.1688C258.978 44.1472 258.988 44.134 258.993 44.1288C258.997 44.1239 258.995 44.1275 258.982 44.1378C258.969 44.1482 258.947 44.1642 258.912 44.1842L259.92 45.9118C260.35 45.6608 260.774 45.2589 260.9 44.6506C261.022 44.0585 260.809 43.5217 260.543 43.1118L258.865 44.2002ZM240.504 31.168H250.728V29.168H240.504V31.168ZM250.728 31.168C252.952 31.168 254.798 30.6532 256.025 29.4052L254.599 28.0028C253.907 28.7068 252.696 29.168 250.728 29.168V31.168ZM256.019 29.4111C257.259 28.171 257.776 26.3326 257.776 24.12H255.776C255.776 26.0674 255.317 27.285 254.605 27.9969L256.019 29.4111ZM257.776 24.12V22.68H255.776V24.12H257.776ZM257.776 22.68C257.776 20.4558 257.261 18.6106 256.013 17.3831L254.611 18.8089C255.315 19.5014 255.776 20.7122 255.776 22.68H257.776ZM256.025 17.3948C254.798 16.1468 252.952 15.632 250.728 15.632V17.632C252.696 17.632 253.907 18.0932 254.599 18.7972L256.025 17.3948ZM250.728 15.632H240.504V17.632H250.728V15.632ZM239.504 16.632V30.168H241.504V16.632H239.504ZM266.906 44.904L266.468 45.8032L266.501 45.8191L266.534 45.8325L266.906 44.904ZM266.378 43.56L265.458 43.1668L265.453 43.1798L265.448 43.1928L266.378 43.56ZM278.426 15.384L279.345 15.7772L279.354 15.7563L279.362 15.7351L278.426 15.384ZM280.874 15.384L281.794 14.9922L281.787 14.9757L281.779 14.9596L280.874 15.384ZM292.874 43.56L291.954 43.9518L291.957 43.9601L291.961 43.9684L292.874 43.56ZM292.346 44.904L292.734 45.8256L292.749 45.8191L292.765 45.812L292.346 44.904ZM291.05 44.376L291.971 43.9879L291.97 43.9851L291.05 44.376ZM287.666 36.408L288.586 36.0171L288.327 35.408H287.666V36.408ZM271.682 36.408V35.408H271.024L270.763 36.0124L271.682 36.408ZM268.25 44.376L267.331 43.9804L267.328 43.9879L268.25 44.376ZM272.546 34.392L271.628 33.9954L271.024 35.392H272.546V34.392ZM286.802 34.392V35.392H288.315L287.722 33.9998L286.802 34.392ZM279.722 17.784L280.642 17.3918L279.728 15.2485L278.804 17.3874L279.722 17.784ZM267.343 44.0048C267.267 43.9679 267.237 43.9413 267.232 43.936C267.229 43.9339 267.233 43.9372 267.24 43.9467C267.246 43.9564 267.254 43.9699 267.26 43.9863C267.267 44.0029 267.271 44.0182 267.273 44.0305C267.274 44.0426 267.274 44.0485 267.274 44.0465C267.274 44.0411 267.278 44.0033 267.308 43.9272L265.448 43.1928C265.268 43.6466 265.19 44.1845 265.399 44.7177C265.608 45.2494 266.031 45.5903 266.468 45.8032L267.343 44.0048ZM267.297 43.9532L279.345 15.7772L277.506 14.9908L265.458 43.1668L267.297 43.9532ZM279.362 15.7351C279.381 15.684 279.398 15.6582 279.406 15.648C279.412 15.639 279.415 15.6387 279.412 15.64C279.404 15.6459 279.438 15.616 279.578 15.616V13.616C279.141 13.616 278.696 13.7141 278.303 13.9759C277.906 14.2406 277.645 14.6178 277.489 15.0329L279.362 15.7351ZM279.578 15.616H279.722V13.616H279.578V15.616ZM279.722 15.616C279.818 15.616 279.846 15.6368 279.851 15.64C279.86 15.6462 279.908 15.6806 279.968 15.8084L281.779 14.9596C281.599 14.5754 281.335 14.2258 280.96 13.9759C280.581 13.7232 280.154 13.616 279.722 13.616V15.616ZM279.954 15.7758L291.954 43.9518L293.794 43.1682L281.794 14.9922L279.954 15.7758ZM291.961 43.9684C291.978 44.0055 291.987 44.0331 291.992 44.0516C291.997 44.0701 291.998 44.078 291.998 44.0765C291.998 44.0747 291.997 44.064 291.999 44.0465C292.002 44.0286 292.007 44.0078 292.015 43.9863C292.023 43.9649 292.033 43.9479 292.042 43.9358C292.05 43.9241 292.055 43.9199 292.053 43.9221C292.05 43.9245 292.04 43.9331 292.019 43.9465C291.998 43.9598 291.968 43.9768 291.927 43.996L292.765 45.812C293.211 45.6062 293.66 45.2678 293.876 44.7177C294.095 44.1602 293.989 43.6046 293.787 43.1516L291.961 43.9684ZM291.958 43.9824C291.92 43.9983 291.891 44.0074 291.872 44.0125C291.853 44.0175 291.845 44.018 291.846 44.0179C291.848 44.0178 291.859 44.0172 291.877 44.0198C291.887 44.0211 291.897 44.0232 291.908 44.0262C291.92 44.0293 291.931 44.0331 291.943 44.0379C291.955 44.0427 291.966 44.048 291.976 44.0538C291.986 44.0595 291.995 44.0654 292.003 44.0708C292.018 44.0819 292.025 44.0902 292.026 44.0914C292.027 44.0924 292.022 44.0862 292.011 44.0693C292.001 44.0522 291.987 44.0259 291.971 43.9879L290.128 44.7641C290.316 45.2101 290.64 45.6667 291.188 45.8901C291.737 46.1135 292.288 46.0135 292.734 45.8256L291.958 43.9824ZM291.97 43.9851L288.586 36.0171L286.745 36.7989L290.129 44.7669L291.97 43.9851ZM287.666 35.408H271.682V37.408H287.666V35.408ZM270.763 36.0124L267.331 43.9804L269.168 44.7716L272.6 36.8036L270.763 36.0124ZM267.328 43.9879C267.297 44.0621 267.275 44.0856 267.278 44.0829C267.28 44.0809 267.287 44.0727 267.302 44.0624C267.317 44.0518 267.335 44.0415 267.356 44.0332C267.377 44.0251 267.395 44.0209 267.409 44.019C267.422 44.0172 267.427 44.018 267.423 44.0177C267.418 44.0173 267.404 44.0158 267.379 44.0096C267.354 44.0034 267.32 43.9929 267.277 43.9755L266.534 45.8325C266.989 46.0143 267.541 46.1094 268.087 45.8948C268.644 45.6761 268.979 45.222 269.171 44.7641L267.328 43.9879ZM272.546 35.392H286.802V33.392H272.546V35.392ZM287.722 33.9998L280.642 17.3918L278.802 18.1762L285.882 34.7842L287.722 33.9998ZM278.804 17.3874L271.628 33.9954L273.464 34.7886L280.64 18.1806L278.804 17.3874ZM303.706 15.288L302.852 15.807L302.86 15.8202L302.868 15.8332L303.706 15.288ZM315.85 33.96L315.95 34.955L317.584 34.7916L316.689 33.4148L315.85 33.96ZM315.37 34.008L314.531 33.4638L313.399 35.2102L315.47 35.003L315.37 34.008ZM327.514 15.288L328.353 15.8322L328.361 15.8197L328.369 15.807L327.514 15.288ZM327.658 17.64L327.975 16.6913L326.658 16.2526V17.64H327.658ZM328.234 17.832L329.073 18.3771L329.778 17.2925L328.551 16.8833L328.234 17.832ZM316.81 35.4L315.972 34.8549L315.964 34.8678L315.956 34.881L316.81 35.4ZM314.41 35.4L315.265 34.881L315.257 34.8678L315.249 34.8549L314.41 35.4ZM302.986 17.832L303.4 16.9216L300.279 15.5029L302.148 18.3771L302.986 17.832ZM303.514 18.072H304.514V17.4281L303.928 17.1616L303.514 18.072ZM302.506 44C302.464 44 302.433 43.9973 302.412 43.9943C302.391 43.9913 302.381 43.9883 302.382 43.9883C302.382 43.9885 302.392 43.9917 302.407 44.0008C302.414 44.0052 302.422 44.0108 302.431 44.0177C302.44 44.0246 302.449 44.0323 302.457 44.0409C302.466 44.0494 302.474 44.0583 302.481 44.0671C302.488 44.076 302.493 44.0843 302.498 44.0918C302.507 44.1068 302.51 44.1163 302.51 44.1168C302.51 44.1169 302.507 44.1078 302.504 44.0868C302.501 44.0658 302.498 44.0347 302.498 43.992H300.498C300.498 44.4821 300.622 45.0334 301.043 45.4551C301.465 45.8768 302.016 46 302.506 46V44ZM302.498 43.992V15.624H300.498V43.992H302.498ZM302.498 15.624C302.498 15.5813 302.501 15.5502 302.504 15.5292C302.507 15.5082 302.51 15.4991 302.51 15.4992C302.51 15.4997 302.507 15.5092 302.498 15.5242C302.493 15.5317 302.488 15.54 302.481 15.5489C302.474 15.5577 302.466 15.5666 302.457 15.5751C302.449 15.5837 302.44 15.5914 302.431 15.5983C302.422 15.6052 302.414 15.6108 302.407 15.6152C302.392 15.6243 302.382 15.6275 302.382 15.6277C302.381 15.6277 302.391 15.6247 302.412 15.6217C302.433 15.6187 302.464 15.616 302.506 15.616V13.616C302.016 13.616 301.465 13.7392 301.043 14.1609C300.622 14.5826 300.498 15.1339 300.498 15.624H302.498ZM302.506 15.616C302.688 15.616 302.763 15.6604 302.852 15.807L304.561 14.769C304.106 14.0196 303.381 13.616 302.506 13.616V15.616ZM302.868 15.8332L315.012 34.5052L316.689 33.4148L304.545 14.7428L302.868 15.8332ZM315.751 32.965L315.271 33.013L315.47 35.003L315.95 34.955L315.751 32.965ZM316.209 34.5522L328.353 15.8322L326.675 14.7438L314.531 33.4638L316.209 34.5522ZM328.369 15.807C328.458 15.6604 328.533 15.616 328.714 15.616V13.616C327.84 13.616 327.115 14.0196 326.66 14.769L328.369 15.807ZM328.714 15.616C328.751 15.616 328.776 15.6184 328.791 15.6207C328.806 15.6229 328.809 15.6247 328.804 15.6229C328.798 15.6209 328.785 15.6154 328.766 15.6038C328.748 15.5921 328.728 15.5766 328.71 15.5577C328.692 15.5388 328.679 15.5205 328.671 15.5059C328.663 15.4917 328.661 15.4837 328.661 15.4856C328.662 15.4877 328.665 15.4992 328.669 15.5226C328.672 15.546 328.674 15.5793 328.674 15.624H330.674C330.674 15.1457 330.561 14.6013 330.159 14.1783C329.747 13.7463 329.201 13.616 328.714 13.616V15.616ZM328.674 15.624V43.992H330.674V15.624H328.674ZM328.674 43.992C328.674 44.0347 328.672 44.0658 328.669 44.0868C328.666 44.1078 328.663 44.1169 328.663 44.1168C328.663 44.1163 328.666 44.1068 328.675 44.0918C328.68 44.0843 328.685 44.076 328.692 44.0671C328.699 44.0583 328.707 44.0494 328.715 44.0409C328.724 44.0323 328.733 44.0246 328.741 44.0177C328.75 44.0108 328.759 44.0052 328.766 44.0008C328.781 43.9917 328.791 43.9885 328.791 43.9883C328.791 43.9883 328.782 43.9913 328.761 43.9943C328.74 43.9973 328.709 44 328.666 44V46C329.157 46 329.708 45.8768 330.129 45.4551C330.551 45.0334 330.674 44.4821 330.674 43.992H328.674ZM328.666 44C328.624 44 328.593 43.9973 328.572 43.9943C328.551 43.9913 328.541 43.9883 328.542 43.9883C328.542 43.9885 328.552 43.9917 328.567 44.0008C328.574 44.0052 328.582 44.0108 328.591 44.0177C328.6 44.0246 328.609 44.0323 328.617 44.0409C328.626 44.0494 328.634 44.0583 328.641 44.0671C328.648 44.076 328.653 44.0843 328.658 44.0918C328.667 44.1068 328.67 44.1163 328.67 44.1168C328.67 44.1169 328.667 44.1078 328.664 44.0868C328.661 44.0658 328.658 44.0347 328.658 43.992H326.658C326.658 44.4821 326.782 45.0334 327.203 45.4551C327.625 45.8768 328.176 46 328.666 46V44ZM328.658 43.992V17.64H326.658V43.992H328.658ZM327.342 18.5887L327.918 18.7807L328.551 16.8833L327.975 16.6913L327.342 18.5887ZM327.396 17.2868L315.972 34.8549L317.649 35.9451L329.073 18.3771L327.396 17.2868ZM315.956 34.881C315.867 35.0276 315.792 35.072 315.61 35.072V37.072C316.485 37.072 317.21 36.6684 317.665 35.919L315.956 34.881ZM315.61 35.072C315.429 35.072 315.354 35.0276 315.265 34.881L313.556 35.919C314.011 36.6684 314.736 37.072 315.61 37.072V35.072ZM315.249 34.8549L303.825 17.2868L302.148 18.3771L313.572 35.9451L315.249 34.8549ZM302.573 18.7424L303.101 18.9824L303.928 17.1616L303.4 16.9216L302.573 18.7424ZM302.514 18.072V43.992H304.514V18.072H302.514ZM302.514 43.992C302.514 44.0347 302.512 44.0658 302.509 44.0868C302.506 44.1078 302.503 44.1169 302.503 44.1168C302.503 44.1163 302.506 44.1068 302.515 44.0918C302.52 44.0843 302.525 44.076 302.532 44.0671C302.539 44.0583 302.547 44.0494 302.555 44.0409C302.564 44.0323 302.573 44.0246 302.581 44.0177C302.59 44.0108 302.599 44.0052 302.606 44.0008C302.621 43.9917 302.631 43.9885 302.631 43.9883C302.631 43.9883 302.622 43.9913 302.601 43.9943C302.58 43.9973 302.549 44 302.506 44V46C302.997 46 303.548 45.8768 303.969 45.4551C304.391 45.0334 304.514 44.4821 304.514 43.992H302.514Z" fill="#BB86FC" mask="url(#path-1-outside-1_55_65)"/>
</g>
<defs>
<filter id="filter0_dd_55_65" x="0.840027" y="0.256012" width="344.834" height="63.032" filterUnits="userSpaceOnUse" color-interpolation-filters="sRGB">
<feFlood flood-opacity="0" result="BackgroundImageFix"/>
<feColorMatrix in="SourceAlpha" type="matrix" values="0 0 0 0 0 0 0 0 0 0 0 0 0 0 0 0 0 0 127 0" result="hardAlpha"/>
<feOffset dy="1"/>
<feGaussianBlur stdDeviation="1.5"/>
<feColorMatrix type="matrix" values="0 0 0 0 0 0 0 0 0 0 0 0 0 0 0 0 0 0 0.15 0"/>
<feBlend mode="normal" in2="BackgroundImageFix" result="effect1_dropShadow_55_65"/>
<feColorMatrix in="SourceAlpha" type="matrix" values="0 0 0 0 0 0 0 0 0 0 0 0 0 0 0 0 0 0 127 0" result="hardAlpha"/>
<feMorphology radius="1" operator="dilate" in="SourceAlpha" result="effect2_dropShadow_55_65"/>
<feOffset dy="2"/>
<feGaussianBlur stdDeviation="7.5"/>
<feColorMatrix type="matrix" values="0 0 0 0 0.75625 0 0 0 0 0.5575 0 0 0 0 1 0 0 0 0.61 0"/>
<feBlend mode="normal" in2="effect1_dropShadow_55_65" result="effect2_dropShadow_55_65"/>
<feBlend mode="normal" in="SourceGraphic" in2="effect2_dropShadow_55_65" result="shape"/>
</filter>
</defs>
</svg>
