<svg width="409" height="91" viewBox="0 0 409 91" fill="none" xmlns="http://www.w3.org/2000/svg">
<g filter="url(#filter0_ddd_41_66)">
<path d="M29.456 62.5921C24.5707 62.5921 20.9547 61.4294 18.608 59.1041C16.2827 56.7574 15.12 53.1414 15.12 48.2561V33.5361C15.12 28.6081 16.2827 24.9814 18.608 22.6561C20.9333 20.3094 24.528 19.1574 29.392 19.2001H37.136C41.1467 19.2001 44.208 20.0321 46.32 21.6961C48.432 23.3388 49.6587 25.9414 50 29.5041C50.128 30.4001 49.9573 31.0828 49.488 31.5521C49.0187 32.0214 48.336 32.2561 47.44 32.2561C45.8187 32.2561 44.88 31.3601 44.624 29.5681C44.4107 27.6054 43.728 26.2828 42.576 25.6001C41.4453 24.9174 39.632 24.5761 37.136 24.5761H29.392C27.1307 24.5548 25.3493 24.8108 24.048 25.3441C22.768 25.8774 21.8507 26.8054 21.296 28.1281C20.7627 29.4294 20.496 31.2321 20.496 33.5361V48.2561C20.496 50.5388 20.7627 52.3308 21.296 53.6321C21.8507 54.9334 22.7787 55.8614 24.08 56.4161C25.3813 56.9494 27.1733 57.2161 29.456 57.2161H37.136C39.632 57.2161 41.4453 56.8748 42.576 56.1921C43.728 55.4881 44.4107 54.1654 44.624 52.2241C44.88 50.4321 45.8187 49.5361 47.44 49.5361C48.336 49.5361 49.0187 49.7708 49.488 50.2401C49.9573 50.7094 50.128 51.3921 50 52.2881C49.6587 55.8721 48.432 58.4854 46.32 60.1281C44.208 61.7708 41.1467 62.5921 37.136 62.5921H29.456ZM63.9065 62.5921C62.1145 62.5921 61.2185 61.6961 61.2185 59.9041V32.8321C61.2185 31.0401 62.1145 30.1441 63.9065 30.1441C65.6985 30.1441 66.5945 31.0401 66.5945 32.8321V35.3281C67.8532 33.6214 69.4532 32.3308 71.3945 31.4561C73.3572 30.5814 75.5972 30.1441 78.1145 30.1441C79.9065 30.1441 80.8025 31.0401 80.8025 32.8321C80.8025 34.6241 79.9065 35.5201 78.1145 35.5201C74.4238 35.5201 71.6078 36.2028 69.6665 37.5681C67.7252 38.9334 66.7012 40.7361 66.5945 42.9761V59.9041C66.5945 61.6961 65.6985 62.5921 63.9065 62.5921ZM97.107 75.3921C94.0137 75.3921 91.699 74.6134 90.163 73.0561C88.6483 71.5201 87.891 69.2054 87.891 66.1121C87.891 64.3201 88.787 63.4241 90.579 63.4241C92.371 63.4241 93.267 64.3201 93.267 66.1121C93.267 67.7121 93.5017 68.7574 93.971 69.2481C94.4617 69.7601 95.507 70.0161 97.107 70.0161H109.523C111.102 70.0161 112.136 69.7601 112.627 69.2481C113.118 68.7574 113.363 67.7121 113.363 66.1121V57.9841C112.083 59.9041 110.59 61.1521 108.883 61.7281C107.198 62.3041 105.363 62.5921 103.379 62.5921H100.243C96.019 62.5921 92.9043 61.5894 90.899 59.5841C88.8937 57.5788 87.891 54.4854 87.891 50.3041V32.8321C87.891 31.0401 88.787 30.1441 90.579 30.1441C92.371 30.1441 93.267 31.0401 93.267 32.8321V50.3041C93.267 52.9921 93.747 54.8161 94.707 55.7761C95.6883 56.7361 97.5337 57.2161 100.243 57.2161H103.379C106.878 57.2161 109.416 56.6508 110.995 55.5201C112.574 54.3681 113.363 52.6294 113.363 50.3041V32.8321C113.363 31.0401 114.259 30.1441 116.051 30.1441C117.843 30.1441 118.739 31.0401 118.739 32.8321V66.1121C118.739 69.2054 117.971 71.5201 116.435 73.0561C114.899 74.6134 112.595 75.3921 109.523 75.3921H97.107ZM134.719 75.3921C132.927 75.3921 132.031 74.4961 132.031 72.7041V32.8321C132.031 31.0401 132.927 30.1441 134.719 30.1441C136.511 30.1441 137.407 31.0401 137.407 32.8321V33.6321C138.559 32.4801 139.978 31.6161 141.663 31.0401C143.37 30.4428 145.279 30.1441 147.391 30.1441H149.823C154.09 30.1441 157.247 31.1681 159.295 33.2161C161.343 35.2641 162.367 38.4214 162.367 42.6881V50.0481C162.367 54.2934 161.343 57.4508 159.295 59.5201C157.247 61.5681 154.09 62.5921 149.823 62.5921H137.407V72.7041C137.407 74.4961 136.511 75.3921 134.719 75.3921ZM137.407 57.2161H149.823C152.618 57.2161 154.506 56.7148 155.487 55.7121C156.49 54.7094 156.991 52.8214 156.991 50.0481V42.6881C156.991 39.8934 156.49 38.0054 155.487 37.0241C154.506 36.0214 152.618 35.5201 149.823 35.5201H147.391C144.724 35.5201 142.42 35.8401 140.479 36.4801C138.538 37.1201 137.514 38.1334 137.407 39.5201V57.2161ZM186.602 62.5921C182.378 62.5921 179.263 61.5894 177.258 59.5841C175.253 57.5788 174.25 54.4854 174.25 50.3041V35.5201H171.114C169.322 35.5201 168.426 34.6241 168.426 32.8321C168.426 31.0401 169.322 30.1441 171.114 30.1441H174.25V25.4721C174.25 23.6801 175.146 22.7841 176.938 22.7841C178.73 22.7841 179.626 23.6801 179.626 25.4721V30.1441H186.986C188.778 30.1441 189.674 31.0401 189.674 32.8321C189.674 34.6241 188.778 35.5201 186.986 35.5201H179.626V50.3041C179.626 53.0134 180.117 54.8481 181.098 55.8081C182.079 56.7468 183.914 57.2161 186.602 57.2161C187.434 57.2161 188.085 57.4294 188.554 57.8561C189.045 58.2828 189.29 58.9654 189.29 59.9041C189.29 61.6961 188.394 62.5921 186.602 62.5921ZM208.164 62.5921C203.919 62.5921 200.761 61.5681 198.692 59.5201C196.644 57.4721 195.62 54.3361 195.62 50.1121V42.6881C195.62 38.4001 196.644 35.2428 198.692 33.2161C200.761 31.1681 203.919 30.1441 208.164 30.1441H213.412C217.679 30.1441 220.836 31.1681 222.884 33.2161C224.932 35.2641 225.956 38.4214 225.956 42.6881V50.0481C225.956 54.2934 224.932 57.4508 222.884 59.5201C220.836 61.5681 217.679 62.5921 213.412 62.5921H208.164ZM200.996 50.1121C200.996 52.8641 201.497 54.7414 202.5 55.7441C203.503 56.7254 205.391 57.2161 208.164 57.2161H213.412C216.207 57.2161 218.095 56.7148 219.076 55.7121C220.079 54.7094 220.58 52.8214 220.58 50.0481V42.6881C220.58 39.8934 220.079 38.0054 219.076 37.0241C218.095 36.0214 216.207 35.5201 213.412 35.5201H208.164C206.308 35.5201 204.857 35.7334 203.812 36.1601C202.788 36.5654 202.063 37.2908 201.636 38.3361C201.209 39.3601 200.996 40.8108 200.996 42.6881V50.1121ZM245.399 75.3921C242.817 75.3921 240.78 74.8694 239.286 73.8241C237.815 72.7788 236.865 71.1894 236.439 69.0561C236.289 68.1601 236.449 67.4561 236.919 66.9441C237.388 66.4321 238.103 66.1761 239.062 66.1761C239.873 66.1761 240.46 66.3894 240.823 66.8161C241.207 67.2641 241.537 67.9254 241.815 68.8001C242.071 69.2694 242.465 69.5894 242.999 69.7601C243.553 69.9308 244.353 70.0161 245.399 70.0161H257.303C258.903 70.0161 259.937 69.7601 260.407 69.2481C260.897 68.7574 261.143 67.7334 261.143 66.1761V58.7201C259.991 59.9788 258.561 60.9388 256.855 61.6001C255.169 62.2614 253.271 62.5921 251.159 62.5921H248.727C244.481 62.5921 241.324 61.5681 239.255 59.5201C237.207 57.4721 236.183 54.3361 236.183 50.1121V42.6881C236.183 38.4001 237.196 35.2428 239.223 33.2161C241.271 31.1681 244.439 30.1441 248.727 30.1441H253.975C255.489 30.1441 256.844 30.3681 258.039 30.8161C259.255 31.2641 260.289 31.9468 261.143 32.8641V32.8321C261.143 31.0401 262.039 30.1441 263.831 30.1441C265.623 30.1441 266.519 31.0401 266.519 32.8321V66.1761C266.519 69.3121 265.761 71.6268 264.247 73.1201C262.753 74.6348 260.439 75.3921 257.303 75.3921H245.399ZM248.727 57.2161H251.159C253.975 57.2161 256.343 56.8641 258.263 56.1601C260.183 55.4561 261.143 54.3361 261.143 52.8001V40.0001C261.143 38.2721 260.513 37.0988 259.255 36.4801C258.017 35.8401 256.257 35.5201 253.975 35.5201H248.727C245.975 35.5201 244.087 36.0108 243.063 36.9921C242.06 37.9734 241.559 39.8721 241.559 42.6881V50.1121C241.559 52.8214 242.06 54.6881 243.063 55.7121C244.065 56.7148 245.953 57.2161 248.727 57.2161ZM281.907 62.5921C280.115 62.5921 279.219 61.6961 279.219 59.9041V32.8321C279.219 31.0401 280.115 30.1441 281.907 30.1441C283.699 30.1441 284.595 31.0401 284.595 32.8321V35.3281C285.853 33.6214 287.453 32.3308 289.395 31.4561C291.357 30.5814 293.597 30.1441 296.115 30.1441C297.907 30.1441 298.803 31.0401 298.803 32.8321C298.803 34.6241 297.907 35.5201 296.115 35.5201C292.424 35.5201 289.608 36.2028 287.667 37.5681C285.725 38.9334 284.701 40.7361 284.595 42.9761V59.9041C284.595 61.6961 283.699 62.5921 281.907 62.5921ZM314.578 62.5921C310.994 62.5921 308.327 61.7174 306.578 59.9681C304.828 58.2188 303.954 55.5521 303.954 51.9681C303.954 48.3841 304.818 45.7174 306.546 43.9681C308.295 42.2188 310.972 41.3441 314.578 41.3441H328.114C327.986 39.1041 327.399 37.5788 326.354 36.7681C325.308 35.9361 323.516 35.5201 320.978 35.5201H317.266C315.132 35.5201 313.543 35.6694 312.498 35.9681C311.452 36.2454 310.716 36.7574 310.29 37.5041C309.906 38.4001 309.511 39.0188 309.106 39.3601C308.7 39.7014 308.092 39.8721 307.282 39.8721C306.386 39.8721 305.682 39.6268 305.17 39.1361C304.658 38.6241 304.508 37.9521 304.722 37.1201C305.362 34.7094 306.695 32.9494 308.722 31.8401C310.77 30.7094 313.618 30.1441 317.266 30.1441H320.978C325.244 30.1441 328.402 31.1681 330.45 33.2161C332.498 35.2641 333.522 38.4214 333.522 42.6881V59.9041C333.522 61.6961 332.626 62.5921 330.833 62.5921C329.042 62.5921 328.146 61.6961 328.146 59.9041V58.4641C325.863 61.2161 322.535 62.5921 318.162 62.5921H314.578ZM314.578 57.2161H318.162C319.74 57.2161 321.223 57.0774 322.61 56.8001C323.996 56.5014 325.18 55.9681 326.162 55.2001C327.164 54.4321 327.826 53.3334 328.146 51.9041V46.7201H314.578C312.466 46.7201 311.058 47.0721 310.354 47.7761C309.671 48.4801 309.33 49.8774 309.33 51.9681C309.33 54.0801 309.671 55.4881 310.354 56.1921C311.058 56.8748 312.466 57.2161 314.578 57.2161ZM381.739 30.1441C385.771 30.1441 388.661 31.0934 390.411 32.9921C392.181 34.8908 393.067 38.0374 393.067 42.4321V59.9041C393.067 61.6961 392.171 62.5921 390.379 62.5921C388.587 62.5921 387.691 61.6961 387.691 59.9041V42.4321C387.691 40.0001 387.221 38.2401 386.283 37.1521C385.365 36.0641 383.851 35.5201 381.739 35.5201H379.115C376.683 35.5201 374.944 36.0641 373.899 37.1521C372.853 38.2401 372.331 40.0001 372.331 42.4321V59.9041C372.331 61.6961 371.435 62.5921 369.643 62.5921C367.851 62.5921 366.955 61.6961 366.955 59.9041V42.4321C366.955 40.0001 366.485 38.2401 365.547 37.1521C364.629 36.0641 363.115 35.5201 361.003 35.5201H358.378C355.947 35.5201 354.208 36.0641 353.163 37.1521C352.117 38.2401 351.595 40.0001 351.595 42.4321V59.9041C351.595 61.6961 350.699 62.5921 348.907 62.5921C347.115 62.5921 346.219 61.6961 346.219 59.9041V32.8321C346.219 31.0401 347.115 30.1441 348.907 30.1441C350.699 30.1441 351.595 31.0401 351.595 32.8321V34.3041C352.725 32.8321 353.963 31.7761 355.307 31.1361C356.672 30.4748 358.293 30.1441 360.171 30.1441H361.003C363.648 30.1441 365.728 30.5174 367.243 31.2641C368.757 31.9894 369.909 33.1734 370.699 34.8161C371.829 33.1308 373.024 31.9361 374.283 31.2321C375.563 30.5068 377.173 30.1441 379.115 30.1441H381.739Z" fill="#BB86FC"/>
</g>
<g filter="url(#filter1_d_41_66)">
<path d="M29.112 62C24.568 62 21.2613 60.976 19.192 58.928C17.144 56.8587 16.12 53.552 16.12 49.008V34.48C16.12 29.8933 17.144 26.5867 19.192 24.56C21.2613 22.512 24.5467 21.488 29.048 21.488H36.792C40.696 21.488 43.576 22.2987 45.432 23.92C47.288 25.5413 48.2907 28.1653 48.44 31.792C48.4827 32.24 48.3867 32.592 48.152 32.848C47.9387 33.0827 47.608 33.2 47.16 33.2C46.2853 33.2 45.816 32.752 45.752 31.856C45.624 28.976 44.8773 26.9813 43.512 25.872C42.168 24.7413 39.928 24.176 36.792 24.176H29.048C26.5307 24.176 24.5253 24.5067 23.032 25.168C21.5387 25.8293 20.4613 26.9173 19.8 28.432C19.1387 29.9253 18.808 31.9413 18.808 34.48V49.008C18.808 51.5253 19.1387 53.5413 19.8 55.056C20.4827 56.5493 21.5707 57.6373 23.064 58.32C24.5787 58.9813 26.5947 59.312 29.112 59.312H36.792C39.928 59.312 42.168 58.7573 43.512 57.648C44.8773 56.5173 45.624 54.512 45.752 51.632C45.816 50.736 46.2853 50.288 47.16 50.288C47.608 50.288 47.9387 50.416 48.152 50.672C48.3867 50.9067 48.4827 51.248 48.44 51.696C48.2907 55.3013 47.288 57.9253 45.432 59.568C43.576 61.1893 40.696 62 36.792 62H29.112ZM64.3295 62C63.4335 62 62.9855 61.552 62.9855 60.656V33.84C62.9855 32.944 63.4335 32.496 64.3295 32.496C65.2255 32.496 65.6735 32.944 65.6735 33.84V39.568C66.7402 37.2853 68.3402 35.536 70.4735 34.32C72.6282 33.104 75.2095 32.496 78.2175 32.496C79.1135 32.496 79.5615 32.944 79.5615 33.84C79.5615 34.736 79.1135 35.184 78.2175 35.184C74.3775 35.184 71.3908 36.1013 69.2575 37.936C67.1242 39.7707 65.9295 42.4373 65.6735 45.936V60.656C65.6735 61.552 65.2255 62 64.3295 62ZM97.632 74.8C94.9227 74.8 92.928 74.16 91.648 72.88C90.3893 71.6213 89.76 69.616 89.76 66.864C89.76 65.968 90.208 65.52 91.104 65.52C92 65.52 92.448 65.968 92.448 66.864C92.448 68.8693 92.8213 70.2453 93.568 70.992C94.336 71.7387 95.6907 72.112 97.632 72.112H108.256C110.219 72.112 111.573 71.7387 112.32 70.992C113.067 70.2453 113.44 68.8693 113.44 66.864V57.84C112.267 59.3333 110.731 60.4107 108.832 61.072C106.955 61.7333 104.715 62.064 102.112 62.064H100.768C96.928 62.064 94.1333 61.1893 92.384 59.44C90.6347 57.6907 89.76 54.9173 89.76 51.12V33.776C89.76 32.88 90.208 32.432 91.104 32.432C92 32.432 92.448 32.88 92.448 33.776V51.12C92.448 54.192 93.056 56.336 94.272 57.552C95.5093 58.768 97.6747 59.376 100.768 59.376H102.112C105.931 59.376 108.768 58.6933 110.624 57.328C112.501 55.9413 113.44 53.872 113.44 51.12V33.776C113.44 32.88 113.888 32.432 114.784 32.432C115.68 32.432 116.128 32.88 116.128 33.776V66.864C116.128 69.616 115.499 71.6213 114.24 72.88C112.981 74.16 110.987 74.8 108.256 74.8H97.632ZM133.28 74.8C132.384 74.8 131.936 74.352 131.936 73.456V33.84C131.936 32.944 132.384 32.496 133.28 32.496C134.176 32.496 134.624 32.944 134.624 33.84V37.36C135.52 35.76 136.875 34.5547 138.688 33.744C140.523 32.912 142.944 32.496 145.952 32.496H148.384C152.288 32.496 155.126 33.392 156.896 35.184C158.688 36.9547 159.584 39.792 159.584 43.696V50.8C159.584 54.704 158.688 57.552 156.896 59.344C155.126 61.1147 152.288 62 148.384 62H134.624V73.456C134.624 74.352 134.176 74.8 133.28 74.8ZM134.624 59.312H148.384C151.52 59.312 153.718 58.6827 154.976 57.424C156.256 56.144 156.896 53.936 156.896 50.8V43.696C156.896 40.56 156.256 38.3627 154.976 37.104C153.718 35.824 151.52 35.184 148.384 35.184H145.952C142.304 35.184 139.584 35.792 137.792 37.008C136 38.2027 134.944 40.048 134.624 42.544V59.312ZM185.379 62C181.539 62 178.744 61.1253 176.995 59.376C175.245 57.6267 174.371 54.8533 174.371 51.056V35.184H170.339C169.443 35.184 168.995 34.736 168.995 33.84C168.995 32.944 169.443 32.496 170.339 32.496H174.371V24.88C174.371 23.984 174.819 23.536 175.715 23.536C176.611 23.536 177.059 23.984 177.059 24.88V32.496H185.315C186.211 32.496 186.659 32.944 186.659 33.84C186.659 34.736 186.211 35.184 185.315 35.184H177.059V51.056C177.059 54.128 177.667 56.272 178.883 57.488C180.12 58.704 182.285 59.312 185.379 59.312C185.933 59.312 186.307 59.4293 186.499 59.664C186.691 59.8987 186.787 60.2293 186.787 60.656C186.787 61.552 186.317 62 185.379 62ZM207.385 62C203.481 62 200.633 61.1147 198.841 59.344C197.07 57.552 196.185 54.7253 196.185 50.864V43.696C196.185 39.7493 197.07 36.8907 198.841 35.12C200.633 33.328 203.481 32.4533 207.385 32.496H212.633C216.537 32.496 219.374 33.392 221.145 35.184C222.937 36.9547 223.833 39.792 223.833 43.696V50.8C223.833 54.704 222.937 57.552 221.145 59.344C219.374 61.1147 216.537 62 212.633 62H207.385ZM198.873 50.864C198.873 53.9573 199.502 56.144 200.761 57.424C202.041 58.6827 204.249 59.312 207.385 59.312H212.633C215.769 59.312 217.966 58.6827 219.225 57.424C220.505 56.144 221.145 53.936 221.145 50.8V43.696C221.145 40.56 220.505 38.3627 219.225 37.104C217.966 35.824 215.769 35.184 212.633 35.184H207.385C205.294 35.1627 203.62 35.4293 202.361 35.984C201.124 36.5173 200.228 37.4133 199.673 38.672C199.14 39.9093 198.873 41.584 198.873 43.696V50.864ZM246.22 74.8C243.724 74.8 241.847 74.2773 240.588 73.232C239.329 72.208 238.604 70.576 238.412 68.336C238.391 67.888 238.497 67.536 238.732 67.28C238.967 67.0453 239.287 66.928 239.692 66.928C240.14 66.928 240.481 67.0347 240.716 67.248C240.951 67.4827 241.079 67.824 241.1 68.272C241.228 69.744 241.676 70.7467 242.444 71.28C243.233 71.8347 244.492 72.112 246.22 72.112H258.124C260.108 72.112 261.463 71.7387 262.188 70.992C262.935 70.2667 263.308 68.912 263.308 66.928V57.2C262.391 58.7787 261.015 59.9733 259.18 60.784C257.367 61.5947 254.967 62 251.98 62H249.548C245.644 62 242.796 61.1147 241.004 59.344C239.233 57.552 238.348 54.7253 238.348 50.864V43.696C238.348 39.7493 239.233 36.9013 241.004 35.152C242.796 33.3813 245.644 32.496 249.548 32.496H254.796C257.079 32.496 258.892 32.7947 260.236 33.392C261.58 33.9893 262.604 34.9173 263.308 36.176V33.84C263.308 32.944 263.756 32.496 264.652 32.496C265.548 32.496 265.996 32.944 265.996 33.84V66.928C265.996 69.6373 265.367 71.6213 264.108 72.88C262.849 74.16 260.855 74.8 258.124 74.8H246.22ZM249.548 59.312H251.98C255.479 59.312 258.241 58.736 260.268 57.584C262.295 56.4107 263.308 54.6613 263.308 52.336V42.352C263.308 39.728 262.615 37.8827 261.228 36.816C259.863 35.728 257.719 35.184 254.796 35.184H249.548C246.412 35.184 244.204 35.8133 242.924 37.072C241.665 38.3093 241.036 40.5173 241.036 43.696V50.864C241.036 53.9573 241.665 56.144 242.924 57.424C244.204 58.6827 246.412 59.312 249.548 59.312ZM282.557 62C281.661 62 281.213 61.552 281.213 60.656V33.84C281.213 32.944 281.661 32.496 282.557 32.496C283.453 32.496 283.901 32.944 283.901 33.84V39.568C284.968 37.2853 286.568 35.536 288.701 34.32C290.856 33.104 293.437 32.496 296.445 32.496C297.341 32.496 297.789 32.944 297.789 33.84C297.789 34.736 297.341 35.184 296.445 35.184C292.605 35.184 289.619 36.1013 287.485 37.936C285.352 39.7707 284.157 42.4373 283.901 45.936V60.656C283.901 61.552 283.453 62 282.557 62ZM315.267 62C312.045 62 309.688 61.264 308.195 59.792C306.723 58.2987 305.987 55.9413 305.987 52.72C305.987 49.4773 306.733 47.1093 308.227 45.616C309.72 44.1227 312.067 43.376 315.267 43.376H330.179C330.157 40.368 329.507 38.256 328.227 37.04C326.947 35.8027 324.76 35.184 321.667 35.184H317.955C315.053 35.184 312.941 35.5253 311.619 36.208C310.296 36.8693 309.507 38 309.251 39.6C309.187 40.0053 309.048 40.3253 308.835 40.56C308.643 40.7733 308.333 40.88 307.907 40.88C307.459 40.88 307.117 40.7627 306.883 40.528C306.648 40.272 306.541 39.92 306.563 39.472C306.733 37.04 307.757 35.2693 309.635 34.16C311.533 33.0507 314.307 32.496 317.955 32.496H321.667C325.571 32.496 328.408 33.392 330.179 35.184C331.971 36.9547 332.867 39.792 332.867 43.696V60.656C332.867 61.552 332.419 62 331.523 62C330.627 62 330.179 61.552 330.179 60.656V56.88C328.216 60.2933 324.44 62 318.851 62H315.267ZM315.267 59.312H318.851C321.091 59.312 323.021 59.056 324.643 58.544C326.285 58.032 327.576 57.2213 328.515 56.112C329.475 55.0027 330.029 53.552 330.179 51.76V46.064H315.267C312.813 46.064 311.096 46.5547 310.115 47.536C309.155 48.496 308.675 50.224 308.675 52.72C308.675 55.1733 309.155 56.8907 310.115 57.872C311.096 58.832 312.813 59.312 315.267 59.312ZM381.446 32.432C384.689 32.432 387.003 33.2853 388.39 34.992C389.777 36.6773 390.47 39.472 390.47 43.376V60.72C390.47 61.616 390.022 62.064 389.126 62.064C388.23 62.064 387.782 61.616 387.782 60.72V43.376C387.782 40.432 387.291 38.32 386.31 37.04C385.35 35.76 383.729 35.12 381.446 35.12H378.758C375.857 35.12 373.777 35.76 372.518 37.04C371.259 38.32 370.63 40.432 370.63 43.376V60.72C370.63 61.616 370.182 62.064 369.286 62.064C368.39 62.064 367.942 61.616 367.942 60.72V43.376C367.942 40.432 367.451 38.32 366.47 37.04C365.51 35.76 363.889 35.12 361.606 35.12H358.918C356.017 35.12 353.937 35.76 352.678 37.04C351.419 38.32 350.79 40.432 350.79 43.376V60.72C350.79 61.616 350.342 62.064 349.446 62.064C348.55 62.064 348.102 61.616 348.102 60.72V33.84C348.102 32.944 348.55 32.496 349.446 32.496C350.342 32.496 350.79 32.944 350.79 33.84V36.656C351.665 35.1413 352.731 34.064 353.99 33.424C355.27 32.7627 356.913 32.432 358.918 32.432H361.606C363.697 32.432 365.393 32.8267 366.694 33.616C368.017 34.4053 369.073 35.7067 369.862 37.52C370.715 35.7067 371.846 34.4053 373.254 33.616C374.662 32.8267 376.497 32.432 378.758 32.432H381.446Z" fill="#E1D2F3"/>
</g>
<defs>
<filter id="filter0_ddd_41_66" x="0.119995" y="4.13611" width="407.947" height="86.256" filterUnits="userSpaceOnUse" color-interpolation-filters="sRGB">
<feFlood flood-opacity="0" result="BackgroundImageFix"/>
<feColorMatrix in="SourceAlpha" type="matrix" values="0 0 0 0 0 0 0 0 0 0 0 0 0 0 0 0 0 0 127 0" result="hardAlpha"/>
<feOffset/>
<feGaussianBlur stdDeviation="7.5"/>
<feComposite in2="hardAlpha" operator="out"/>
<feColorMatrix type="matrix" values="0 0 0 0 0.733333 0 0 0 0 0.52549 0 0 0 0 0.988235 0 0 0 1 0"/>
<feBlend mode="normal" in2="BackgroundImageFix" result="effect1_dropShadow_41_66"/>
<feColorMatrix in="SourceAlpha" type="matrix" values="0 0 0 0 0 0 0 0 0 0 0 0 0 0 0 0 0 0 127 0" result="hardAlpha"/>
<feOffset/>
<feGaussianBlur stdDeviation="2"/>
<feComposite in2="hardAlpha" operator="out"/>
<feColorMatrix type="matrix" values="0 0 0 0 0 0 0 0 0 0 0 0 0 0 0 0 0 0 0.25 0"/>
<feBlend mode="normal" in2="effect1_dropShadow_41_66" result="effect2_dropShadow_41_66"/>
<feColorMatrix in="SourceAlpha" type="matrix" values="0 0 0 0 0 0 0 0 0 0 0 0 0 0 0 0 0 0 127 0" result="hardAlpha"/>
<feOffset dy="4"/>
<feGaussianBlur stdDeviation="2"/>
<feComposite in2="hardAlpha" operator="out"/>
<feColorMatrix type="matrix" values="0 0 0 0 0 0 0 0 0 0 0 0 0 0 0 0 0 0 0.25 0"/>
<feBlend mode="normal" in2="effect2_dropShadow_41_66" result="effect3_dropShadow_41_66"/>
<feBlend mode="normal" in="SourceGraphic" in2="effect3_dropShadow_41_66" result="shape"/>
</filter>
<filter id="filter1_d_41_66" x="11.12" y="16.488" width="384.35" height="63.312" filterUnits="userSpaceOnUse" color-interpolation-filters="sRGB">
<feFlood flood-opacity="0" result="BackgroundImageFix"/>
<feColorMatrix in="SourceAlpha" type="matrix" values="0 0 0 0 0 0 0 0 0 0 0 0 0 0 0 0 0 0 127 0" result="hardAlpha"/>
<feOffset/>
<feGaussianBlur stdDeviation="2.5"/>
<feComposite in2="hardAlpha" operator="out"/>
<feColorMatrix type="matrix" values="0 0 0 0 0.788235 0 0 0 0 0.627451 0 0 0 0 0.988235 0 0 0 1 0"/>
<feBlend mode="normal" in2="BackgroundImageFix" result="effect1_dropShadow_41_66"/>
<feBlend mode="normal" in="SourceGraphic" in2="effect1_dropShadow_41_66" result="shape"/>
</filter>
</defs>
</svg>
